<svg width="100%" height="100%" viewBox="0 0 120 108" fill="none" xmlns="http://www.w3.org/2000/svg">
<path d="M0 19L3.5 6.5L104.5 0L120 19L108.5 55.5L95.5 75L104.5 95L97 108H73.5H26L19 95L26 70L8.5 55.5L0 19Z" fill="white"/>
<path fill-rule="evenodd" clip-rule="evenodd" d="M21.1675 14.7101C20.448 15.0244 19.6975 15.9362 19.5614 16.6621C19.5013 16.9825 19.482 20.5008 19.5185 24.4801L19.5848 31.7154L20.0687 33.2862C21.0746 36.5516 22.4702 38.8834 24.7125 41.0457C27.2344 43.4775 29.902 44.8809 33.4704 45.6532C33.8472 45.7348 33.9622 45.8641 33.9622 46.2063C33.9622 46.982 34.6905 50.0531 35.2518 51.6437C36.6126 55.5007 38.8386 58.8996 41.9041 61.8013C44.163 63.9394 47.9152 66.3136 50.4103 67.1834L50.9501 67.3715V69.5068V71.642L50.3205 71.7602C49.9741 71.8251 49.4153 72.1201 49.0788 72.4155C48.5398 72.8889 48.322 73.3892 47.253 76.6091L46.0392 80.2652H45.3768C44.5135 80.2652 43.8232 80.5356 43.2217 81.1095C42.5026 81.7954 39.4198 91.0637 39.5609 92.1152C39.668 92.9134 40.07 93.5482 40.8262 94.1128C41.3174 94.4795 41.417 94.4815 59.5335 94.4815C77.65 94.4815 77.7496 94.4795 78.2409 94.1128C78.9971 93.5482 79.3991 92.9134 79.5062 92.1152C79.6473 91.0637 76.5644 81.7954 75.8454 81.1095C75.2438 80.5356 74.5536 80.2652 73.6902 80.2652H73.0279L71.814 76.6091C70.7451 73.3892 70.5273 72.8889 69.9883 72.4155C69.6517 72.1201 69.0929 71.8251 68.7466 71.7602L68.1169 71.642V69.5068V67.3715L68.6568 67.1834C68.9536 67.0799 69.8588 66.6759 70.6685 66.2857C78.1066 62.7009 83.5082 55.5815 84.8773 47.5586C85.1661 45.8667 85.2195 45.7323 85.6381 45.6445C87.0818 45.3415 89.3013 44.5583 90.4381 43.9503C93.9208 42.0877 96.9763 38.7075 98.3117 35.2398C99.5193 32.1042 99.5 32.2876 99.5 23.9054C99.5 16.4768 99.4901 16.261 99.1312 15.78C98.9285 15.5083 98.5404 15.1201 98.2688 14.9173L97.7749 14.5486L59.744 14.5102C28.3985 14.4787 21.6171 14.5137 21.1675 14.7101ZM25.1999 24.9277C25.1999 30.1709 25.3714 31.5541 26.262 33.4954C26.9554 35.0071 28.2243 36.6525 29.4416 37.6179C30.4301 38.4019 32.5298 39.5245 33.381 39.7239L33.7833 39.8183V29.9998V20.1815H29.4916H25.1999V24.9277ZM85.2837 29.9998V39.8183L85.6861 39.7239C86.5768 39.5152 88.6538 38.3942 89.6648 37.5764C90.9461 36.5402 92.4448 34.5143 92.978 33.0977C93.7448 31.0609 93.8607 29.9962 93.8641 24.9649L93.8671 20.1815H89.5754H85.2837V29.9998Z" fill="#1B1B1B"/>
</svg>
