<svg width="100%" height="100%" viewBox="0 0 117 106" fill="none" xmlns="http://www.w3.org/2000/svg">
<path d="M5.5 75.5L0 105.5L35.5 96L49.5 98.5L84.5 100.5L113 71.5L117 30.5L88 0H33.5L8.5 14.5L0 48L5.5 75.5Z" fill="white"/>
<path fill-rule="evenodd" clip-rule="evenodd" d="M54.1445 12.0934C37.8526 13.6709 24.3836 25.2737 20.5979 40.9919C19.7977 44.3145 19.5682 46.3193 19.5688 49.9788C19.5701 56.2866 20.7954 61.4645 23.6193 67.0947L24.7728 69.3946L22.1998 76.4864C20.7848 80.3871 19.5847 83.8366 19.5332 84.152C19.2063 86.1555 21.3512 88.2899 23.3676 87.9675C23.6931 87.9155 27.1434 86.7142 31.0353 85.298L38.1113 82.7232L40.2471 83.8095C45.8036 86.6363 51.2385 87.9267 57.6038 87.9306C63.6822 87.9345 68.8049 86.7485 74.2822 84.0698C83.4683 79.5771 90.4133 71.6061 93.6159 61.8804C96.7591 52.335 96.056 42.2329 91.621 33.2194C87.8495 25.5543 81.9342 19.6437 74.2822 15.8943C70.5296 14.0556 66.9682 12.946 62.8664 12.3374C60.7637 12.0254 56.1732 11.897 54.1445 12.0934Z" fill="#1B1B1B"/>
</svg>
