<svg width="154" height="128" viewBox="0 0 154 128" fill="none" xmlns="http://www.w3.org/2000/svg">
<path d="M0 52.5L9.5 103.5L23 126L83.5 122L132 128L153.5 41L88 0L54 26.5H30.5L0 52.5Z" fill="white"/>
<path d="M49.8565 45.1162L58.6314 85.3614L45.72 88.6802L34.0003 49.1918L49.8565 45.1162ZM57.0665 106.048C54.8768 106.611 52.8021 106.329 50.8424 105.203C48.8967 104.053 47.6494 102.371 47.1006 100.158C46.5286 98.0109 46.82 95.9739 47.9749 94.0471C49.1486 92.1154 50.8303 90.8681 53.02 90.3053C55.0964 89.7716 57.1239 90.0654 59.1025 91.1869C61.1 92.3034 62.3847 93.9352 62.9567 96.0823C63.3163 97.5595 63.2738 98.9992 62.8293 100.401C62.3988 101.78 61.6811 102.98 60.6763 104.003C59.6666 105.008 58.4633 105.689 57.0665 106.048Z" fill="#1B1B1B"/>
<path d="M72.7278 79.9433L73.216 78.1895C74.3349 74.1704 75.5433 71.0554 76.8411 68.8446C78.139 66.6338 79.6091 64.9828 81.2515 63.8915C82.9006 62.7758 84.7892 61.8843 86.9172 61.2169C88.7609 60.6278 90.424 60.0278 91.9064 59.4169C93.4131 58.8128 94.6689 58.0732 95.6736 57.198C96.7027 56.3297 97.4072 55.2135 97.7869 53.8494C98.126 52.6315 98.132 51.4784 97.8051 50.39C97.4782 49.3017 96.8866 48.3627 96.0303 47.5732C95.174 46.7836 94.1369 46.2193 92.919 45.8803C91.6037 45.5141 90.301 45.4795 89.011 45.7765C87.7453 46.0803 86.6223 46.6732 85.6419 47.5551C84.6858 48.4438 84.0112 49.5945 83.6179 51.0073L64.9107 45.7994C66.4513 40.4541 68.8796 36.4452 72.1957 33.7727C75.5186 31.0758 79.3701 29.4971 83.7501 29.0367C88.137 28.552 92.6931 28.9674 97.4186 30.2829C102.631 31.7341 107.07 33.7965 110.735 36.4703C114.407 39.1198 116.997 42.308 118.505 46.0349C120.02 49.7374 120.141 53.8784 118.866 58.4578C118.045 61.4051 116.811 63.8569 115.165 65.813C113.549 67.7516 111.602 69.3225 109.325 70.5258C107.079 71.7115 104.569 72.6663 101.796 73.3902C99.757 73.925 97.9883 74.5743 96.4896 75.3382C94.9977 76.0777 93.754 77.0568 92.7585 78.2757C91.7698 79.4703 91.0042 81.0419 90.4617 82.9905L89.9735 84.7443L72.7278 79.9433ZM74.8076 106.978C71.982 106.192 69.833 104.531 68.3605 101.995C66.9192 99.4413 66.6074 96.743 67.4251 93.8998C68.1738 91.1162 69.8215 89.0159 72.3682 87.5989C74.9392 86.1887 77.6374 85.8769 80.463 86.6636C83.1424 87.4095 85.2305 89.0537 86.7274 91.5964C88.2486 94.1458 88.6348 96.8123 87.8861 99.596C87.3328 101.489 86.352 103.08 84.9437 104.367C83.5665 105.637 81.9818 106.522 80.1895 107.02C78.4041 107.494 76.6101 107.48 74.8076 106.978Z" fill="#1B1B1B"/>
</svg>
