<svg width="100%" height="100%" viewBox="0 0 734 94" fill="none" xmlns="http://www.w3.org/2000/svg">
<mask id="path-1-outside-1_2079_5551" maskUnits="userSpaceOnUse" x="50" y="-2" width="625" height="81" fill="black">
<rect fill="white" x="50" y="-2" width="625" height="81"/>
<path d="M85.799 75V49.566L87.338 52.077C85.853 53.4 83.7335 54.426 80.9795 55.155C78.2525 55.857 75.404 56.208 72.434 56.208C67.574 56.208 63.6995 55.2495 60.8105 53.3325C57.9215 51.3885 55.8425 48.7155 54.5735 45.3135C53.3045 41.8845 52.67 37.929 52.67 33.447V16.68H63.848V30.126C63.848 31.881 63.9155 33.6765 64.0505 35.5125C64.1855 37.3485 64.577 39.0495 65.225 40.6155C65.9 42.1815 67.007 43.4505 68.546 44.4225C70.085 45.3675 72.245 45.84 75.026 45.84C78.023 45.84 80.561 45.327 82.64 44.301C84.719 43.248 86.177 42.141 87.014 40.98L85.799 45.921V16.68H96.896V75H85.799ZM121.726 75V26.967H103.339V16.68H151.129V26.967H132.742V75H121.726ZM182.667 76.215C176.835 76.215 171.799 74.946 167.56 72.408C163.348 69.87 160.095 66.3195 157.8 61.7565C155.532 57.1935 154.398 51.888 154.398 45.84C154.398 39.792 155.532 34.4865 157.8 29.9235C160.095 25.3605 163.348 21.81 167.56 19.272C171.799 16.734 176.835 15.465 182.667 15.465C188.499 15.465 193.521 16.734 197.733 19.272C201.972 21.81 205.225 25.3605 207.493 29.9235C209.788 34.4865 210.936 39.792 210.936 45.84C210.936 51.888 209.788 57.1935 207.493 61.7565C205.225 66.3195 201.972 69.87 197.733 72.408C193.521 74.946 188.499 76.215 182.667 76.215ZM182.667 65.847C186.366 65.901 189.444 65.1045 191.901 63.4575C194.358 61.8105 196.194 59.475 197.409 56.451C198.651 53.427 199.272 49.89 199.272 45.84C199.272 41.79 198.651 38.28 197.409 35.31C196.194 32.34 194.358 30.0315 191.901 28.3845C189.444 26.7375 186.366 25.887 182.667 25.833C178.968 25.779 175.89 26.5755 173.433 28.2225C170.976 29.8695 169.126 32.205 167.884 35.229C166.669 38.253 166.062 41.79 166.062 45.84C166.062 49.89 166.669 53.4 167.884 56.37C169.126 59.34 170.976 61.6485 173.433 63.2955C175.89 64.9425 178.968 65.793 182.667 65.847ZM248.763 75V26.967H230.376V16.68H278.166V26.967H259.779V75H248.763ZM279.043 75L296.863 16.68H313.306L331.126 75H319.786L303.91 23.565H306.016L290.383 75H279.043ZM289.735 62.85V52.563H320.515V62.85H289.735ZM338.385 75V16.68H349.401V43.572L371.595 16.68H385.041L360.66 45.435L386.58 75H372.648L349.401 48.432V75H338.385ZM414.039 76.215C408.207 76.215 403.171 74.946 398.932 72.408C394.72 69.87 391.467 66.3195 389.172 61.7565C386.904 57.1935 385.77 51.888 385.77 45.84C385.77 39.792 386.904 34.4865 389.172 29.9235C391.467 25.3605 394.72 21.81 398.932 19.272C403.171 16.734 408.207 15.465 414.039 15.465C419.871 15.465 424.893 16.734 429.105 19.272C433.344 21.81 436.597 25.3605 438.865 29.9235C441.16 34.4865 442.308 39.792 442.308 45.84C442.308 51.888 441.16 57.1935 438.865 61.7565C436.597 66.3195 433.344 69.87 429.105 72.408C424.893 74.946 419.871 76.215 414.039 76.215ZM414.039 65.847C417.738 65.901 420.816 65.1045 423.273 63.4575C425.73 61.8105 427.566 59.475 428.781 56.451C430.023 53.427 430.644 49.89 430.644 45.84C430.644 41.79 430.023 38.28 428.781 35.31C427.566 32.34 425.73 30.0315 423.273 28.3845C420.816 26.7375 417.738 25.887 414.039 25.833C410.34 25.779 407.262 26.5755 404.805 28.2225C402.348 29.8695 400.498 32.205 399.256 35.229C398.041 38.253 397.434 41.79 397.434 45.84C397.434 49.89 398.041 53.4 399.256 56.37C400.498 59.34 402.348 61.6485 404.805 63.2955C407.262 64.9425 410.34 65.793 414.039 65.847ZM450.393 75V16.68H488.463V26.967H461.409V39.441H483.603V49.728H461.409V64.713H488.463V75H450.393ZM537.066 10.524V0.803994H546.786V10.524H537.066ZM519.894 10.524V0.803994H529.614V10.524H519.894ZM514.386 75V16.68H552.456V26.967H525.402V39.441H547.596V49.728H525.402V64.713H552.456V75H514.386ZM557.303 75L577.958 45.435L558.842 16.68H571.883L588.407 42.762V16.68H599.423V42.762L615.947 16.68H628.988L609.872 45.435L630.527 75H617L599.423 49.242V75H588.407V49.242L570.83 75H557.303ZM647.28 59.205C647.28 57.423 647.483 55.641 647.888 53.859C648.32 52.077 648.954 50.457 649.791 48.999C650.466 47.622 651.195 46.542 651.978 45.759C652.788 44.949 653.706 44.1255 654.732 43.2885C655.785 42.4515 657.027 41.277 658.458 39.765C659.565 38.55 660.294 37.362 660.645 36.201C661.023 35.013 661.212 33.717 661.212 32.313C661.212 31.584 661.131 30.882 660.969 30.207C660.834 29.532 660.564 28.938 660.159 28.425C659.511 27.534 658.647 26.8995 657.567 26.5215C656.514 26.1165 655.38 25.914 654.165 25.914C653.247 25.914 652.343 26.022 651.452 26.238C650.588 26.454 649.845 26.805 649.224 27.291C648.468 27.858 647.901 28.5735 647.523 29.4375C647.172 30.3015 647.01 31.26 647.037 32.313H635.373C635.697 29.424 636.521 26.778 637.844 24.375C639.167 21.972 640.881 20.082 642.987 18.705C644.526 17.679 646.227 16.896 648.09 16.356C649.953 15.816 651.816 15.546 653.679 15.546C656.757 15.546 659.66 16.032 662.387 17.004C665.114 17.949 667.368 19.515 669.15 21.702C670.338 23.079 671.256 24.6855 671.904 26.5215C672.552 28.3305 672.876 30.153 672.876 31.989C672.876 34.932 672.215 37.605 670.892 40.008C669.569 42.411 667.935 44.652 665.991 46.731C665.154 47.622 664.398 48.405 663.723 49.08C663.075 49.728 662.481 50.349 661.941 50.943C661.428 51.51 660.969 52.104 660.564 52.725C659.808 53.967 659.349 54.9795 659.187 55.7625C659.025 56.5455 658.944 57.693 658.944 59.205H647.28ZM647.361 75V63.336H658.944V75H647.361Z"/>
</mask>
<path d="M85.799 75H83.799V77H85.799V75ZM85.799 49.566L87.5042 48.5209L83.799 42.4755V49.566H85.799ZM87.338 52.077L88.6684 53.5703L89.9172 52.4578L89.0432 51.0319L87.338 52.077ZM80.9795 55.155L81.4781 57.0919L81.4913 57.0884L80.9795 55.155ZM60.8105 53.3325L59.6939 54.9918L59.7047 54.999L60.8105 53.3325ZM54.5735 45.3135L52.6978 46.0076L52.6996 46.0125L54.5735 45.3135ZM52.67 16.68V14.68H50.67V16.68H52.67ZM63.848 16.68H65.848V14.68H63.848V16.68ZM64.0505 35.5125L66.0451 35.3658L64.0505 35.5125ZM65.225 40.6155L63.377 41.3802L63.3826 41.3937L63.3884 41.4072L65.225 40.6155ZM68.546 44.4225L67.478 46.1135L67.4887 46.1202L67.4995 46.1268L68.546 44.4225ZM82.64 44.301L83.5251 46.0945L83.5344 46.0899L83.5437 46.0852L82.64 44.301ZM87.014 40.98L88.9561 41.4576L85.3916 39.8104L87.014 40.98ZM85.799 45.921H83.799L87.7411 46.3986L85.799 45.921ZM85.799 16.68V14.68H83.799V16.68H85.799ZM96.896 16.68H98.896V14.68H96.896V16.68ZM96.896 75V77H98.896V75H96.896ZM87.799 75V49.566H83.799V75H87.799ZM84.0938 50.6111L85.6328 53.1221L89.0432 51.0319L87.5042 48.5209L84.0938 50.6111ZM86.0076 50.5837C84.8363 51.6272 83.0405 52.5406 80.4677 53.2216L81.4913 57.0884C84.4265 56.3114 86.8697 55.1728 88.6684 53.5703L86.0076 50.5837ZM80.4809 53.2181C77.9255 53.876 75.245 54.208 72.434 54.208V58.208C75.563 58.208 78.5796 57.838 81.4781 57.0919L80.4809 53.2181ZM72.434 54.208C67.8153 54.208 64.3704 53.2944 61.9163 51.666L59.7047 54.999C63.0286 57.2046 67.3327 58.208 72.434 58.208V54.208ZM61.927 51.6732C59.4 49.9728 57.577 47.643 56.4474 44.6145L52.6996 46.0125C54.108 49.788 56.443 52.8042 59.694 54.9918L61.927 51.6732ZM56.4492 44.6194C55.2786 41.4564 54.67 37.7438 54.67 33.447H50.67C50.67 38.1142 51.3304 42.3126 52.6978 46.0076L56.4492 44.6194ZM54.67 33.447V16.68H50.67V33.447H54.67ZM52.67 18.68H63.848V14.68H52.67V18.68ZM61.848 16.68V30.126H65.848V16.68H61.848ZM61.848 30.126C61.848 31.9322 61.9175 33.7767 62.0559 35.6592L66.0451 35.3658C65.9135 33.5763 65.848 31.8297 65.848 30.126H61.848ZM62.0559 35.6592C62.2052 37.6894 62.6408 39.6011 63.377 41.3802L67.073 39.8508C66.5132 38.4979 66.1658 37.0076 66.0451 35.3658L62.0559 35.6592ZM63.3884 41.4072C64.234 43.369 65.6222 44.9414 67.478 46.1135L69.614 42.7315C68.3918 41.9596 67.566 40.994 67.0616 39.8238L63.3884 41.4072ZM67.4995 46.1268C69.4798 47.3428 72.0593 47.84 75.026 47.84V43.84C72.4307 43.84 70.6902 43.3921 69.5925 42.7182L67.4995 46.1268ZM75.026 47.84C78.2432 47.84 81.1024 47.2901 83.5251 46.0945L81.7549 42.5075C80.0196 43.3639 77.8028 43.84 75.026 43.84V47.84ZM83.5437 46.0852C85.7488 44.9683 87.5303 43.6838 88.6364 42.1496L85.3916 39.8104C84.8237 40.5982 83.6892 41.5277 81.7363 42.5168L83.5437 46.0852ZM85.0719 40.5024L83.8569 45.4434L87.7411 46.3986L88.9561 41.4576L85.0719 40.5024ZM87.799 45.921V16.68H83.799V45.921H87.799ZM85.799 18.68H96.896V14.68H85.799V18.68ZM94.896 16.68V75H98.896V16.68H94.896ZM96.896 73H85.799V77H96.896V73ZM121.726 75H119.726V77H121.726V75ZM121.726 26.967H123.726V24.967H121.726V26.967ZM103.339 26.967H101.339V28.967H103.339V26.967ZM103.339 16.68V14.68H101.339V16.68H103.339ZM151.129 16.68H153.129V14.68H151.129V16.68ZM151.129 26.967V28.967H153.129V26.967H151.129ZM132.742 26.967V24.967H130.742V26.967H132.742ZM132.742 75V77H134.742V75H132.742ZM123.726 75V26.967H119.726V75H123.726ZM121.726 24.967H103.339V28.967H121.726V24.967ZM105.339 26.967V16.68H101.339V26.967H105.339ZM103.339 18.68H151.129V14.68H103.339V18.68ZM149.129 16.68V26.967H153.129V16.68H149.129ZM151.129 24.967H132.742V28.967H151.129V24.967ZM130.742 26.967V75H134.742V26.967H130.742ZM132.742 73H121.726V77H132.742V73ZM167.56 72.408L166.528 74.121L166.533 74.1239L167.56 72.408ZM157.8 61.7565L156.009 62.6467L156.013 62.6552L157.8 61.7565ZM157.8 29.9235L156.013 29.0248L156.009 29.0333L157.8 29.9235ZM167.56 19.272L166.533 17.556L166.528 17.559L167.56 19.272ZM197.733 19.272L196.701 20.9851L196.705 20.9879L197.733 19.272ZM207.493 29.9235L205.702 30.8137L205.707 30.8222L207.493 29.9235ZM207.493 61.7565L205.707 60.8578L205.702 60.8663L207.493 61.7565ZM197.733 72.408L196.705 70.692L196.701 70.695L197.733 72.408ZM182.667 65.847L182.638 67.8468L182.667 65.847ZM191.901 63.4575L193.014 65.1188L191.901 63.4575ZM197.409 56.451L195.559 55.6912L195.556 55.6982L195.553 55.7054L197.409 56.451ZM197.409 35.31L195.558 36.0673L195.561 36.0745L195.564 36.0816L197.409 35.31ZM191.901 28.3845L193.014 26.7232V26.7232L191.901 28.3845ZM182.667 25.833L182.696 23.8332L182.667 25.833ZM167.884 35.229L166.034 34.4692L166.031 34.4762L166.028 34.4834L167.884 35.229ZM167.884 56.37L166.033 57.1273L166.036 57.1344L166.039 57.1416L167.884 56.37ZM173.433 63.2955L172.319 64.9568L173.433 63.2955ZM182.667 74.215C177.131 74.215 172.464 73.013 168.588 70.692L166.533 74.1239C171.134 76.879 176.539 78.215 182.667 78.215V74.215ZM168.592 70.695C164.717 68.3596 161.719 65.0973 159.587 60.8578L156.013 62.6552C158.471 67.5417 161.98 71.3805 166.528 74.121L168.592 70.695ZM159.591 60.8663C157.484 56.627 156.398 51.6364 156.398 45.84H152.398C152.398 52.1396 153.58 57.76 156.009 62.6467L159.591 60.8663ZM156.398 45.84C156.398 40.0436 157.484 35.053 159.591 30.8137L156.009 29.0333C153.58 33.92 152.398 39.5404 152.398 45.84H156.398ZM159.587 30.8222C161.719 26.5827 164.717 23.3204 168.592 20.985L166.528 17.559C161.98 20.2995 158.471 24.1383 156.013 29.0248L159.587 30.8222ZM168.588 20.9879C172.464 18.667 177.131 17.465 182.667 17.465V13.465C176.539 13.465 171.134 14.801 166.533 17.556L168.588 20.9879ZM182.667 17.465C188.203 17.465 192.854 18.6671 196.701 20.985L198.765 17.559C194.188 14.8009 188.794 13.465 182.667 13.465V17.465ZM196.705 20.9879C200.605 23.323 203.599 26.582 205.702 30.8137L209.284 29.0333C206.852 24.139 203.338 20.297 198.76 17.556L196.705 20.9879ZM205.707 30.8222C207.838 35.0594 208.936 40.047 208.936 45.84H212.936C212.936 39.537 211.739 33.9136 209.28 29.0248L205.707 30.8222ZM208.936 45.84C208.936 51.633 207.838 56.6206 205.707 60.8578L209.28 62.6552C211.739 57.7664 212.936 52.143 212.936 45.84H208.936ZM205.702 60.8663C203.599 65.098 200.605 68.357 196.705 70.692L198.76 74.1239C203.338 71.383 206.852 67.541 209.284 62.6467L205.702 60.8663ZM196.701 70.695C192.854 73.0129 188.203 74.215 182.667 74.215V78.215C188.794 78.215 194.188 76.8791 198.765 74.121L196.701 70.695ZM182.638 67.8468C186.641 67.9052 190.144 67.0432 193.014 65.1188L190.787 61.7962C188.744 63.1658 186.091 63.8968 182.696 63.8472L182.638 67.8468ZM193.014 65.1188C195.839 63.2254 197.916 60.5539 199.265 57.1966L195.553 55.7054C194.472 58.3961 192.877 60.3956 190.787 61.7962L193.014 65.1188ZM199.259 57.2108C200.62 53.8956 201.272 50.0904 201.272 45.84H197.272C197.272 49.6896 196.681 52.9584 195.559 55.6912L199.259 57.2108ZM201.272 45.84C201.272 41.591 200.621 37.807 199.254 34.5384L195.564 36.0816C196.681 38.753 197.272 41.989 197.272 45.84H201.272ZM199.26 34.5527C197.908 31.2475 195.83 28.6104 193.014 26.7232L190.787 30.0458C192.886 31.4526 194.48 33.4325 195.558 36.0673L199.26 34.5527ZM193.014 26.7232C190.164 24.8127 186.685 23.8914 182.696 23.8332L182.638 27.8328C186.047 27.8826 188.723 28.6623 190.787 30.0458L193.014 26.7232ZM182.696 23.8332C178.693 23.7748 175.19 24.6368 172.319 26.5612L174.546 29.8838C176.59 28.5142 179.243 27.7832 182.638 27.8328L182.696 23.8332ZM172.319 26.5612C169.498 28.452 167.41 31.1185 166.034 34.4692L169.734 35.9888C170.842 33.2915 172.453 31.287 174.546 29.8838L172.319 26.5612ZM166.028 34.4834C164.698 37.7943 164.062 41.5944 164.062 45.84H168.062C168.062 41.9856 168.64 38.7117 169.74 35.9746L166.028 34.4834ZM164.062 45.84C164.062 50.0842 164.698 53.8629 166.033 57.1273L169.735 55.6127C168.641 52.9371 168.062 49.6958 168.062 45.84H164.062ZM166.039 57.1416C167.418 60.4401 169.508 63.0721 172.319 64.9568L174.546 61.6342C172.444 60.2249 170.834 58.2399 169.729 55.5984L166.039 57.1416ZM172.319 64.9568C175.169 66.8673 178.649 67.7886 182.638 67.8468L182.696 63.8472C179.287 63.7974 176.61 63.0177 174.546 61.6342L172.319 64.9568ZM248.763 75H246.763V77H248.763V75ZM248.763 26.967H250.763V24.967H248.763V26.967ZM230.376 26.967H228.376V28.967H230.376V26.967ZM230.376 16.68V14.68H228.376V16.68H230.376ZM278.166 16.68H280.166V14.68H278.166V16.68ZM278.166 26.967V28.967H280.166V26.967H278.166ZM259.779 26.967V24.967H257.779V26.967H259.779ZM259.779 75V77H261.779V75H259.779ZM250.763 75V26.967H246.763V75H250.763ZM248.763 24.967H230.376V28.967H248.763V24.967ZM232.376 26.967V16.68H228.376V26.967H232.376ZM230.376 18.68H278.166V14.68H230.376V18.68ZM276.166 16.68V26.967H280.166V16.68H276.166ZM278.166 24.967H259.779V28.967H278.166V24.967ZM257.779 26.967V75H261.779V26.967H257.779ZM259.779 73H248.763V77H259.779V73ZM279.043 75L277.13 74.4156L276.34 77H279.043V75ZM296.863 16.68V14.68H295.383L294.95 16.0956L296.863 16.68ZM313.306 16.68L315.219 16.0956L314.786 14.68H313.306V16.68ZM331.126 75V77H333.828L333.039 74.4156L331.126 75ZM319.786 75L317.875 75.5899L318.31 77H319.786V75ZM303.91 23.565V21.565H301.199L301.999 24.1549L303.91 23.565ZM306.016 23.565L307.929 24.1466L308.714 21.565H306.016V23.565ZM290.383 75V77H291.865L292.296 75.5816L290.383 75ZM289.735 62.85H287.735V64.85H289.735V62.85ZM289.735 52.563V50.563H287.735V52.563H289.735ZM320.515 52.563H322.515V50.563H320.515V52.563ZM320.515 62.85V64.85H322.515V62.85H320.515ZM280.956 75.5844L298.776 17.2644L294.95 16.0956L277.13 74.4156L280.956 75.5844ZM296.863 18.68H313.306V14.68H296.863V18.68ZM311.393 17.2644L329.213 75.5844L333.039 74.4156L315.219 16.0956L311.393 17.2644ZM331.126 73H319.786V77H331.126V73ZM321.697 74.4101L305.821 22.9751L301.999 24.1549L317.875 75.5899L321.697 74.4101ZM303.91 25.565H306.016V21.565H303.91V25.565ZM304.102 22.9834L288.469 74.4184L292.296 75.5816L307.929 24.1466L304.102 22.9834ZM290.383 73H279.043V77H290.383V73ZM291.735 62.85V52.563H287.735V62.85H291.735ZM289.735 54.563H320.515V50.563H289.735V54.563ZM318.515 52.563V62.85H322.515V52.563H318.515ZM320.515 60.85H289.735V64.85H320.515V60.85ZM338.385 75H336.385V77H338.385V75ZM338.385 16.68V14.68H336.385V16.68H338.385ZM349.401 16.68H351.401V14.68H349.401V16.68ZM349.401 43.572H347.401V49.1374L350.943 44.845L349.401 43.572ZM371.595 16.68V14.68H370.652L370.052 15.407L371.595 16.68ZM385.041 16.68L386.566 17.9734L389.359 14.68H385.041V16.68ZM360.66 45.435L359.134 44.1416L358.019 45.4568L359.156 46.7535L360.66 45.435ZM386.58 75V77H390.993L388.084 73.6815L386.58 75ZM372.648 75L371.143 76.317L371.74 77H372.648V75ZM349.401 48.432L350.906 47.115L347.401 43.1091V48.432H349.401ZM349.401 75V77H351.401V75H349.401ZM340.385 75V16.68H336.385V75H340.385ZM338.385 18.68H349.401V14.68H338.385V18.68ZM347.401 16.68V43.572H351.401V16.68H347.401ZM350.943 44.845L373.137 17.953L370.052 15.407L347.858 42.299L350.943 44.845ZM371.595 18.68H385.041V14.68H371.595V18.68ZM383.515 15.3866L359.134 44.1416L362.185 46.7284L386.566 17.9734L383.515 15.3866ZM359.156 46.7535L385.076 76.3185L388.084 73.6815L362.164 44.1165L359.156 46.7535ZM386.58 73H372.648V77H386.58V73ZM374.153 73.683L350.906 47.115L347.896 49.749L371.143 76.317L374.153 73.683ZM347.401 48.432V75H351.401V48.432H347.401ZM349.401 73H338.385V77H349.401V73ZM398.932 72.408L397.9 74.121L397.905 74.1239L398.932 72.408ZM389.172 61.7565L387.381 62.6467L387.385 62.6552L389.172 61.7565ZM389.172 29.9235L387.385 29.0248L387.381 29.0333L389.172 29.9235ZM398.932 19.272L397.905 17.556L397.9 17.559L398.932 19.272ZM429.105 19.272L428.073 20.9851L428.077 20.9879L429.105 19.272ZM438.865 29.9235L437.074 30.8137L437.079 30.8222L438.865 29.9235ZM438.865 61.7565L437.079 60.8578L437.074 60.8663L438.865 61.7565ZM429.105 72.408L428.077 70.692L428.073 70.695L429.105 72.408ZM414.039 65.847L414.01 67.8468L414.039 65.847ZM423.273 63.4575L424.386 65.1188L423.273 63.4575ZM428.781 56.451L426.931 55.6912L426.928 55.6982L426.925 55.7054L428.781 56.451ZM428.781 35.31L426.93 36.0673L426.933 36.0745L426.936 36.0816L428.781 35.31ZM423.273 28.3845L424.386 26.7232V26.7232L423.273 28.3845ZM414.039 25.833L414.068 23.8332H414.068L414.039 25.833ZM399.256 35.229L397.406 34.4692L397.403 34.4762L397.401 34.4834L399.256 35.229ZM399.256 56.37L397.405 57.1273L397.408 57.1344L397.411 57.1416L399.256 56.37ZM404.805 63.2955L403.691 64.9568L404.805 63.2955ZM414.039 74.215C408.503 74.215 403.836 73.013 399.96 70.692L397.905 74.1239C402.506 76.879 407.911 78.215 414.039 78.215V74.215ZM399.965 70.695C396.089 68.3596 393.091 65.0973 390.959 60.8578L387.385 62.6552C389.843 67.5417 393.352 71.3805 397.9 74.121L399.965 70.695ZM390.963 60.8663C388.856 56.627 387.77 51.6364 387.77 45.84H383.77C383.77 52.1396 384.952 57.76 387.381 62.6467L390.963 60.8663ZM387.77 45.84C387.77 40.0436 388.856 35.053 390.963 30.8137L387.381 29.0333C384.952 33.92 383.77 39.5404 383.77 45.84H387.77ZM390.959 30.8222C393.091 26.5827 396.089 23.3204 399.965 20.985L397.9 17.559C393.352 20.2995 389.843 24.1383 387.385 29.0248L390.959 30.8222ZM399.96 20.9879C403.836 18.667 408.503 17.465 414.039 17.465V13.465C407.911 13.465 402.506 14.801 397.905 17.556L399.96 20.9879ZM414.039 17.465C419.575 17.465 424.226 18.6671 428.073 20.985L430.137 17.559C425.56 14.8009 420.166 13.465 414.039 13.465V17.465ZM428.077 20.9879C431.977 23.323 434.971 26.582 437.074 30.8137L440.656 29.0333C438.224 24.139 434.71 20.297 430.132 17.556L428.077 20.9879ZM437.079 30.8222C439.21 35.0594 440.308 40.047 440.308 45.84H444.308C444.308 39.537 443.111 33.9136 440.652 29.0248L437.079 30.8222ZM440.308 45.84C440.308 51.633 439.21 56.6206 437.079 60.8578L440.652 62.6552C443.111 57.7664 444.308 52.143 444.308 45.84H440.308ZM437.074 60.8663C434.971 65.098 431.977 68.357 428.077 70.692L430.132 74.1239C434.71 71.383 438.224 67.541 440.656 62.6467L437.074 60.8663ZM428.073 70.695C424.226 73.0129 419.575 74.215 414.039 74.215V78.215C420.166 78.215 425.56 76.8791 430.137 74.121L428.073 70.695ZM414.01 67.8468C418.013 67.9052 421.516 67.0432 424.386 65.1188L422.159 61.7962C420.116 63.1658 417.463 63.8968 414.068 63.8472L414.01 67.8468ZM424.386 65.1188C427.211 63.2254 429.288 60.5539 430.637 57.1966L426.925 55.7054C425.844 58.3961 424.249 60.3956 422.159 61.7962L424.386 65.1188ZM430.631 57.2108C431.992 53.8956 432.644 50.0904 432.644 45.84H428.644C428.644 49.6896 428.053 52.9584 426.931 55.6912L430.631 57.2108ZM432.644 45.84C432.644 41.591 431.993 37.807 430.626 34.5384L426.936 36.0816C428.053 38.753 428.644 41.989 428.644 45.84H432.644ZM430.632 34.5527C429.28 31.2475 427.202 28.6104 424.386 26.7232L422.159 30.0458C424.258 31.4526 425.852 33.4325 426.93 36.0673L430.632 34.5527ZM424.386 26.7232C421.536 24.8127 418.057 23.8914 414.068 23.8332L414.01 27.8328C417.419 27.8826 420.095 28.6623 422.159 30.0458L424.386 26.7232ZM414.068 23.8332C410.065 23.7748 406.562 24.6368 403.691 26.5612L405.918 29.8838C407.962 28.5142 410.615 27.7832 414.01 27.8328L414.068 23.8332ZM403.691 26.5612C400.871 28.452 398.782 31.1185 397.406 34.4692L401.106 35.9888C402.214 33.2915 403.825 31.287 405.918 29.8838L403.691 26.5612ZM397.401 34.4834C396.07 37.7943 395.434 41.5944 395.434 45.84H399.434C399.434 41.9856 400.012 38.7117 401.112 35.9746L397.401 34.4834ZM395.434 45.84C395.434 50.0842 396.07 53.8629 397.405 57.1273L401.107 55.6127C400.013 52.9371 399.434 49.6958 399.434 45.84H395.434ZM397.411 57.1416C398.791 60.4401 400.88 63.0721 403.691 64.9568L405.918 61.6342C403.816 60.2249 402.206 58.2399 401.102 55.5984L397.411 57.1416ZM403.691 64.9568C406.541 66.8673 410.021 67.7886 414.01 67.8468L414.068 63.8472C410.659 63.7974 407.982 63.0177 405.918 61.6342L403.691 64.9568ZM450.393 75H448.393V77H450.393V75ZM450.393 16.68V14.68H448.393V16.68H450.393ZM488.463 16.68H490.463V14.68H488.463V16.68ZM488.463 26.967V28.967H490.463V26.967H488.463ZM461.409 26.967V24.967H459.409V26.967H461.409ZM461.409 39.441H459.409V41.441H461.409V39.441ZM483.603 39.441H485.603V37.441H483.603V39.441ZM483.603 49.728V51.728H485.603V49.728H483.603ZM461.409 49.728V47.728H459.409V49.728H461.409ZM461.409 64.713H459.409V66.713H461.409V64.713ZM488.463 64.713H490.463V62.713H488.463V64.713ZM488.463 75V77H490.463V75H488.463ZM452.393 75V16.68H448.393V75H452.393ZM450.393 18.68H488.463V14.68H450.393V18.68ZM486.463 16.68V26.967H490.463V16.68H486.463ZM488.463 24.967H461.409V28.967H488.463V24.967ZM459.409 26.967V39.441H463.409V26.967H459.409ZM461.409 41.441H483.603V37.441H461.409V41.441ZM481.603 39.441V49.728H485.603V39.441H481.603ZM483.603 47.728H461.409V51.728H483.603V47.728ZM459.409 49.728V64.713H463.409V49.728H459.409ZM461.409 66.713H488.463V62.713H461.409V66.713ZM486.463 64.713V75H490.463V64.713H486.463ZM488.463 73H450.393V77H488.463V73ZM537.066 10.524H535.066V12.524H537.066V10.524ZM537.066 0.803994V-1.19601H535.066V0.803994H537.066ZM546.786 0.803994H548.786V-1.19601H546.786V0.803994ZM546.786 10.524V12.524H548.786V10.524H546.786ZM519.894 10.524H517.894V12.524H519.894V10.524ZM519.894 0.803994V-1.19601H517.894V0.803994H519.894ZM529.614 0.803994H531.614V-1.19601H529.614V0.803994ZM529.614 10.524V12.524H531.614V10.524H529.614ZM514.386 75H512.386V77H514.386V75ZM514.386 16.68V14.68H512.386V16.68H514.386ZM552.456 16.68H554.456V14.68H552.456V16.68ZM552.456 26.967V28.967H554.456V26.967H552.456ZM525.402 26.967V24.967H523.402V26.967H525.402ZM525.402 39.441H523.402V41.441H525.402V39.441ZM547.596 39.441H549.596V37.441H547.596V39.441ZM547.596 49.728V51.728H549.596V49.728H547.596ZM525.402 49.728V47.728H523.402V49.728H525.402ZM525.402 64.713H523.402V66.713H525.402V64.713ZM552.456 64.713H554.456V62.713H552.456V64.713ZM552.456 75V77H554.456V75H552.456ZM539.066 10.524V0.803994H535.066V10.524H539.066ZM537.066 2.80399H546.786V-1.19601H537.066V2.80399ZM544.786 0.803994V10.524H548.786V0.803994H544.786ZM546.786 8.52399H537.066V12.524H546.786V8.52399ZM521.894 10.524V0.803994H517.894V10.524H521.894ZM519.894 2.80399H529.614V-1.19601H519.894V2.80399ZM527.614 0.803994V10.524H531.614V0.803994H527.614ZM529.614 8.52399H519.894V12.524H529.614V8.52399ZM516.386 75V16.68H512.386V75H516.386ZM514.386 18.68H552.456V14.68H514.386V18.68ZM550.456 16.68V26.967H554.456V16.68H550.456ZM552.456 24.967H525.402V28.967H552.456V24.967ZM523.402 26.967V39.441H527.402V26.967H523.402ZM525.402 41.441H547.596V37.441H525.402V41.441ZM545.596 39.441V49.728H549.596V39.441H545.596ZM547.596 47.728H525.402V51.728H547.596V47.728ZM523.402 49.728V64.713H527.402V49.728H523.402ZM525.402 66.713H552.456V62.713H525.402V66.713ZM550.456 64.713V75H554.456V64.713H550.456ZM552.456 73H514.386V77H552.456V73ZM557.303 75L555.664 73.8546L553.466 77H557.303V75ZM577.958 45.435L579.598 46.5804L580.378 45.463L579.624 44.3278L577.958 45.435ZM558.842 16.68V14.68H555.111L557.177 17.7872L558.842 16.68ZM571.883 16.68L573.573 15.6096L572.984 14.68H571.883V16.68ZM588.407 42.762L586.718 43.8324L590.407 49.6559V42.762H588.407ZM588.407 16.68V14.68H586.407V16.68H588.407ZM599.423 16.68H601.423V14.68H599.423V16.68ZM599.423 42.762H597.423V49.6559L601.113 43.8324L599.423 42.762ZM615.947 16.68V14.68H614.847L614.258 15.6096L615.947 16.68ZM628.988 16.68L630.654 17.7872L632.719 14.68H628.988V16.68ZM609.872 45.435L608.207 44.3278L607.452 45.463L608.233 46.5804L609.872 45.435ZM630.527 75V77H634.364L632.167 73.8546L630.527 75ZM617 75L615.348 76.1273L615.944 77H617V75ZM599.423 49.242L601.075 48.1147L597.423 42.7629V49.242H599.423ZM599.423 75V77H601.423V75H599.423ZM588.407 75H586.407V77H588.407V75ZM588.407 49.242H590.407V42.7629L586.755 48.1147L588.407 49.242ZM570.83 75V77H571.887L572.482 76.1273L570.83 75ZM558.943 76.1454L579.598 46.5804L576.319 44.2896L555.664 73.8546L558.943 76.1454ZM579.624 44.3278L560.508 15.5728L557.177 17.7872L576.293 46.5422L579.624 44.3278ZM558.842 18.68H571.883V14.68H558.842V18.68ZM570.194 17.7504L586.718 43.8324L590.097 41.6916L573.573 15.6096L570.194 17.7504ZM590.407 42.762V16.68H586.407V42.762H590.407ZM588.407 18.68H599.423V14.68H588.407V18.68ZM597.423 16.68V42.762H601.423V16.68H597.423ZM601.113 43.8324L617.637 17.7504L614.258 15.6096L597.734 41.6916L601.113 43.8324ZM615.947 18.68H628.988V14.68H615.947V18.68ZM627.323 15.5728L608.207 44.3278L611.538 46.5422L630.654 17.7872L627.323 15.5728ZM608.233 46.5804L628.888 76.1454L632.167 73.8546L611.512 44.2896L608.233 46.5804ZM630.527 73H617V77H630.527V73ZM618.652 73.8727L601.075 48.1147L597.771 50.3693L615.348 76.1273L618.652 73.8727ZM597.423 49.242V75H601.423V49.242H597.423ZM599.423 73H588.407V77H599.423V73ZM590.407 75V49.242H586.407V75H590.407ZM586.755 48.1147L569.178 73.8727L572.482 76.1273L590.059 50.3693L586.755 48.1147ZM570.83 73H557.303V77H570.83V73ZM647.28 59.205H645.28V61.205H647.28V59.205ZM647.888 53.859L645.944 53.3878L645.941 53.4018L645.938 53.4158L647.888 53.859ZM649.791 48.999L651.526 49.9947L651.558 49.938L651.587 49.8793L649.791 48.999ZM651.978 45.759L650.564 44.3448L651.978 45.759ZM654.732 43.2885L653.488 41.7229L653.478 41.7307L653.468 41.7388L654.732 43.2885ZM658.458 39.765L659.911 41.1398L659.924 41.126L659.937 41.112L658.458 39.765ZM660.645 36.201L658.739 35.5946L658.735 35.6084L658.731 35.6222L660.645 36.201ZM660.969 30.207L659.008 30.5992L659.016 30.6366L659.024 30.6737L660.969 30.207ZM660.159 28.425L658.542 29.6013L658.565 29.6333L658.589 29.6643L660.159 28.425ZM657.567 26.5215L656.849 28.3882L656.878 28.3991L656.907 28.4092L657.567 26.5215ZM651.452 26.238L650.981 24.2943L650.974 24.296L650.967 24.2977L651.452 26.238ZM649.224 27.291L650.424 28.891L650.441 28.8787L650.457 28.866L649.224 27.291ZM647.523 29.4375L645.691 28.6359L645.68 28.6602L645.67 28.6847L647.523 29.4375ZM647.037 32.313V34.313H649.089L649.037 32.2617L647.037 32.313ZM635.373 32.313L633.386 32.0901L633.136 34.313H635.373V32.313ZM637.844 24.375L639.596 25.3396V25.3396L637.844 24.375ZM642.987 18.705L644.082 20.3789L644.089 20.374L644.097 20.3691L642.987 18.705ZM648.09 16.356L648.647 18.2769L648.09 16.356ZM662.387 17.004L661.715 18.8879L661.724 18.8909L661.732 18.8937L662.387 17.004ZM669.15 21.702L667.6 22.9653L667.618 22.9872L667.636 23.0085L669.15 21.702ZM671.904 26.5215L670.018 27.1871L670.021 27.1959L671.904 26.5215ZM670.892 40.008L672.644 40.9726L670.892 40.008ZM665.991 46.731L667.449 48.1004L667.452 48.097L665.991 46.731ZM663.723 49.08L662.309 47.6658L663.723 49.08ZM661.941 50.943L660.461 49.5976L660.458 49.6012L661.941 50.943ZM660.564 52.725L658.889 51.6325L658.872 51.6585L658.856 51.6851L660.564 52.725ZM659.187 55.7625L657.229 55.3573L659.187 55.7625ZM658.944 59.205V61.205H660.944V59.205H658.944ZM647.361 75H645.361V77H647.361V75ZM647.361 63.336V61.336H645.361V63.336H647.361ZM658.944 63.336H660.944V61.336H658.944V63.336ZM658.944 75V77H660.944V75H658.944ZM649.28 59.205C649.28 57.5759 649.465 55.9425 649.838 54.3022L645.938 53.4158C645.5 55.3395 645.28 57.2701 645.28 59.205H649.28ZM649.831 54.3302C650.223 52.7155 650.791 51.2745 651.526 49.9947L648.057 48.0033C647.117 49.6395 646.417 51.4385 645.944 53.3878L649.831 54.3302ZM651.587 49.8793C652.2 48.6297 652.812 47.7533 653.392 47.1732L650.564 44.3448C649.578 45.3307 648.733 46.6143 647.995 48.1187L651.587 49.8793ZM653.392 47.1732C654.148 46.4175 655.015 45.639 655.997 44.8382L653.468 41.7388C652.398 42.612 651.428 43.4805 650.564 44.3448L653.392 47.1732ZM655.977 44.8541C657.132 43.9359 658.446 42.6875 659.911 41.1398L657.006 38.3902C655.608 39.8665 654.439 40.9671 653.488 41.7229L655.977 44.8541ZM659.937 41.112C661.177 39.7508 662.097 38.3087 662.56 36.7798L658.731 35.6222C658.491 36.4153 657.954 37.3492 656.98 38.418L659.937 41.112ZM662.551 36.8074C662.999 35.4003 663.212 33.8972 663.212 32.313H659.212C659.212 33.5368 659.048 34.6257 658.739 35.5946L662.551 36.8074ZM663.212 32.313C663.212 31.4347 663.115 30.5756 662.914 29.7403L659.024 30.6737C659.148 31.1884 659.212 31.7333 659.212 32.313H663.212ZM662.93 29.8148C662.737 28.8474 662.34 27.9595 661.729 27.1857L658.589 29.6643C658.789 29.9165 658.932 30.2166 659.008 30.5992L662.93 29.8148ZM661.777 27.2487C660.88 26.0155 659.676 25.1406 658.228 24.6338L656.907 28.4092C657.618 28.6584 658.143 29.0525 658.542 29.6013L661.777 27.2487ZM658.285 24.6548C656.986 24.1551 655.607 23.914 654.165 23.914V27.914C655.154 27.914 656.042 28.0779 656.849 28.3882L658.285 24.6548ZM654.165 23.914C653.089 23.914 652.026 24.0408 650.981 24.2943L651.923 28.1817C652.659 28.0031 653.406 27.914 654.165 27.914V23.914ZM650.967 24.2977C649.866 24.5729 648.86 25.0361 647.992 25.716L650.457 28.866C650.83 28.5739 651.31 28.3351 651.937 28.1783L650.967 24.2977ZM648.024 25.691C646.993 26.4647 646.208 27.455 645.691 28.6359L649.356 30.2391C649.595 29.692 649.944 29.2513 650.424 28.891L648.024 25.691ZM645.67 28.6847C645.203 29.8349 645.005 31.0716 645.038 32.3643L649.037 32.2617C649.016 31.4483 649.141 30.7681 649.376 30.1903L645.67 28.6847ZM647.037 30.313H635.373V34.313H647.037V30.313ZM637.361 32.5359C637.657 29.8914 638.406 27.4997 639.596 25.3396L636.092 23.4104C634.635 26.0563 633.737 28.9566 633.386 32.0901L637.361 32.5359ZM639.596 25.3396C640.775 23.1968 642.274 21.561 644.082 20.3789L641.893 17.0311C639.489 18.603 637.558 20.7472 636.092 23.4104L639.596 25.3396ZM644.097 20.3691C645.458 19.4618 646.971 18.7628 648.647 18.2769L647.533 14.4351C645.484 15.0292 643.595 15.8961 641.878 17.0409L644.097 20.3691ZM648.647 18.2769C650.337 17.7872 652.012 17.546 653.679 17.546V13.546C651.62 13.546 649.57 13.8448 647.533 14.4351L648.647 18.2769ZM653.679 17.546C656.543 17.546 659.217 17.9975 661.715 18.8879L663.058 15.1201C660.102 14.0665 656.971 13.546 653.679 13.546V17.546ZM661.732 18.8937C664.117 19.7201 666.058 21.0732 667.6 22.9653L670.701 20.4387C668.678 17.9568 666.111 16.1779 663.042 15.1142L661.732 18.8937ZM667.636 23.0085C668.65 24.1839 669.447 25.5693 670.018 27.1871L673.79 25.8559C673.065 23.8017 672.026 21.9741 670.665 20.3955L667.636 23.0085ZM670.021 27.1959C670.596 28.7987 670.876 30.3935 670.876 31.989H674.876C674.876 29.9125 674.509 27.8623 673.787 25.847L670.021 27.1959ZM670.876 31.989C670.876 34.62 670.288 36.9573 669.14 39.0434L672.644 40.9726C674.141 38.2527 674.876 35.244 674.876 31.989H670.876ZM669.14 39.0434C667.9 41.2957 666.365 43.4026 664.53 45.365L667.452 48.097C669.505 45.9014 671.238 43.5263 672.644 40.9726L669.14 39.0434ZM664.534 45.3616C663.707 46.2414 662.966 47.0089 662.309 47.6658L665.137 50.4942C665.831 49.8011 666.601 49.0026 667.449 48.1003L664.534 45.3616ZM662.309 47.6658C661.642 48.3332 661.025 48.9772 660.461 49.5977L663.421 52.2883C663.937 51.7208 664.509 51.1228 665.137 50.4942L662.309 47.6658ZM660.458 49.6012C659.877 50.2437 659.353 50.9207 658.889 51.6325L662.239 53.8175C662.585 53.2873 662.98 52.7763 663.424 52.2848L660.458 49.6012ZM658.856 51.6851C658.062 52.9899 657.461 54.2362 657.229 55.3573L661.146 56.1677C661.238 55.7228 661.555 54.9441 662.273 53.7649L658.856 51.6851ZM657.229 55.3573C657.025 56.3436 656.944 57.6544 656.944 59.205H660.944C660.944 57.7316 661.026 56.7474 661.146 56.1677L657.229 55.3573ZM658.944 57.205H647.28V61.205H658.944V57.205ZM649.361 75V63.336H645.361V75H649.361ZM647.361 65.336H658.944V61.336H647.361V65.336ZM656.944 63.336V75H660.944V63.336H656.944ZM658.944 73H647.361V77H658.944V73Z" fill="#1B1B1B" mask="url(#path-1-outside-1_2079_5551)"/>
<path d="M1 77V15" stroke="#1B1B1B" stroke-width="2" stroke-dasharray="13 13"/>
<path d="M685 72C694 73.6667 712.5 80.5 722.5 93M685 48H734M685 22.5C694 20.8333 712.5 14 722.5 1.5" stroke="black" stroke-width="2" stroke-dasharray="13 13"/>
</svg>
