<svg width="100%" height="100%" viewBox="0 0 91 151" fill="none" xmlns="http://www.w3.org/2000/svg">
<path d="M21.4661 37.8814L0 77.0255L11.9958 96.5975L0 135.742L11.9958 149L46.089 142.055L63.1356 151L91 137.5L81 96.5975L91 77.0255L81 56L68.1865 37.8814L73.8687 27.1483L63.1356 0H33.4619L21.4661 37.8814Z" fill="white"/>
<path fill-rule="evenodd" clip-rule="evenodd" d="M45.0792 11.7669C40.6717 12.9267 37.0735 16.4324 35.7689 20.8371C35.5371 21.6197 35.3832 22.9972 35.3815 24.3046C35.3742 29.9812 38.7914 34.7103 44.2171 36.5316C46.524 37.3059 49.7204 37.3576 51.9596 36.6565C59.781 34.2079 63.3863 25.4812 59.5739 18.2259C56.9037 13.1446 50.5696 10.3221 45.0792 11.7669ZM37.8789 40.652C35.8695 41.1412 34.581 42.347 33.3857 44.8572C23.7867 65.0163 17.6946 78.2879 17.6946 79.041C17.6946 80.9327 18.734 82.1015 21.4283 83.2394C23.777 84.2311 25.5502 84.038 26.8174 82.652C27.096 82.3475 29.0328 78.7521 31.1218 74.6621L34.9198 67.2257L34.924 74.5219L34.928 81.8177L28.495 101.906C22.5539 120.459 22.0627 122.121 22.0712 123.648C22.0825 125.658 22.6222 126.824 24.1736 128.19C25.9541 129.757 29.0842 130.338 31.4353 129.537C32.8565 129.052 34.344 127.75 35.0246 126.395C35.3267 125.793 38.2109 117.036 41.4335 106.936C45.0372 95.6427 47.3635 88.6981 47.4761 88.8993C48.1659 90.1323 52.2325 100.698 52.7181 102.519C53.5977 105.819 53.7092 106.597 54.8747 117.596C55.4929 123.43 56.0935 128.071 56.3034 128.638C56.7116 129.738 57.9465 131.115 59.0777 131.731C60.2999 132.397 63.2659 132.289 64.9298 131.519C67.1838 130.477 68.6416 128.64 69.1694 126.18C69.3784 125.205 69.1713 123.164 67.7617 112.297C65.6522 96.0348 65.4704 95.291 61.2732 85.7576L59.2465 81.1541L59.2451 78.2426C59.2444 76.6411 59.3324 75.3663 59.4408 75.4097C59.5492 75.4529 61.205 77.135 63.1205 79.1475C67.622 83.8773 68.5519 84.4025 70.6982 83.4273C71.8619 82.8987 73.75 80.8479 74.1284 79.7016C74.5189 78.5176 74.2871 76.9369 73.588 76.0209C73.2656 75.5981 70.2643 72.2341 66.9187 68.5452C62.9543 64.1738 60.666 61.4608 60.348 60.7547C59.9217 59.8088 59.8358 58.9679 59.6686 54.1236C59.3417 44.6365 59.1891 43.0019 58.548 42.1015C58.2423 41.6721 57.5565 41.1228 57.0243 40.881C56.1339 40.4766 55.3603 40.4431 47.3219 40.4606C42.5178 40.4712 38.2685 40.5571 37.8789 40.652Z" fill="#1B1B1B"/>
</svg>
