<svg width="100%" height="100%" viewBox="0 0 183 74" fill="#2A1010" xmlns="http://www.w3.org/2000/svg">
<path d="M36.4793 17.8501C39.2654 19.0779 40.6585 20.5654 40.6585 22.3126C40.6585 23.1626 40.4696 23.9654 40.0918 24.7209C39.714 25.4765 39.5251 25.8779 39.5251 25.9251L20.9667 67.4336C20.589 68.3308 20.2584 69.0155 19.9751 69.4878C19.739 69.96 19.3376 70.4086 18.7709 70.8336C18.2042 71.2586 17.4959 71.4711 16.6459 71.4711C15.7959 71.4711 14.5445 71.1169 12.8917 70.4086C10.1056 69.1808 8.71253 67.7169 8.71253 66.0169C8.71253 64.8836 10.9792 59.4766 15.5126 49.796L1.41667 26.0668C0.472224 24.5084 0 23.3515 0 22.5959C0 21.0848 1.27501 19.5737 3.82501 18.0626C5.43057 17.1181 6.68197 16.6459 7.57919 16.6459C8.47642 16.6459 9.20836 16.8348 9.77503 17.2126C10.3417 17.5904 10.7431 17.9917 10.9792 18.4167C11.2625 18.7945 12.5612 20.9904 14.875 25.0043C17.2362 28.9709 19.4792 32.6779 21.6042 36.1251C21.8403 35.3696 23.1154 32.4654 25.4292 27.4126C27.7431 22.3126 28.9709 19.5973 29.1126 19.2667C29.3015 18.9362 29.5848 18.5348 29.9626 18.0626C30.5765 17.2598 31.4265 16.8584 32.5126 16.8584C33.6459 16.8584 34.9682 17.189 36.4793 17.8501Z"/>
<path d="M119.759 42.2877H131.871C133.76 42.2877 135.106 42.5238 135.909 42.996C136.759 43.4682 137.325 44.1529 137.609 45.0502C137.892 45.9474 138.034 47.128 138.034 48.5918C138.034 50.0557 137.892 51.2363 137.609 52.1335C137.325 53.0307 136.83 53.6683 136.121 54.046C135.413 54.3766 134.776 54.5891 134.209 54.6835C133.689 54.7308 132.887 54.7544 131.801 54.7544H106.23C104.577 54.7544 103.137 54.1405 101.909 52.9127C100.681 51.6849 100.067 50.221 100.067 48.521C100.067 46.821 100.681 45.3807 101.909 44.2002C103.137 42.9724 105.025 41.2252 107.575 38.9585C110.126 36.6918 112.439 34.6612 114.517 32.8668C116.595 31.0251 117.728 30.0098 117.917 29.821H107.93C105.238 29.821 103.538 29.3723 102.83 28.4751C102.027 27.4362 101.625 26.0668 101.625 24.3668C101.625 22.6668 101.744 21.4154 101.98 20.6126C102.216 19.7626 102.499 19.1487 102.83 18.7709C103.16 18.3459 103.632 18.0154 104.246 17.7792C105.049 17.5431 106.277 17.4251 107.93 17.4251H130.951C132.603 17.4251 134.044 18.0154 135.271 19.1959C136.499 20.3765 137.113 21.864 137.113 23.6584C137.113 25.4057 136.405 26.964 134.988 28.3334C133.571 29.7029 128.495 34.3543 119.759 42.2877Z"/>
<path d="M166.496 17.5667C171.218 17.5667 175.137 19.3612 178.254 22.9501C181.418 26.539 183 30.9307 183 36.1251V48.5918C183 49.6779 182.953 50.5043 182.858 51.071C182.811 51.5904 182.599 52.2043 182.221 52.9127C181.607 54.1405 179.789 54.7543 176.767 54.7543C173.886 54.7543 172.092 54.1405 171.383 52.9127C171.006 52.2043 170.769 51.5668 170.675 51.0002C170.628 50.4335 170.604 49.5835 170.604 48.4502V36.0543C170.604 34.1182 170.061 32.6071 168.975 31.5209C167.889 30.4348 166.496 29.8918 164.796 29.8918C163.143 29.8918 161.679 30.4112 160.404 31.4501C159.129 32.4418 158.397 33.5751 158.208 34.8501V48.5918C158.208 49.6779 158.161 50.5043 158.067 51.071C158.019 51.5904 157.807 52.2043 157.429 52.9127C156.815 54.1405 154.997 54.7543 151.975 54.7543C149 54.7543 147.182 54.1168 146.521 52.8418C146.19 52.1335 145.978 51.5196 145.883 51.0002C145.836 50.4807 145.812 49.6543 145.812 48.521V6.16252C145.812 5.07641 145.836 4.27363 145.883 3.75418C145.978 3.18751 146.19 2.57362 146.521 1.91251C147.182 0.637502 149.024 0 152.046 0C155.021 0 156.815 0.637502 157.429 1.91251C157.807 2.62084 158.019 3.25835 158.067 3.82501C158.161 4.34446 158.208 5.14724 158.208 6.23335V21.8876C160.569 19.007 163.332 17.5667 166.496 17.5667Z"/>
<path fill-rule="evenodd" clip-rule="evenodd" d="M66.3912 13.4828C63.6668 13.8041 60.949 14.6472 58.4244 15.9205C56.0591 17.1134 53.8633 18.6838 51.9901 20.5566C50.2615 22.2848 48.8575 24.17 47.7913 26.1878C46.7963 28.071 46.0955 30.0698 45.6997 32.1643C45.1592 35.0241 45.0786 37.7852 45.4585 40.4523C45.8711 43.3488 46.8269 46.1344 48.327 48.8152C49.4276 50.7819 51.0202 52.9911 52.843 55.1657C54.3621 56.9781 56.0411 58.7664 57.7282 60.3702C59.8603 62.397 67.3039 71.3075 69.1558 72.421C70.2554 73.082 70.7725 73.1934 70.923 72.8013C70.974 72.6685 70.4961 71.5228 69.8608 70.2554C68.5112 67.5618 67.6784 65.7855 66.6413 62.9701C64.6446 57.5502 61.4684 51.363 61.6922 49.3295C62.1132 45.5021 63.3715 42.5765 65.5102 40.4523C67.1919 38.782 68.6838 37.9792 70.923 37.5394C72.8883 37.1535 73.1271 36.8477 71.8376 36.3681C70.5093 35.8741 69.9011 35.4315 69.4186 34.6083C68.4689 32.9878 69.0449 31.0542 70.6947 30.3245C72.1121 29.6974 73.5658 30.1563 74.595 31.5558C74.8861 31.9518 75.1853 32.2379 75.2598 32.1919C75.3343 32.1458 75.4345 31.7582 75.4827 31.3302C75.5828 30.4426 76.1383 29.271 76.7826 28.5886C78.0566 27.2392 80.6728 27.0184 82.8261 28.0783C84.3545 28.8308 85.3841 29.8777 86.9531 32.2743C88.3635 34.4285 89.5228 35.7011 90.7072 36.3952L91.4523 36.8319L91.3435 37.7588C91.2556 38.5067 91.3076 38.8368 91.6129 39.4674C91.8211 39.8973 92.1051 40.2927 92.2443 40.3461C92.6667 40.5083 92.5371 40.8423 91.6139 41.9694C89.7983 44.1865 86.9425 45.9038 82.8381 47.2465C78.8682 48.5454 76.932 49.6868 75.2542 51.7171C74.324 52.8428 73.4357 54.7423 73.1153 56.2904C72.8766 57.4436 72.8752 57.6394 73.1032 57.9873C73.4374 58.4973 74.7829 58.9179 76.0287 57.9873C77.2746 57.0568 76.4616 56.2565 79.1615 53.0912C80.5383 51.4772 91.6714 46.1139 93.6838 42.4122C94.2484 41.3735 94.5578 40.9763 94.8027 40.9763C95.3259 40.9763 96.0377 40.4845 96.5083 39.7977C97.1051 38.9268 97.1154 37.3126 96.5292 36.4908C95.9457 35.6726 94.9059 35.1887 93.8867 35.2611L93.0597 35.32L92.7367 32.6414C92.7367 32.6414 92.041 28.223 89.865 25.1576C88.5201 23.2629 85.729 19.739 83.8607 18.3347C81.3009 16.4106 78.455 15.0152 75.4827 14.1926C72.525 13.3741 69.4421 13.123 66.3912 13.4828ZM81.197 35.5379C78.8891 36.7147 79.6623 40.1061 82.2387 40.1061C83.5764 40.1061 84.713 38.9822 84.713 37.6593C84.713 35.8623 82.8111 34.7147 81.197 35.5379Z"/>
</svg>

