<svg width="625" height="930" viewBox="0 0 625 930" fill="none" xmlns="http://www.w3.org/2000/svg">
<path d="M555.5 132L636.5 192L648 908.5L521 855.5L496.5 769L374.5 755.5L305 718.5L165.5 755.5L138 651.5L65 607.5L96.5 516.5L51.5 437L96.5 327L43 235L78 163.5L84.5 59.5L199 95L343 33L391.5 95L498 59.5L555.5 132Z" fill="#FFE965"/>
<path d="M630 165L566.5 119L499.5 38L400 71L344 3L195.5 71L54.5 29L47.5 155.5L3 233.5L54.5 327L13 432L64 525.5L22 626L106.5 673L137.5 788L305.5 746L370.5 783.5L479 795L498 885.5L632.5 928" stroke="#FFE965" stroke-width="4" stroke-dasharray="22 22"/>
<path d="M242.473 800.198C242.473 799.415 242.797 798.726 243.445 798.131C244.094 797.537 244.824 797.24 245.634 797.24C246.58 797.24 247.269 797.591 247.701 798.293C250.755 806.238 256.74 813.656 265.658 820.546C272.251 811.602 277.98 804.522 282.844 799.307C283.358 798.793 283.939 798.537 284.587 798.537C285.073 798.537 285.479 798.726 285.803 799.104C286.154 799.482 286.33 799.928 286.33 800.442C286.33 801.279 285.911 802.036 285.073 802.712C281.642 806.711 276.278 813.453 268.982 822.938C269.306 823.262 269.468 823.654 269.468 824.113C269.468 824.708 269.225 825.289 268.738 825.856C268.252 826.424 267.698 826.789 267.077 826.951C267.293 827.842 267.806 829.95 268.617 833.274C269.427 836.598 269.995 839.003 270.319 840.489C270.643 841.975 271.008 843.988 271.414 846.528C271.846 849.069 272.116 851.365 272.224 853.419C272.224 854.095 271.941 854.622 271.373 855C270.806 855.378 270.144 855.567 269.387 855.567C268.63 855.567 267.968 855.378 267.401 855C266.833 854.622 266.55 854.095 266.55 853.419C266.414 851.176 266.117 848.704 265.658 846.002C265.225 843.299 264.82 841.11 264.442 839.435C264.091 837.76 263.496 835.233 262.658 831.855C261.848 828.477 261.321 826.235 261.078 825.127C261.078 824.694 261.159 824.357 261.321 824.113C257.24 821.141 253.579 817.682 250.336 813.737C247.093 809.791 244.54 805.562 242.675 801.05C242.54 800.644 242.473 800.361 242.473 800.198ZM294.599 828.532C294.599 825.991 294.95 823.33 295.653 820.546C296.355 817.763 297.409 815.047 298.814 812.399C300.22 809.724 301.868 807.319 303.759 805.184C305.678 803.049 307.961 801.333 310.61 800.036C313.258 798.712 316.055 798.05 319 798.05C320.378 798.05 321.662 798.158 322.851 798.374C323.175 798.266 324.161 798.212 325.81 798.212C329.053 798.78 331.971 799.982 334.565 801.82C337.159 803.63 339.267 805.86 340.888 808.508C342.51 811.129 343.753 813.993 344.617 817.101C345.482 820.209 345.915 823.411 345.915 826.707C345.915 829.707 345.577 832.585 344.901 835.341C344.226 838.097 343.199 840.651 341.821 843.002C340.442 845.353 338.781 847.393 336.835 849.123C334.889 850.852 332.552 852.217 329.823 853.217C327.12 854.189 324.188 854.676 321.027 854.676C316.001 854.676 311.488 853.608 307.489 851.474C303.489 849.312 300.341 846.245 298.044 842.272C295.747 838.273 294.599 833.693 294.599 828.532ZM299.098 826.545C299.098 829.653 299.733 832.652 301.003 835.544C302.3 838.408 304.03 840.894 306.192 843.002C308.353 845.11 310.907 846.799 313.852 848.069C316.825 849.312 319.905 849.933 323.094 849.933C326.039 849.933 328.715 849.285 331.12 847.988C333.552 846.664 335.538 844.907 337.078 842.718C338.618 840.529 339.794 838.07 340.605 835.341C341.442 832.585 341.861 829.734 341.861 826.789C341.861 823.222 341.294 819.857 340.159 816.696C339.051 813.534 337.267 810.737 334.808 808.305C332.376 805.873 329.444 804.279 326.012 803.522C325.553 803.982 325.053 804.211 324.513 804.211C323.837 804.211 322.81 804.022 321.432 803.644C320.054 803.238 318.973 803.036 318.189 803.036C316.001 803.036 313.893 803.509 311.866 804.454C309.84 805.4 308.056 806.67 306.516 808.265C305.003 809.859 303.678 811.669 302.543 813.696C301.409 815.696 300.544 817.804 299.949 820.019C299.382 822.235 299.098 824.411 299.098 826.545ZM355.035 800.361C355.035 799.199 355.48 798.537 356.372 798.374C360.588 796.942 365.641 796.226 371.532 796.226C376.288 796.226 382.273 796.807 389.488 797.969C390.002 797.969 390.393 798.145 390.664 798.496C390.934 798.847 391.069 799.28 391.069 799.793C391.069 801.09 390.434 801.928 389.164 802.306C386.624 805.684 384.205 809.548 381.908 813.899C379.639 818.249 377.76 822.249 376.274 825.897C374.815 829.545 373.045 833.693 370.964 838.341C368.884 842.961 366.87 846.961 364.925 850.339C366.546 850.339 369.167 850.244 372.788 850.055C376.436 849.866 379.368 849.771 381.584 849.771C386.043 849.771 390.866 850.109 396.055 850.784C396.568 850.784 396.973 851.014 397.271 851.474C397.568 851.906 397.717 852.419 397.717 853.014C397.717 853.608 397.568 854.122 397.271 854.554C396.973 854.959 396.568 855.162 396.055 855.162C391.137 854.433 385.651 854.068 379.598 854.068C375.896 854.068 369.505 854.297 360.426 854.757C359.939 854.757 359.547 854.514 359.25 854.027C358.98 853.514 358.845 852.946 358.845 852.325C358.845 852.055 358.899 851.703 359.007 851.271C362.844 843.542 365.898 837.017 368.168 831.693C370.437 826.37 371.856 822.87 372.424 821.195C372.991 819.52 374.112 817.182 375.788 814.183C377.463 811.183 380.152 806.941 383.854 801.455C377.99 800.779 373.694 800.442 370.964 800.442C369.262 800.442 366.83 800.766 363.668 801.414C360.507 802.063 358.156 802.387 356.615 802.387C355.562 802.387 355.035 801.712 355.035 800.361ZM411.782 837.733C411.782 834.706 412.011 830.139 412.471 824.032C412.957 817.925 413.2 813.331 413.2 810.251C413.2 808.954 413.025 807.008 412.673 804.414C412.349 801.82 412.187 799.861 412.187 798.537C412.187 797.888 412.417 797.348 412.876 796.915C413.363 796.456 413.889 796.226 414.457 796.226C415.376 796.226 415.984 796.861 416.281 798.131C416.875 802.131 417.173 805.927 417.173 809.521C417.173 811.899 417.011 815.304 416.686 819.736C422.604 820.33 428.171 820.709 433.386 820.871C433.656 816.466 433.792 812.534 433.792 809.075C433.792 807.913 433.71 806.17 433.548 803.846C433.386 801.523 433.305 799.78 433.305 798.618C433.305 797.996 433.643 797.483 434.318 797.077C434.994 796.672 435.737 796.469 436.548 796.469C438.007 796.469 438.804 797.023 438.939 798.131C439.21 800.779 439.345 803.968 439.345 807.697C439.345 810.913 439.196 815.75 438.899 822.208C438.602 828.64 438.453 833.477 438.453 836.719C438.453 844.042 439.007 850.217 440.115 855.243C440.115 856.054 439.763 856.716 439.061 857.229C438.358 857.743 437.575 857.999 436.71 857.999C435.386 857.999 434.656 857.5 434.521 856.5C433.413 851.393 432.859 845.191 432.859 837.895C432.859 835.787 432.981 831.423 433.224 824.802C425.982 824.802 420.375 824.438 416.403 823.708C415.889 829.518 415.619 834.058 415.592 837.327C415.592 842.651 416.146 847.326 417.254 851.352C417.389 851.892 417.456 852.257 417.456 852.446C417.456 853.257 417.213 853.987 416.727 854.635C416.24 855.257 415.7 855.567 415.106 855.567C414.457 855.567 414.065 855.108 413.93 854.189C412.498 849.46 411.782 843.975 411.782 837.733Z" fill="#1B1B1B"/>
</svg>
