<svg width="100%" height="100%" viewBox="0 0 962 94" fill="none" xmlns="http://www.w3.org/2000/svg">
<path d="M52.67 80V21.68H63.686V48.572L85.88 21.68H99.326L74.945 50.435L100.865 80H86.933L63.686 53.432V80H52.67ZM102.488 80L120.308 21.68H136.751L154.571 80H143.231L127.355 28.565H129.461L113.828 80H102.488ZM113.18 67.85V57.563H143.96V67.85H113.18ZM161.83 80V21.68H172.846V48.572L195.04 21.68H208.486L184.105 50.435L210.025 80H196.093L172.846 53.432V80H161.83ZM253.417 81.215C249.043 81.215 245.128 80.5535 241.672 79.2305C238.243 77.8805 235.327 75.842 232.924 73.115C230.548 70.388 228.739 66.959 227.497 62.828L238.27 60.155C239.296 63.26 241.065 65.825 243.576 67.85C246.087 69.875 249.124 70.874 252.688 70.847C255.199 70.793 257.589 70.2935 259.857 69.3485C262.152 68.4035 264.001 66.959 265.405 65.015C266.431 63.719 267.214 62.3015 267.754 60.7625C268.321 59.1965 268.726 57.59 268.969 55.943H248.557V45.656H269.05C268.564 42.686 267.619 40.0805 266.215 37.8395C264.811 35.5985 262.975 33.857 260.707 32.615C258.439 31.373 255.766 30.779 252.688 30.833C249.043 30.86 245.938 31.886 243.373 33.911C240.835 35.936 239.08 38.636 238.108 42.011L227.092 40.472C228.55 34.1 231.561 29.1725 236.124 25.6895C240.687 22.2065 246.451 20.465 253.417 20.465C259.06 20.465 263.934 21.7475 268.038 24.3125C272.169 26.8505 275.355 30.401 277.596 34.964C279.837 39.527 280.957 44.819 280.957 50.84C280.957 56.51 279.85 61.64 277.636 66.23C275.449 70.82 272.29 74.465 268.159 77.165C264.055 79.865 259.141 81.215 253.417 81.215ZM300.97 80V31.967H282.583V21.68H330.373V31.967H311.986V80H300.97ZM361.911 81.215C356.079 81.215 351.043 79.946 346.804 77.408C342.592 74.87 339.339 71.3195 337.044 66.7565C334.776 62.1935 333.642 56.888 333.642 50.84C333.642 44.792 334.776 39.4865 337.044 34.9235C339.339 30.3605 342.592 26.81 346.804 24.272C351.043 21.734 356.079 20.465 361.911 20.465C367.743 20.465 372.765 21.734 376.977 24.272C381.216 26.81 384.469 30.3605 386.737 34.9235C389.032 39.4865 390.18 44.792 390.18 50.84C390.18 56.888 389.032 62.1935 386.737 66.7565C384.469 71.3195 381.216 74.87 376.977 77.408C372.765 79.946 367.743 81.215 361.911 81.215ZM361.911 70.847C365.61 70.901 368.688 70.1045 371.145 68.4575C373.602 66.8105 375.438 64.475 376.653 61.451C377.895 58.427 378.516 54.89 378.516 50.84C378.516 46.79 377.895 43.28 376.653 40.31C375.438 37.34 373.602 35.0315 371.145 33.3845C368.688 31.7375 365.61 30.887 361.911 30.833C358.212 30.779 355.134 31.5755 352.677 33.2225C350.22 34.8695 348.37 37.205 347.128 40.229C345.913 43.253 345.306 46.79 345.306 50.84C345.306 54.89 345.913 58.4 347.128 61.37C348.37 64.34 350.22 66.6485 352.677 68.2955C355.134 69.9425 358.212 70.793 361.911 70.847ZM414.481 80V21.68H439.105C439.672 21.68 440.428 21.707 441.373 21.761C442.345 21.788 443.209 21.869 443.965 22.004C447.448 22.544 450.296 23.6915 452.51 25.4465C454.751 27.2015 456.398 29.4155 457.451 32.0885C458.504 34.7345 459.031 37.691 459.031 40.958C459.031 44.225 458.491 47.195 457.411 49.868C456.358 52.514 454.711 54.7145 452.47 56.4695C450.256 58.2245 447.421 59.372 443.965 59.912C443.209 60.02 442.345 60.101 441.373 60.155C440.401 60.209 439.645 60.236 439.105 60.236H425.497V80H414.481ZM425.497 49.949H438.619C439.186 49.949 439.807 49.922 440.482 49.868C441.157 49.814 441.778 49.706 442.345 49.544C443.83 49.139 444.977 48.464 445.787 47.519C446.597 46.547 447.151 45.4805 447.448 44.3195C447.772 43.1315 447.934 42.011 447.934 40.958C447.934 39.905 447.772 38.798 447.448 37.637C447.151 36.449 446.597 35.3825 445.787 34.4375C444.977 33.4655 443.83 32.777 442.345 32.372C441.778 32.21 441.157 32.102 440.482 32.048C439.807 31.994 439.186 31.967 438.619 31.967H425.497V49.949ZM458.287 80L476.107 21.68H492.55L510.37 80H499.03L483.154 28.565H485.26L469.627 80H458.287ZM468.979 67.85V57.563H499.759V67.85H468.979ZM517.629 80V21.68H557.643V31.967H528.645V43.064H542.253C542.793 43.064 543.549 43.091 544.521 43.145C545.493 43.172 546.357 43.226 547.113 43.307C550.461 43.658 553.242 44.6975 555.456 46.4255C557.697 48.1265 559.371 50.3 560.478 52.946C561.612 55.565 562.179 58.427 562.179 61.532C562.179 64.637 561.625 67.5125 560.518 70.1585C559.411 72.7775 557.737 74.951 555.496 76.679C553.282 78.38 550.488 79.406 547.113 79.757C546.357 79.838 545.493 79.9055 544.521 79.9595C543.576 79.9865 542.82 80 542.253 80H517.629ZM528.645 69.713H541.767C542.334 69.713 542.955 69.686 543.63 69.632C544.305 69.578 544.926 69.497 545.493 69.389C547.734 68.903 549.219 67.8635 549.948 66.2705C550.704 64.6775 551.082 63.098 551.082 61.532C551.082 59.939 550.704 58.3595 549.948 56.7935C549.219 55.2005 547.734 54.161 545.493 53.675C544.926 53.54 544.305 53.459 543.63 53.432C542.955 53.378 542.334 53.351 541.767 53.351H528.645V69.713ZM595.34 81.215C589.508 81.215 584.472 79.946 580.233 77.408C576.021 74.87 572.768 71.3195 570.473 66.7565C568.205 62.1935 567.071 56.888 567.071 50.84C567.071 44.792 568.205 39.4865 570.473 34.9235C572.768 30.3605 576.021 26.81 580.233 24.272C584.472 21.734 589.508 20.465 595.34 20.465C601.172 20.465 606.194 21.734 610.406 24.272C614.645 26.81 617.898 30.3605 620.166 34.9235C622.461 39.4865 623.609 44.792 623.609 50.84C623.609 56.888 622.461 62.1935 620.166 66.7565C617.898 71.3195 614.645 74.87 610.406 77.408C606.194 79.946 601.172 81.215 595.34 81.215ZM595.34 70.847C599.039 70.901 602.117 70.1045 604.574 68.4575C607.031 66.8105 608.867 64.475 610.082 61.451C611.324 58.427 611.945 54.89 611.945 50.84C611.945 46.79 611.324 43.28 610.082 40.31C608.867 37.34 607.031 35.0315 604.574 33.3845C602.117 31.7375 599.039 30.887 595.34 30.833C591.641 30.779 588.563 31.5755 586.106 33.2225C583.649 34.8695 581.799 37.205 580.557 40.229C579.342 43.253 578.735 46.79 578.735 50.84C578.735 54.89 579.342 58.4 580.557 61.37C581.799 64.34 583.649 66.6485 586.106 68.2955C588.563 69.9425 591.641 70.793 595.34 70.847ZM643.638 80V31.967H625.251V21.68H673.041V31.967H654.654V80H643.638ZM673.918 80L691.738 21.68H708.181L726.001 80H714.661L698.785 28.565H700.891L685.258 80H673.918ZM684.61 67.85V57.563H715.39V67.85H684.61ZM733.26 80V21.68H771.33V31.967H744.276V44.441H766.47V54.728H744.276V69.713H771.33V80H733.26ZM794.564 80V31.967H776.177V21.68H823.967V31.967H805.58V80H794.564ZM840.763 64.205C840.763 62.423 840.965 60.641 841.37 58.859C841.802 57.077 842.437 55.457 843.274 53.999C843.949 52.622 844.678 51.542 845.461 50.759C846.271 49.949 847.189 49.1255 848.215 48.2885C849.268 47.4515 850.51 46.277 851.941 44.765C853.048 43.55 853.777 42.362 854.128 41.201C854.506 40.013 854.695 38.717 854.695 37.313C854.695 36.584 854.614 35.882 854.452 35.207C854.317 34.532 854.047 33.938 853.642 33.425C852.994 32.534 852.13 31.8995 851.05 31.5215C849.997 31.1165 848.863 30.914 847.648 30.914C846.73 30.914 845.825 31.022 844.934 31.238C844.07 31.454 843.328 31.805 842.707 32.291C841.951 32.858 841.384 33.5735 841.006 34.4375C840.655 35.3015 840.493 36.26 840.52 37.313H828.856C829.18 34.424 830.003 31.778 831.326 29.375C832.649 26.972 834.364 25.082 836.47 23.705C838.009 22.679 839.71 21.896 841.573 21.356C843.436 20.816 845.299 20.546 847.162 20.546C850.24 20.546 853.142 21.032 855.869 22.004C858.596 22.949 860.851 24.515 862.633 26.702C863.821 28.079 864.739 29.6855 865.387 31.5215C866.035 33.3305 866.359 35.153 866.359 36.989C866.359 39.932 865.697 42.605 864.374 45.008C863.051 47.411 861.418 49.652 859.474 51.731C858.637 52.622 857.881 53.405 857.206 54.08C856.558 54.728 855.964 55.349 855.424 55.943C854.911 56.51 854.452 57.104 854.047 57.725C853.291 58.967 852.832 59.9795 852.67 60.7625C852.508 61.5455 852.427 62.693 852.427 64.205H840.763ZM840.844 80V68.336H852.427V80H840.844Z" fill="#1B1B1B"/>
<path d="M1 82V20" stroke="#1B1B1B" stroke-width="2" stroke-dasharray="13 13"/>
<path d="M913 71.5C922 73.1667 940.5 80 950.5 92.5M913 47.5H962M913 22C922 20.3333 940.5 13.5 950.5 1" stroke="black" stroke-width="2" stroke-dasharray="13 13"/>
</svg>
