<svg width="100%" height="100%" viewBox="0 0 33 33" fill="none" xmlns="http://www.w3.org/2000/svg">
<path d="M31.0528 16.042C31.0528 18.5685 30.4301 20.9465 29.3307 23.034C28.489 24.632 27.3673 26.0606 26.0308 27.2541C23.3732 29.6272 19.8693 31.0684 16.0264 31.0684C14.2015 31.0684 12.0734 30.3762 10.0715 29.3346C8.07827 28.2975 6.31628 26.9692 5.22776 25.8142C2.96624 23.4144 1 20.4432 1 16.042C1 13.4087 2.48693 10.3726 3.86456 8.00253C6.46761 3.52417 10.4761 1.01562 16.0264 1.01562C19.7603 1.01562 22.5701 2.77788 25.3339 5.2459C28.5282 8.0982 31.0528 11.7024 31.0528 16.042Z" fill="white" stroke="#1B1B1B" stroke-width="2"/>
<path fill-rule="evenodd" clip-rule="evenodd" d="M15.2582 12.2345C11.6869 13.4133 8.73488 14.3941 8.69825 14.4141C8.56765 14.4856 8.40329 14.6581 8.33223 14.7983C8.14219 15.1733 8.26211 15.6588 8.60493 15.9024C8.66154 15.9426 9.43198 16.2925 10.317 16.6799C11.202 17.0673 11.928 17.3863 11.9304 17.3889C11.9328 17.3914 12.1479 18.3868 12.4085 19.6007C12.6691 20.8147 12.9012 21.8602 12.9244 21.9241C13.0063 22.1495 13.2279 22.2684 13.4584 22.2106C13.4964 22.201 14.0936 21.7701 14.7856 21.253C15.4776 20.7358 16.0549 20.3127 16.0686 20.3127C16.0823 20.3127 16.7194 20.8251 17.4843 21.4514C18.2493 22.0777 18.9329 22.6179 19.0034 22.6518C19.1934 22.7431 19.4876 22.7552 19.6869 22.6799C19.8732 22.6095 20.082 22.4197 20.1654 22.2449C20.1979 22.1769 20.8095 19.6349 21.5246 16.5961C22.6882 11.6511 22.8233 11.0525 22.8114 10.8948C22.7762 10.4297 22.3993 10.0861 21.9286 10.0899C21.7727 10.0912 20.9781 10.3466 15.2582 12.2345ZM15.5288 13.0539C12.0123 14.2138 9.12588 15.1715 9.11463 15.1822C9.0966 15.1993 12.1123 16.5367 12.2503 16.5727C12.2862 16.5821 13.3965 15.9803 15.5329 14.7933C17.3085 13.8069 18.8189 12.9696 18.8894 12.9329C19.1162 12.8145 19.4004 12.8828 19.5024 13.0802C19.5602 13.1918 19.5559 13.4171 19.4944 13.5092C19.4671 13.55 18.4367 14.6377 17.2047 15.9261L14.9646 18.2686L15.0544 18.3458C15.3692 18.616 19.3796 21.8825 19.3869 21.8746C19.3919 21.8693 19.9683 19.4298 20.6678 16.4537C21.3674 13.4776 21.9463 11.0201 21.9544 10.9927C21.9625 10.9653 21.9586 10.9434 21.9458 10.944C21.933 10.9446 19.0454 11.8941 15.5288 13.0539ZM14.8026 16.1851C13.2874 17.0281 12.8101 17.3063 12.8139 17.344C12.8283 17.4917 13.3809 19.9938 13.3953 19.9769C13.4047 19.9658 13.5249 19.5594 13.6624 19.0738C13.7999 18.5883 13.9302 18.1561 13.9519 18.1136C13.9736 18.071 14.5827 17.4174 15.3054 16.6611C16.9162 14.9755 16.8246 15.0721 16.8091 15.0741C16.802 15.075 15.899 15.575 14.8026 16.1851ZM14.5064 19.2518C14.321 19.8832 14.1032 20.6622 14.1105 20.6682C14.1152 20.6721 14.4031 20.4614 14.7503 20.2002L15.3816 19.7251L15.2915 19.653C15.2419 19.6134 15.0577 19.4637 14.8821 19.3203L14.5629 19.0596L14.5064 19.2518Z" fill="black"/>
</svg>
