<svg width="100%" height="100%" viewBox="0 0 33 33" fill="none" xmlns="http://www.w3.org/2000/svg">
<path d="M32.0001 16.958C32.0001 20.015 30.3927 23.4256 28.6748 25.9351C25.9758 29.8779 22.143 31.9845 16.9737 31.9845C15.9546 31.9845 14.7366 31.6546 13.4597 31.1656C12.4274 30.7703 11.4283 30.3005 10.5256 29.8761C10.3189 29.7789 10.1172 29.6841 9.92138 29.5931C7.32584 28.3871 5.34534 26.7283 4.0097 24.6491C2.67451 22.5707 1.94727 20.0155 1.94727 16.958C1.94727 15.4032 2.521 13.5642 3.21311 11.8538C3.554 11.0114 3.91128 10.2288 4.22116 9.5526C4.23608 9.52004 4.25097 9.48758 4.26579 9.45524C4.54687 8.84217 4.80754 8.27361 4.94557 7.8725C4.94411 7.87674 4.94495 7.87534 4.94924 7.8682C4.96591 7.84039 5.03478 7.7255 5.22381 7.51653C5.43687 7.281 5.74094 6.99249 6.12945 6.66755C6.90469 6.01915 7.96409 5.26899 9.17916 4.55745C11.6435 3.11431 14.5744 1.93164 16.9737 1.93164C21.3766 1.93164 24.4247 3.95645 27.2499 7.16127C29.722 9.96568 32.0001 13.2937 32.0001 16.958Z" fill="white" stroke="#1B1B1B" stroke-width="2"/>
<path fill-rule="evenodd" clip-rule="evenodd" d="M8.89892 12.87C8.46816 12.9748 8.18945 13.339 8.18945 13.7973C8.18945 14.453 8.80058 16.1388 9.52028 17.4683C11.1428 20.4655 13.1271 22.2751 15.2891 22.7291C15.4909 22.7715 15.7775 22.801 16.1005 22.8126C17.1094 22.8489 17.6422 22.65 17.8695 22.1522C17.9343 22.0103 17.9409 21.9498 17.9419 21.4813C17.9425 21.1981 17.9462 20.78 17.9502 20.5522L17.9573 20.1381L18.0899 20.2046C18.4479 20.3842 18.8835 20.7853 20.1262 22.0797C20.8547 22.8385 20.8294 22.83 22.333 22.8169C23.3682 22.8078 23.4087 22.8052 23.582 22.7352C24.0991 22.5265 24.3043 21.947 24.0672 21.3649C23.8144 20.7442 23.2762 20.0437 22.0631 18.7564L21.4803 18.138L21.5366 18.0495C21.5676 18.0009 21.8129 17.6332 22.0816 17.2324C22.9098 15.9977 23.5661 14.8337 23.7592 14.2568C23.86 13.9557 23.8805 13.5981 23.8078 13.4078C23.7328 13.2115 23.5459 13.0159 23.3476 12.9263C23.1854 12.853 23.1776 12.8525 22.0135 12.8525H20.8426L20.6351 12.9547C20.3335 13.1031 20.1547 13.3128 19.972 13.7319C19.4489 14.9324 18.5801 16.3645 18.0824 16.847L17.9214 17.0031L17.9314 15.3335L17.9414 13.6639L17.8678 13.4455C17.8121 13.2804 17.7588 13.1916 17.6495 13.0822C17.4057 12.8383 17.3946 12.8369 15.7059 12.8369C14.2899 12.8369 14.2406 12.8389 14.0672 12.9038C13.6969 13.0424 13.4685 13.3935 13.5028 13.7716C13.5213 13.9754 13.6085 14.1622 13.8523 14.5203C14.1304 14.9286 14.1308 14.9318 14.1328 16.3996C14.1341 17.3977 14.1262 17.6618 14.0962 17.6368C14.0751 17.6195 13.9665 17.4824 13.8547 17.3322C13.2738 16.5521 12.6096 15.2365 12.1583 13.9724C11.9315 13.3369 11.7799 13.1216 11.4422 12.9553L11.2337 12.8525L10.125 12.847C9.51532 12.8439 8.96358 12.8542 8.89892 12.87ZM9.22431 14.0064C9.31903 14.6103 9.84433 15.9332 10.4121 16.9976C11.8528 19.6984 13.6742 21.3857 15.5427 21.7503C15.8369 21.8077 16.6012 21.8286 16.807 21.7848L16.9207 21.7606L16.936 20.833C16.9526 19.819 16.9739 19.6725 17.1385 19.438C17.3744 19.102 17.9612 19.0342 18.485 19.2825C19.035 19.5432 19.5918 20.0275 20.5383 21.0686C20.8505 21.4119 21.1417 21.7032 21.217 21.7473L21.3487 21.8246H22.2432C23.0432 21.8246 23.1377 21.8193 23.1377 21.7745C23.1377 21.6846 22.9234 21.314 22.6969 21.0123C22.39 20.6034 21.8699 20.0101 21.2205 19.328C20.5745 18.6495 20.469 18.4829 20.4701 18.1428C20.4709 17.8602 20.5415 17.7227 21.1645 16.7898C21.4529 16.3579 21.8487 15.7379 22.044 15.4121C22.3878 14.8385 22.7698 14.097 22.8118 13.9214L22.8324 13.8355H21.9612C21.3126 13.8355 21.0767 13.8455 21.0382 13.8746C21.0097 13.896 20.9214 14.061 20.8419 14.2412C20.3282 15.4058 19.576 16.6633 18.9637 17.3809C18.4066 18.0338 17.7648 18.3326 17.3643 18.1256C17.1574 18.0186 17.0016 17.7459 16.9587 17.416C16.9425 17.2919 16.9289 16.4355 16.9284 15.5129L16.9274 13.8355H15.7713H14.6151L14.7061 13.9682C14.8541 14.1839 14.9924 14.4813 15.0631 14.7361C15.1255 14.9605 15.1301 15.0619 15.1412 16.4508C15.154 18.0536 15.1413 18.2407 15.0009 18.5154C14.8709 18.7699 14.7098 18.8712 14.4117 18.8863C14.2 18.897 14.1592 18.8888 13.979 18.8001C13.162 18.3979 11.9948 16.4987 11.1997 14.2776C11.1424 14.1174 11.0732 13.9524 11.0461 13.9109L10.9967 13.8355H10.0971H9.19754L9.22431 14.0064Z" fill="black"/>
</svg>
