<svg width="934" height="94" viewBox="0 0 934 94" fill="none" xmlns="http://www.w3.org/2000/svg">
<mask id="path-1-outside-1_2090_5582" maskUnits="userSpaceOnUse" x="83" y="17" width="711" height="63" fill="black">
<rect fill="white" x="83" y="17" width="711" height="63"/>
<path d="M85.67 78V19.68H96.686V43.656H122.768V19.68H133.784V78H122.768V53.943H96.686V78H85.67ZM141.104 78L158.924 19.68H175.367L193.187 78H181.847L165.971 26.565H168.077L152.444 78H141.104ZM151.796 65.85V55.563H182.576V65.85H151.796ZM200.446 78V19.68H211.462V67.713H228.148V19.68H239.164V67.713H255.85V19.68H266.866V78H200.446ZM325.912 78H314.734V39.12L289.381 78H278.203V19.68H289.381V58.56L314.734 19.68H325.912V78ZM353.429 78V19.68H401.543V78H390.527V29.967H364.445V78H353.429ZM408.863 78L426.683 19.68H443.126L460.946 78H449.606L433.73 26.565H435.836L420.203 78H408.863ZM419.555 65.85V55.563H450.335V65.85H419.555ZM468.205 78V19.68H492.829C493.396 19.68 494.152 19.707 495.097 19.761C496.069 19.788 496.933 19.869 497.689 20.004C501.172 20.544 504.021 21.6915 506.235 23.4465C508.476 25.2015 510.123 27.4155 511.176 30.0885C512.229 32.7345 512.755 35.691 512.755 38.958C512.755 42.225 512.215 45.195 511.135 47.868C510.082 50.514 508.435 52.7145 506.194 54.4695C503.98 56.2245 501.145 57.372 497.689 57.912C496.933 58.02 496.069 58.101 495.097 58.155C494.125 58.209 493.369 58.236 492.829 58.236H479.221V78H468.205ZM479.221 47.949H492.343C492.91 47.949 493.531 47.922 494.206 47.868C494.881 47.814 495.502 47.706 496.069 47.544C497.554 47.139 498.702 46.464 499.512 45.519C500.322 44.547 500.875 43.4805 501.172 42.3195C501.496 41.1315 501.658 40.011 501.658 38.958C501.658 37.905 501.496 36.798 501.172 35.637C500.875 34.449 500.322 33.3825 499.512 32.4375C498.702 31.4655 497.554 30.777 496.069 30.372C495.502 30.21 494.881 30.102 494.206 30.048C493.531 29.994 492.91 29.967 492.343 29.967H479.221V47.949ZM534.414 78V29.967H516.027V19.68H563.817V29.967H545.43V78H534.414ZM570.325 78V19.68H581.341V43.656H607.423V19.68H618.439V78H607.423V53.943H581.341V78H570.325ZM629.81 78V19.68H667.88V29.967H640.826V42.441H663.02V52.728H640.826V67.713H667.88V78H629.81ZM677.587 78V19.68H702.211C702.778 19.68 703.534 19.707 704.479 19.761C705.451 19.788 706.315 19.869 707.071 20.004C710.554 20.544 713.402 21.6915 715.616 23.4465C717.857 25.2015 719.504 27.4155 720.557 30.0885C721.61 32.7345 722.137 35.691 722.137 38.958C722.137 42.225 721.597 45.195 720.517 47.868C719.464 50.514 717.817 52.7145 715.576 54.4695C713.362 56.2245 710.527 57.372 707.071 57.912C706.315 58.02 705.451 58.101 704.479 58.155C703.507 58.209 702.751 58.236 702.211 58.236H688.603V78H677.587ZM688.603 47.949H701.725C702.292 47.949 702.913 47.922 703.588 47.868C704.263 47.814 704.884 47.706 705.451 47.544C706.936 47.139 708.083 46.464 708.893 45.519C709.703 44.547 710.257 43.4805 710.554 42.3195C710.878 41.1315 711.04 40.011 711.04 38.958C711.04 37.905 710.878 36.798 710.554 35.637C710.257 34.449 709.703 33.3825 708.893 32.4375C708.083 31.4655 706.936 30.777 705.451 30.372C704.884 30.21 704.263 30.102 703.588 30.048C702.913 29.994 702.292 29.967 701.725 29.967H688.603V47.949ZM730.188 78V19.68H741.204V39.444H754.812C755.352 39.444 756.108 39.471 757.08 39.525C758.052 39.552 758.916 39.633 759.672 39.768C763.128 40.308 765.963 41.4555 768.177 43.2105C770.418 44.9655 772.065 47.1795 773.118 49.8525C774.198 52.4985 774.738 55.455 774.738 58.722C774.738 61.989 774.211 64.959 773.158 67.632C772.105 70.278 770.458 72.4785 768.217 74.2335C766.003 75.9885 763.155 77.136 759.672 77.676C758.916 77.784 758.052 77.865 757.08 77.919C756.135 77.973 755.379 78 754.812 78H730.188ZM741.204 67.713H754.326C754.893 67.713 755.514 67.686 756.189 67.632C756.864 67.578 757.485 67.47 758.052 67.308C759.537 66.903 760.684 66.228 761.494 65.283C762.304 64.311 762.858 63.2445 763.155 62.0835C763.479 60.8955 763.641 59.775 763.641 58.722C763.641 57.669 763.479 56.562 763.155 55.401C762.858 54.213 762.304 53.1465 761.494 52.2015C760.684 51.2295 759.537 50.541 758.052 50.136C757.485 49.974 756.864 49.866 756.189 49.812C755.514 49.758 754.893 49.731 754.326 49.731H741.204V67.713ZM780.57 78V19.68H791.586V78H780.57Z"/>
</mask>
<path d="M85.67 78H83.67V80H85.67V78ZM85.67 19.68V17.68H83.67V19.68H85.67ZM96.686 19.68H98.686V17.68H96.686V19.68ZM96.686 43.656H94.686V45.656H96.686V43.656ZM122.768 43.656V45.656H124.768V43.656H122.768ZM122.768 19.68V17.68H120.768V19.68H122.768ZM133.784 19.68H135.784V17.68H133.784V19.68ZM133.784 78V80H135.784V78H133.784ZM122.768 78H120.768V80H122.768V78ZM122.768 53.943H124.768V51.943H122.768V53.943ZM96.686 53.943V51.943H94.686V53.943H96.686ZM96.686 78V80H98.686V78H96.686ZM87.67 78V19.68H83.67V78H87.67ZM85.67 21.68H96.686V17.68H85.67V21.68ZM94.686 19.68V43.656H98.686V19.68H94.686ZM96.686 45.656H122.768V41.656H96.686V45.656ZM124.768 43.656V19.68H120.768V43.656H124.768ZM122.768 21.68H133.784V17.68H122.768V21.68ZM131.784 19.68V78H135.784V19.68H131.784ZM133.784 76H122.768V80H133.784V76ZM124.768 78V53.943H120.768V78H124.768ZM122.768 51.943H96.686V55.943H122.768V51.943ZM94.686 53.943V78H98.686V53.943H94.686ZM96.686 76H85.67V80H96.686V76ZM141.104 78L139.192 77.4156L138.402 80H141.104V78ZM158.924 19.68V17.68H157.444L157.012 19.0956L158.924 19.68ZM175.367 19.68L177.28 19.0956L176.848 17.68H175.367V19.68ZM193.187 78V80H195.89L195.1 77.4156L193.187 78ZM181.847 78L179.936 78.5899L180.372 80H181.847V78ZM165.971 26.565V24.565H163.261L164.06 27.1549L165.971 26.565ZM168.077 26.565L169.991 27.1466L170.776 24.565H168.077V26.565ZM152.444 78V80H153.927L154.358 78.5816L152.444 78ZM151.796 65.85H149.796V67.85H151.796V65.85ZM151.796 55.563V53.563H149.796V55.563H151.796ZM182.576 55.563H184.576V53.563H182.576V55.563ZM182.576 65.85V67.85H184.576V65.85H182.576ZM143.017 78.5844L160.837 20.2644L157.012 19.0956L139.192 77.4156L143.017 78.5844ZM158.924 21.68H175.367V17.68H158.924V21.68ZM173.455 20.2644L191.275 78.5844L195.1 77.4156L177.28 19.0956L173.455 20.2644ZM193.187 76H181.847V80H193.187V76ZM183.758 77.4101L167.882 25.9751L164.06 27.1549L179.936 78.5899L183.758 77.4101ZM165.971 28.565H168.077V24.565H165.971V28.565ZM166.164 25.9834L150.531 77.4184L154.358 78.5816L169.991 27.1466L166.164 25.9834ZM152.444 76H141.104V80H152.444V76ZM153.796 65.85V55.563H149.796V65.85H153.796ZM151.796 57.563H182.576V53.563H151.796V57.563ZM180.576 55.563V65.85H184.576V55.563H180.576ZM182.576 63.85H151.796V67.85H182.576V63.85ZM200.446 78H198.446V80H200.446V78ZM200.446 19.68V17.68H198.446V19.68H200.446ZM211.462 19.68H213.462V17.68H211.462V19.68ZM211.462 67.713H209.462V69.713H211.462V67.713ZM228.148 67.713V69.713H230.148V67.713H228.148ZM228.148 19.68V17.68H226.148V19.68H228.148ZM239.164 19.68H241.164V17.68H239.164V19.68ZM239.164 67.713H237.164V69.713H239.164V67.713ZM255.85 67.713V69.713H257.85V67.713H255.85ZM255.85 19.68V17.68H253.85V19.68H255.85ZM266.866 19.68H268.866V17.68H266.866V19.68ZM266.866 78V80H268.866V78H266.866ZM202.446 78V19.68H198.446V78H202.446ZM200.446 21.68H211.462V17.68H200.446V21.68ZM209.462 19.68V67.713H213.462V19.68H209.462ZM211.462 69.713H228.148V65.713H211.462V69.713ZM230.148 67.713V19.68H226.148V67.713H230.148ZM228.148 21.68H239.164V17.68H228.148V21.68ZM237.164 19.68V67.713H241.164V19.68H237.164ZM239.164 69.713H255.85V65.713H239.164V69.713ZM257.85 67.713V19.68H253.85V67.713H257.85ZM255.85 21.68H266.866V17.68H255.85V21.68ZM264.866 19.68V78H268.866V19.68H264.866ZM266.866 76H200.446V80H266.866V76ZM325.912 78V80H327.912V78H325.912ZM314.734 78H312.734V80H314.734V78ZM314.734 39.12H316.734V32.3913L313.059 38.0276L314.734 39.12ZM289.381 78V80H290.465L291.056 79.0924L289.381 78ZM278.203 78H276.203V80H278.203V78ZM278.203 19.68V17.68H276.203V19.68H278.203ZM289.381 19.68H291.381V17.68H289.381V19.68ZM289.381 58.56H287.381V65.2887L291.056 59.6524L289.381 58.56ZM314.734 19.68V17.68H313.651L313.059 18.5876L314.734 19.68ZM325.912 19.68H327.912V17.68H325.912V19.68ZM325.912 76H314.734V80H325.912V76ZM316.734 78V39.12H312.734V78H316.734ZM313.059 38.0276L287.706 76.9076L291.056 79.0924L316.41 40.2124L313.059 38.0276ZM289.381 76H278.203V80H289.381V76ZM280.203 78V19.68H276.203V78H280.203ZM278.203 21.68H289.381V17.68H278.203V21.68ZM287.381 19.68V58.56H291.381V19.68H287.381ZM291.056 59.6524L316.41 20.7724L313.059 18.5876L287.706 57.4676L291.056 59.6524ZM314.734 21.68H325.912V17.68H314.734V21.68ZM323.912 19.68V78H327.912V19.68H323.912ZM353.429 78H351.429V80H353.429V78ZM353.429 19.68V17.68H351.429V19.68H353.429ZM401.543 19.68H403.543V17.68H401.543V19.68ZM401.543 78V80H403.543V78H401.543ZM390.527 78H388.527V80H390.527V78ZM390.527 29.967H392.527V27.967H390.527V29.967ZM364.445 29.967V27.967H362.445V29.967H364.445ZM364.445 78V80H366.445V78H364.445ZM355.429 78V19.68H351.429V78H355.429ZM353.429 21.68H401.543V17.68H353.429V21.68ZM399.543 19.68V78H403.543V19.68H399.543ZM401.543 76H390.527V80H401.543V76ZM392.527 78V29.967H388.527V78H392.527ZM390.527 27.967H364.445V31.967H390.527V27.967ZM362.445 29.967V78H366.445V29.967H362.445ZM364.445 76H353.429V80H364.445V76ZM408.863 78L406.95 77.4156L406.161 80H408.863V78ZM426.683 19.68V17.68H425.203L424.77 19.0956L426.683 19.68ZM443.126 19.68L445.039 19.0956L444.606 17.68H443.126V19.68ZM460.946 78V80H463.649L462.859 77.4156L460.946 78ZM449.606 78L447.695 78.5899L448.13 80H449.606V78ZM433.73 26.565V24.565H431.02L431.819 27.1549L433.73 26.565ZM435.836 26.565L437.75 27.1466L438.534 24.565H435.836V26.565ZM420.203 78V80H421.686L422.117 78.5816L420.203 78ZM419.555 65.85H417.555V67.85H419.555V65.85ZM419.555 55.563V53.563H417.555V55.563H419.555ZM450.335 55.563H452.335V53.563H450.335V55.563ZM450.335 65.85V67.85H452.335V65.85H450.335ZM410.776 78.5844L428.596 20.2644L424.77 19.0956L406.95 77.4156L410.776 78.5844ZM426.683 21.68H443.126V17.68H426.683V21.68ZM441.213 20.2644L459.033 78.5844L462.859 77.4156L445.039 19.0956L441.213 20.2644ZM460.946 76H449.606V80H460.946V76ZM451.517 77.4101L435.641 25.9751L431.819 27.1549L447.695 78.5899L451.517 77.4101ZM433.73 28.565H435.836V24.565H433.73V28.565ZM433.923 25.9834L418.29 77.4184L422.117 78.5816L437.75 27.1466L433.923 25.9834ZM420.203 76H408.863V80H420.203V76ZM421.555 65.85V55.563H417.555V65.85H421.555ZM419.555 57.563H450.335V53.563H419.555V57.563ZM448.335 55.563V65.85H452.335V55.563H448.335ZM450.335 63.85H419.555V67.85H450.335V63.85ZM468.205 78H466.205V80H468.205V78ZM468.205 19.68V17.68H466.205V19.68H468.205ZM495.097 19.761L494.983 21.7577L495.012 21.7594L495.042 21.7602L495.097 19.761ZM497.689 20.004L497.338 21.9729L497.36 21.9769L497.383 21.9804L497.689 20.004ZM506.235 23.4465L504.992 25.0138L505.002 25.0211L506.235 23.4465ZM511.176 30.0885L509.315 30.8216L509.317 30.828L511.176 30.0885ZM511.135 47.868L509.281 47.1188L509.277 47.1285L511.135 47.868ZM506.194 54.4695L504.961 52.8949L504.952 52.9022L506.194 54.4695ZM497.689 57.912L497.972 59.8919L497.985 59.89L497.998 59.888L497.689 57.912ZM495.097 58.155L495.208 60.1519L495.097 58.155ZM479.221 58.236V56.236H477.221V58.236H479.221ZM479.221 78V80H481.221V78H479.221ZM479.221 47.949H477.221V49.949H479.221V47.949ZM494.206 47.868L494.366 49.8616L494.206 47.868ZM496.069 47.544L495.543 45.6145L495.531 45.6176L495.52 45.6209L496.069 47.544ZM499.512 45.519L501.03 46.8206L501.039 46.81L501.048 46.7994L499.512 45.519ZM501.172 42.3195L499.243 41.7933L499.238 41.8085L499.235 41.8238L501.172 42.3195ZM501.172 35.637L499.232 36.1221L499.238 36.1484L499.246 36.1746L501.172 35.637ZM499.512 32.4375L497.975 33.7179L497.984 33.7285L497.993 33.7391L499.512 32.4375ZM496.069 30.372L495.52 32.295L495.531 32.2984L495.543 32.3015L496.069 30.372ZM494.206 30.048L494.047 32.0416L494.206 30.048ZM479.221 29.967V27.967H477.221V29.967H479.221ZM470.205 78V19.68H466.205V78H470.205ZM468.205 21.68H492.829V17.68H468.205V21.68ZM492.829 21.68C493.341 21.68 494.055 21.7047 494.983 21.7577L495.211 17.7643C494.25 17.7093 493.451 17.68 492.829 17.68V21.68ZM495.042 21.7602C495.939 21.7852 496.701 21.8592 497.338 21.9729L498.041 18.0351C497.165 17.8788 496.199 17.7908 495.153 17.7618L495.042 21.7602ZM497.383 21.9804C500.607 22.4803 503.109 23.521 504.992 25.0138L507.477 21.8792C504.932 19.862 501.737 18.6077 497.996 18.0276L497.383 21.9804ZM505.002 25.0211C506.959 26.5543 508.391 28.4767 509.315 30.8215L513.036 29.3554C511.854 26.3543 509.992 23.8486 507.468 21.8719L505.002 25.0211ZM509.317 30.828C510.264 33.2067 510.755 35.9074 510.755 38.958H514.755C514.755 35.4746 514.193 32.2623 513.034 29.349L509.317 30.828ZM510.755 38.958C510.755 42.0022 510.253 44.7135 509.281 47.1188L512.99 48.6172C514.178 45.6765 514.755 42.4478 514.755 38.958H510.755ZM509.277 47.1285C508.355 49.4459 506.923 51.3582 504.961 52.8949L507.427 56.0441C509.947 54.0708 511.81 51.5821 512.993 48.6075L509.277 47.1285ZM504.952 52.9022C503.066 54.3972 500.576 55.4367 497.38 55.936L497.998 59.888C501.715 59.3073 504.895 58.0518 507.437 56.0368L504.952 52.9022ZM497.406 55.9321C496.72 56.0301 495.915 56.1065 494.986 56.1581L495.208 60.1519C496.223 60.0955 497.146 60.0099 497.972 59.8919L497.406 55.9321ZM494.986 56.1581C494.027 56.2114 493.314 56.236 492.829 56.236V60.236C493.424 60.236 494.223 60.2066 495.208 60.1519L494.986 56.1581ZM492.829 56.236H479.221V60.236H492.829V56.236ZM477.221 58.236V78H481.221V58.236H477.221ZM479.221 76H468.205V80H479.221V76ZM479.221 49.949H492.343V45.949H479.221V49.949ZM492.343 49.949C492.972 49.949 493.647 49.9191 494.366 49.8616L494.047 45.8744C493.415 45.9249 492.848 45.949 492.343 45.949V49.949ZM494.366 49.8616C495.154 49.7986 495.907 49.6703 496.619 49.467L495.52 45.6209C495.097 45.7417 494.609 45.8294 494.047 45.8744L494.366 49.8616ZM496.595 49.4735C498.374 48.9883 499.904 48.1346 501.03 46.8206L497.993 44.2174C497.499 44.7934 496.734 45.2897 495.543 45.6145L496.595 49.4735ZM501.048 46.7994C502.038 45.6119 502.735 44.2803 503.11 42.8152L499.235 41.8238C499.015 42.6807 498.606 43.4821 497.975 44.2386L501.048 46.7994ZM503.102 42.8457C503.465 41.5144 503.658 40.2158 503.658 38.958H499.658C499.658 39.8062 499.528 40.7486 499.243 41.7933L503.102 42.8457ZM503.658 38.958C503.658 37.6993 503.464 36.4107 503.099 35.0994L499.246 36.1746C499.528 37.1853 499.658 38.1107 499.658 38.958H503.658ZM503.112 35.1519C502.739 33.6576 502.039 32.3126 501.03 31.1359L497.993 33.7391C498.605 34.4523 499.011 35.2404 499.232 36.1221L503.112 35.1519ZM501.048 31.1571C499.923 29.8076 498.389 28.9316 496.595 28.4425L495.543 32.3015C496.72 32.6224 497.48 33.1234 497.975 33.7179L501.048 31.1571ZM496.619 28.449C495.907 28.2457 495.154 28.1174 494.366 28.0544L494.047 32.0416C494.609 32.0866 495.097 32.1743 495.52 32.295L496.619 28.449ZM494.366 28.0544C493.647 27.9969 492.972 27.967 492.343 27.967V31.967C492.848 31.967 493.415 31.9911 494.047 32.0416L494.366 28.0544ZM492.343 27.967H479.221V31.967H492.343V27.967ZM477.221 29.967V47.949H481.221V29.967H477.221ZM534.414 78H532.414V80H534.414V78ZM534.414 29.967H536.414V27.967H534.414V29.967ZM516.027 29.967H514.027V31.967H516.027V29.967ZM516.027 19.68V17.68H514.027V19.68H516.027ZM563.817 19.68H565.817V17.68H563.817V19.68ZM563.817 29.967V31.967H565.817V29.967H563.817ZM545.43 29.967V27.967H543.43V29.967H545.43ZM545.43 78V80H547.43V78H545.43ZM536.414 78V29.967H532.414V78H536.414ZM534.414 27.967H516.027V31.967H534.414V27.967ZM518.027 29.967V19.68H514.027V29.967H518.027ZM516.027 21.68H563.817V17.68H516.027V21.68ZM561.817 19.68V29.967H565.817V19.68H561.817ZM563.817 27.967H545.43V31.967H563.817V27.967ZM543.43 29.967V78H547.43V29.967H543.43ZM545.43 76H534.414V80H545.43V76ZM570.325 78H568.325V80H570.325V78ZM570.325 19.68V17.68H568.325V19.68H570.325ZM581.341 19.68H583.341V17.68H581.341V19.68ZM581.341 43.656H579.341V45.656H581.341V43.656ZM607.423 43.656V45.656H609.423V43.656H607.423ZM607.423 19.68V17.68H605.423V19.68H607.423ZM618.439 19.68H620.439V17.68H618.439V19.68ZM618.439 78V80H620.439V78H618.439ZM607.423 78H605.423V80H607.423V78ZM607.423 53.943H609.423V51.943H607.423V53.943ZM581.341 53.943V51.943H579.341V53.943H581.341ZM581.341 78V80H583.341V78H581.341ZM572.325 78V19.68H568.325V78H572.325ZM570.325 21.68H581.341V17.68H570.325V21.68ZM579.341 19.68V43.656H583.341V19.68H579.341ZM581.341 45.656H607.423V41.656H581.341V45.656ZM609.423 43.656V19.68H605.423V43.656H609.423ZM607.423 21.68H618.439V17.68H607.423V21.68ZM616.439 19.68V78H620.439V19.68H616.439ZM618.439 76H607.423V80H618.439V76ZM609.423 78V53.943H605.423V78H609.423ZM607.423 51.943H581.341V55.943H607.423V51.943ZM579.341 53.943V78H583.341V53.943H579.341ZM581.341 76H570.325V80H581.341V76ZM629.81 78H627.81V80H629.81V78ZM629.81 19.68V17.68H627.81V19.68H629.81ZM667.88 19.68H669.88V17.68H667.88V19.68ZM667.88 29.967V31.967H669.88V29.967H667.88ZM640.826 29.967V27.967H638.826V29.967H640.826ZM640.826 42.441H638.826V44.441H640.826V42.441ZM663.02 42.441H665.02V40.441H663.02V42.441ZM663.02 52.728V54.728H665.02V52.728H663.02ZM640.826 52.728V50.728H638.826V52.728H640.826ZM640.826 67.713H638.826V69.713H640.826V67.713ZM667.88 67.713H669.88V65.713H667.88V67.713ZM667.88 78V80H669.88V78H667.88ZM631.81 78V19.68H627.81V78H631.81ZM629.81 21.68H667.88V17.68H629.81V21.68ZM665.88 19.68V29.967H669.88V19.68H665.88ZM667.88 27.967H640.826V31.967H667.88V27.967ZM638.826 29.967V42.441H642.826V29.967H638.826ZM640.826 44.441H663.02V40.441H640.826V44.441ZM661.02 42.441V52.728H665.02V42.441H661.02ZM663.02 50.728H640.826V54.728H663.02V50.728ZM638.826 52.728V67.713H642.826V52.728H638.826ZM640.826 69.713H667.88V65.713H640.826V69.713ZM665.88 67.713V78H669.88V67.713H665.88ZM667.88 76H629.81V80H667.88V76ZM677.587 78H675.587V80H677.587V78ZM677.587 19.68V17.68H675.587V19.68H677.587ZM704.479 19.761L704.365 21.7577L704.394 21.7594L704.423 21.7602L704.479 19.761ZM707.071 20.004L706.719 21.9729L706.742 21.9769L706.765 21.9804L707.071 20.004ZM715.617 23.4465L714.374 25.0138L714.383 25.0211L715.617 23.4465ZM720.557 30.0885L718.697 30.8216L718.699 30.828L720.557 30.0885ZM720.517 47.868L718.663 47.1188L718.659 47.1285L720.517 47.868ZM715.576 54.4695L714.343 52.8949L714.334 52.9022L715.576 54.4695ZM707.071 57.912L707.354 59.8919L707.367 59.89L707.38 59.888L707.071 57.912ZM704.479 58.155L704.59 60.1519L704.479 58.155ZM688.603 58.236V56.236H686.603V58.236H688.603ZM688.603 78V80H690.603V78H688.603ZM688.603 47.949H686.603V49.949H688.603V47.949ZM703.588 47.868L703.747 49.8616L703.588 47.868ZM705.451 47.544L704.925 45.6145L704.913 45.6176L704.902 45.6209L705.451 47.544ZM708.893 45.519L710.412 46.8206L710.421 46.81L710.43 46.7994L708.893 45.519ZM710.554 42.3195L708.624 41.7933L708.62 41.8085L708.616 41.8238L710.554 42.3195ZM710.554 35.637L708.614 36.1221L708.62 36.1484L708.628 36.1746L710.554 35.637ZM708.893 32.4375L707.357 33.7179L707.366 33.7285L707.375 33.7391L708.893 32.4375ZM705.451 30.372L704.902 32.295L704.913 32.2984L704.925 32.3015L705.451 30.372ZM703.588 30.048L703.428 32.0416H703.429L703.588 30.048ZM688.603 29.967V27.967H686.603V29.967H688.603ZM679.587 78V19.68H675.587V78H679.587ZM677.587 21.68H702.211V17.68H677.587V21.68ZM702.211 21.68C702.723 21.68 703.436 21.7047 704.365 21.7577L704.593 17.7643C703.632 17.7093 702.833 17.68 702.211 17.68V21.68ZM704.423 21.7602C705.321 21.7852 706.083 21.8592 706.719 21.9729L707.423 18.0351C706.547 17.8788 705.581 17.7908 704.535 17.7618L704.423 21.7602ZM706.765 21.9804C709.989 22.4803 712.491 23.521 714.374 25.0138L716.859 21.8792C714.314 19.862 711.119 18.6077 707.377 18.0276L706.765 21.9804ZM714.383 25.0211C716.341 26.5543 717.773 28.4767 718.697 30.8215L722.418 29.3554C721.236 26.3543 719.374 23.8486 716.85 21.8719L714.383 25.0211ZM718.699 30.828C719.646 33.2067 720.137 35.9074 720.137 38.958H724.137C724.137 35.4746 723.575 32.2623 722.416 29.349L718.699 30.828ZM720.137 38.958C720.137 42.0022 719.634 44.7135 718.663 47.1188L722.371 48.6172C723.56 45.6765 724.137 42.4478 724.137 38.958H720.137ZM718.659 47.1285C717.737 49.4459 716.305 51.3582 714.343 52.8949L716.809 56.0441C719.329 54.0708 721.191 51.5821 722.375 48.6075L718.659 47.1285ZM714.334 52.9022C712.448 54.3972 709.957 55.4367 706.762 55.936L707.38 59.888C711.097 59.3073 714.276 58.0518 716.818 56.0368L714.334 52.9022ZM706.788 55.9321C706.102 56.0301 705.297 56.1065 704.368 56.1581L704.59 60.1519C705.605 60.0955 706.528 60.0099 707.354 59.8919L706.788 55.9321ZM704.368 56.1581C703.409 56.2114 702.696 56.236 702.211 56.236V60.236C702.806 60.236 703.605 60.2066 704.59 60.1519L704.368 56.1581ZM702.211 56.236H688.603V60.236H702.211V56.236ZM686.603 58.236V78H690.603V58.236H686.603ZM688.603 76H677.587V80H688.603V76ZM688.603 49.949H701.725V45.949H688.603V49.949ZM701.725 49.949C702.354 49.949 703.029 49.9191 703.747 49.8616L703.429 45.8744C702.797 45.9249 702.23 45.949 701.725 45.949V49.949ZM703.747 49.8616C704.535 49.7986 705.289 49.6703 706 49.467L704.902 45.6209C704.479 45.7417 703.99 45.8294 703.429 45.8744L703.747 49.8616ZM705.977 49.4735C707.756 48.9883 709.286 48.1346 710.412 46.8206L707.375 44.2174C706.881 44.7934 706.116 45.2897 704.925 45.6145L705.977 49.4735ZM710.43 46.7994C711.419 45.6119 712.117 44.2803 712.492 42.8152L708.616 41.8238C708.397 42.6807 707.988 43.4821 707.357 44.2386L710.43 46.7994ZM712.484 42.8457C712.847 41.5144 713.04 40.2158 713.04 38.958H709.04C709.04 39.8062 708.909 40.7486 708.624 41.7933L712.484 42.8457ZM713.04 38.958C713.04 37.6993 712.846 36.4107 712.48 35.0994L708.628 36.1746C708.91 37.1853 709.04 38.1107 709.04 38.958H713.04ZM712.494 35.1519C712.121 33.6576 711.421 32.3126 710.412 31.1359L707.375 33.7391C707.986 34.4523 708.393 35.2404 708.614 36.1221L712.494 35.1519ZM710.43 31.1571C709.305 29.8076 707.771 28.9316 705.977 28.4425L704.925 32.3015C706.101 32.6224 706.862 33.1234 707.357 33.7179L710.43 31.1571ZM706 28.449C705.289 28.2457 704.535 28.1174 703.747 28.0544L703.429 32.0416C703.99 32.0866 704.479 32.1743 704.902 32.295L706 28.449ZM703.747 28.0544C703.029 27.9969 702.354 27.967 701.725 27.967V31.967C702.23 31.967 702.797 31.9911 703.428 32.0416L703.747 28.0544ZM701.725 27.967H688.603V31.967H701.725V27.967ZM686.603 29.967V47.949H690.603V29.967H686.603ZM730.188 78H728.188V80H730.188V78ZM730.188 19.68V17.68H728.188V19.68H730.188ZM741.204 19.68H743.204V17.68H741.204V19.68ZM741.204 39.444H739.204V41.444H741.204V39.444ZM757.08 39.525L756.969 41.5219L756.996 41.5235L757.024 41.5242L757.08 39.525ZM759.672 39.768L759.32 41.7369L759.341 41.7407L759.363 41.744L759.672 39.768ZM768.177 43.2105L766.934 44.7778L766.943 44.7851L768.177 43.2105ZM773.118 49.8525L771.257 50.5855L771.261 50.5969L771.266 50.6083L773.118 49.8525ZM773.158 67.632L775.016 68.3715L775.019 68.3651L773.158 67.632ZM768.217 74.2335L766.984 72.6589L766.975 72.6662L768.217 74.2335ZM759.672 77.676L759.954 79.6559L759.966 79.6542L759.978 79.6524L759.672 77.676ZM757.08 77.919L756.969 75.9221L756.966 75.9223L757.08 77.919ZM741.204 67.713H739.204V69.713H741.204V67.713ZM756.189 67.632L756.029 65.6384L756.189 67.632ZM758.052 67.308L757.525 65.3785L757.514 65.3816L757.502 65.385L758.052 67.308ZM761.494 65.283L763.013 66.5846L763.022 66.574L763.031 66.5634L761.494 65.283ZM763.155 62.0835L761.225 61.5573L761.221 61.5725L761.217 61.5878L763.155 62.0835ZM763.155 55.401L761.214 55.8861L761.221 55.9124L761.228 55.9386L763.155 55.401ZM761.494 52.2015L759.958 53.4819L759.967 53.4925L759.976 53.5031L761.494 52.2015ZM758.052 50.136L757.502 52.059L757.514 52.0624L757.525 52.0655L758.052 50.136ZM756.189 49.812L756.348 47.8184L756.189 49.812ZM741.204 49.731V47.731H739.204V49.731H741.204ZM780.57 78H778.57V80H780.57V78ZM780.57 19.68V17.68H778.57V19.68H780.57ZM791.586 19.68H793.586V17.68H791.586V19.68ZM791.586 78V80H793.586V78H791.586ZM732.188 78V19.68H728.188V78H732.188ZM730.188 21.68H741.204V17.68H730.188V21.68ZM739.204 19.68V39.444H743.204V19.68H739.204ZM741.204 41.444H754.812V37.444H741.204V41.444ZM754.812 41.444C755.296 41.444 756.009 41.4686 756.969 41.5219L757.191 37.5281C756.206 37.4734 755.407 37.444 754.812 37.444V41.444ZM757.024 41.5242C757.922 41.5492 758.684 41.6232 759.32 41.7369L760.023 37.7991C759.148 37.6428 758.182 37.5548 757.135 37.5258L757.024 41.5242ZM759.363 41.744C762.558 42.2433 765.048 43.2828 766.934 44.7778L769.419 41.6432C766.877 39.6282 763.697 38.3727 759.98 37.792L759.363 41.744ZM766.943 44.7851C768.901 46.3183 770.333 48.2407 771.257 50.5855L774.978 49.1194C773.796 46.1183 771.934 43.6127 769.41 41.6359L766.943 44.7851ZM771.266 50.6083C772.235 52.9825 772.738 55.6774 772.738 58.722H776.738C776.738 55.2326 776.16 52.0145 774.969 49.0967L771.266 50.6083ZM772.738 58.722C772.738 61.7722 772.247 64.4892 771.297 66.8989L775.019 68.3651C776.176 65.4288 776.738 62.2058 776.738 58.722H772.738ZM771.3 66.8925C770.378 69.2099 768.946 71.1222 766.984 72.6589L769.45 75.8081C771.97 73.8348 773.833 71.3461 775.016 68.3715L771.3 66.8925ZM766.975 72.6662C765.091 74.159 762.59 75.1997 759.365 75.6996L759.978 79.6524C763.72 79.0723 766.915 77.818 769.46 75.8008L766.975 72.6662ZM759.389 75.6961C758.703 75.7941 757.898 75.8705 756.969 75.9221L757.191 79.9159C758.205 79.8595 759.128 79.7739 759.954 79.6559L759.389 75.6961ZM756.966 75.9223C756.037 75.9753 755.324 76 754.812 76V80C755.433 80 756.232 79.9707 757.194 79.9157L756.966 75.9223ZM754.812 76H730.188V80H754.812V76ZM741.204 69.713H754.326V65.713H741.204V69.713ZM754.326 69.713C754.955 69.713 755.63 69.6831 756.348 69.6256L756.029 65.6384C755.397 65.6889 754.83 65.713 754.326 65.713V69.713ZM756.348 69.6256C757.136 69.5626 757.89 69.4343 758.601 69.231L757.502 65.385C757.08 65.5057 756.591 65.5934 756.029 65.6384L756.348 69.6256ZM758.578 69.2375C760.357 68.7523 761.886 67.8986 763.013 66.5846L759.976 63.9814C759.482 64.5574 758.716 65.0537 757.525 65.3785L758.578 69.2375ZM763.031 66.5634C764.02 65.3759 764.717 64.0443 765.092 62.5792L761.217 61.5878C760.998 62.4447 760.588 63.2461 759.958 64.0026L763.031 66.5634ZM765.084 62.6097C765.447 61.2784 765.641 59.9798 765.641 58.722H761.641C761.641 59.5702 761.51 60.5126 761.225 61.5573L765.084 62.6097ZM765.641 58.722C765.641 57.4633 765.447 56.1747 765.081 54.8634L761.228 55.9386C761.51 56.9493 761.641 57.8747 761.641 58.722H765.641ZM765.095 54.9159C764.721 53.4216 764.021 52.0766 763.013 50.8999L759.976 53.5031C760.587 54.2163 760.994 55.0044 761.214 55.8861L765.095 54.9159ZM763.031 50.9211C761.906 49.5716 760.371 48.6956 758.578 48.2065L757.525 52.0655C758.702 52.3864 759.462 52.8874 759.958 53.4819L763.031 50.9211ZM758.601 48.213C757.89 48.0097 757.136 47.8814 756.348 47.8184L756.029 51.8056C756.591 51.8506 757.08 51.9383 757.502 52.059L758.601 48.213ZM756.348 47.8184C755.63 47.7609 754.955 47.731 754.326 47.731V51.731C754.83 51.731 755.397 51.7551 756.029 51.8056L756.348 47.8184ZM754.326 47.731H741.204V51.731H754.326V47.731ZM739.204 49.731V67.713H743.204V49.731H739.204ZM782.57 78V19.68H778.57V78H782.57ZM780.57 21.68H791.586V17.68H780.57V21.68ZM789.586 19.68V78H793.586V19.68H789.586ZM791.586 76H780.57V80H791.586V76Z" fill="#1B1B1B" mask="url(#path-1-outside-1_2090_5582)"/>
<path d="M933 78V16" stroke="#1B1B1B" stroke-width="2" stroke-dasharray="13 13"/>
<path d="M49 71.5C40 73.1667 21.5 80 11.5 92.5M49 47.5H0M49 22C40 20.3333 21.5 13.5 11.5 1" stroke="black" stroke-width="2" stroke-dasharray="13 13"/>
</svg>
