<svg width="100%" height="100%" viewBox="0 0 934 258" fill="none" xmlns="http://www.w3.org/2000/svg">
<mask id="path-1-outside-1_2089_5548" maskUnits="userSpaceOnUse" x="82" y="13" width="763" height="237" fill="black">
<rect fill="white" x="82" y="13" width="763" height="237"/>
<path d="M97.636 74L105.736 57.638L85.81 15.68H98.284L111.487 46.055L125.176 15.68H136.921L109.381 74H97.636ZM142.561 74V15.68H153.577V39.656H179.659V15.68H190.675V74H179.659V49.943H153.577V74H142.561ZM249.754 74H238.576V35.12L213.223 74H202.045V15.68H213.223V54.56L238.576 15.68H249.754V74ZM261.055 74V15.68H272.071V42.572L294.265 15.68H307.711L283.33 44.435L309.25 74H295.318L272.071 47.432V74H261.055ZM310.873 74L328.693 15.68H345.136L362.956 74H351.616L335.74 22.565H337.846L322.213 74H310.873ZM321.565 61.85V51.563H352.345V61.85H321.565ZM368.617 74V64.847C369.859 64.928 370.912 64.82 371.776 64.523C372.64 64.226 373.369 63.686 373.963 62.903C374.584 62.093 375.124 60.986 375.583 59.582C376.042 58.151 376.474 56.369 376.879 54.236C377.527 50.861 378.067 47.3105 378.499 43.5845C378.958 39.8315 379.336 36.1595 379.633 32.5685C379.93 28.9775 380.16 25.7105 380.322 22.7675C380.484 19.7975 380.605 17.435 380.686 15.68H420.457V74H409.441V25.967H390.811C390.703 27.479 390.555 29.45 390.366 31.88C390.204 34.31 389.974 36.9965 389.677 39.9395C389.38 42.8825 389.016 45.9335 388.584 49.0925C388.152 52.2515 387.625 55.316 387.004 58.286C386.437 61.175 385.749 63.74 384.939 65.981C384.129 68.195 383.049 70.0175 381.699 71.4485C380.376 72.8525 378.661 73.784 376.555 74.243C374.449 74.702 371.803 74.621 368.617 74ZM431.754 74V15.68H442.77V35.444H456.378C456.918 35.444 457.674 35.471 458.646 35.525C459.618 35.552 460.482 35.633 461.238 35.768C464.694 36.308 467.529 37.4555 469.743 39.2105C471.984 40.9655 473.631 43.1795 474.684 45.8525C475.764 48.4985 476.304 51.455 476.304 54.722C476.304 57.989 475.778 60.959 474.725 63.632C473.672 66.278 472.025 68.4785 469.784 70.2335C467.57 71.9885 464.721 73.136 461.238 73.676C460.482 73.784 459.618 73.865 458.646 73.919C457.701 73.973 456.945 74 456.378 74H431.754ZM442.77 63.713H455.892C456.459 63.713 457.08 63.686 457.755 63.632C458.43 63.578 459.051 63.47 459.618 63.308C461.103 62.903 462.251 62.228 463.061 61.283C463.871 60.311 464.424 59.2445 464.721 58.0835C465.045 56.8955 465.207 55.775 465.207 54.722C465.207 53.669 465.045 52.562 464.721 51.401C464.424 50.213 463.871 49.1465 463.061 48.2015C462.251 47.2295 461.103 46.541 459.618 46.136C459.051 45.974 458.43 45.866 457.755 45.812C457.08 45.758 456.459 45.731 455.892 45.731H442.77V63.713ZM485.229 74V15.68H496.245V39.656H522.327V15.68H533.343V74H522.327V49.943H496.245V74H485.229ZM544.632 74V15.68H555.648V35.444H569.256C569.796 35.444 570.552 35.471 571.524 35.525C572.496 35.552 573.36 35.633 574.116 35.768C577.572 36.308 580.407 37.4555 582.621 39.2105C584.862 40.9655 586.509 43.1795 587.562 45.8525C588.642 48.4985 589.182 51.455 589.182 54.722C589.182 57.989 588.655 60.959 587.602 63.632C586.549 66.278 584.902 68.4785 582.661 70.2335C580.447 71.9885 577.599 73.136 574.116 73.676C573.36 73.784 572.496 73.865 571.524 73.919C570.579 73.973 569.823 74 569.256 74H544.632ZM555.648 63.713H568.77C569.337 63.713 569.958 63.686 570.633 63.632C571.308 63.578 571.929 63.47 572.496 63.308C573.981 62.903 575.128 62.228 575.938 61.283C576.748 60.311 577.302 59.2445 577.599 58.0835C577.923 56.8955 578.085 55.775 578.085 54.722C578.085 53.669 577.923 52.562 577.599 51.401C577.302 50.213 576.748 49.1465 575.938 48.2015C575.128 47.2295 573.981 46.541 572.496 46.136C571.929 45.974 571.308 45.866 570.633 45.812C569.958 45.758 569.337 45.731 568.77 45.731H555.648V63.713ZM595.014 74V15.68H606.03V74H595.014ZM617.407 74V15.68H655.477V25.967H628.423V38.441H650.617V48.728H628.423V63.713H655.477V74H617.407ZM90.67 160V101.68H138.784V160H127.768V111.967H101.686V160H90.67ZM150.154 160V101.68H174.778C175.345 101.68 176.101 101.707 177.046 101.761C178.018 101.788 178.882 101.869 179.638 102.004C183.121 102.544 185.97 103.691 188.184 105.446C190.425 107.201 192.072 109.415 193.125 112.088C194.178 114.734 194.704 117.691 194.704 120.958C194.704 124.225 194.164 127.195 193.084 129.868C192.031 132.514 190.384 134.714 188.143 136.469C185.929 138.224 183.094 139.372 179.638 139.912C178.882 140.02 178.018 140.101 177.046 140.155C176.074 140.209 175.318 140.236 174.778 140.236H161.17V160H150.154ZM161.17 129.949H174.292C174.859 129.949 175.48 129.922 176.155 129.868C176.83 129.814 177.451 129.706 178.018 129.544C179.503 129.139 180.651 128.464 181.461 127.519C182.271 126.547 182.824 125.48 183.121 124.319C183.445 123.131 183.607 122.011 183.607 120.958C183.607 119.905 183.445 118.798 183.121 117.637C182.824 116.449 182.271 115.382 181.461 114.438C180.651 113.465 179.503 112.777 178.018 112.372C177.451 112.21 176.83 112.102 176.155 112.048C175.48 111.994 174.859 111.967 174.292 111.967H161.17V129.949ZM202.836 160V101.68H240.906V111.967H213.852V124.441H236.046V134.728H213.852V149.713H240.906V160H202.836ZM247.373 169.72V149.713C249.128 149.713 250.613 149.281 251.828 148.417C253.07 147.526 254.083 146.284 254.866 144.691C255.649 143.071 256.27 141.181 256.729 139.021C257.188 136.861 257.525 134.512 257.741 131.974C258.011 128.734 258.254 125.548 258.47 122.416C258.686 119.257 258.902 115.99 259.118 112.615C259.334 109.213 259.577 105.541 259.847 101.599L298.565 101.68V149.713H303.02V169.72H292.004V160H258.389V169.72H247.373ZM263.816 149.713H287.549V111.967L269.891 111.886C269.702 114.559 269.54 117.016 269.405 119.257C269.297 121.498 269.162 123.766 269 126.061C268.838 128.356 268.622 130.921 268.352 133.756C268.082 136.591 267.812 138.926 267.542 140.762C267.272 142.571 266.854 144.151 266.287 145.501C265.747 146.851 264.923 148.255 263.816 149.713ZM307.867 160V150.847C309.109 150.928 310.162 150.82 311.026 150.523C311.89 150.226 312.619 149.686 313.213 148.903C313.834 148.093 314.374 146.986 314.833 145.582C315.292 144.151 315.724 142.369 316.129 140.236C316.777 136.861 317.317 133.31 317.749 129.584C318.208 125.831 318.586 122.159 318.883 118.568C319.18 114.977 319.41 111.71 319.572 108.767C319.734 105.797 319.855 103.435 319.936 101.68H359.707V160H348.691V111.967H330.061C329.953 113.479 329.805 115.45 329.616 117.88C329.454 120.31 329.224 122.996 328.927 125.939C328.63 128.882 328.266 131.933 327.834 135.092C327.402 138.251 326.875 141.316 326.254 144.286C325.687 147.175 324.999 149.74 324.189 151.981C323.379 154.195 322.299 156.017 320.949 157.448C319.626 158.852 317.911 159.784 315.805 160.243C313.699 160.702 311.053 160.621 307.867 160ZM396.114 161.215C390.282 161.215 385.247 159.946 381.008 157.408C376.796 154.87 373.542 151.319 371.247 146.756C368.979 142.193 367.845 136.888 367.845 130.84C367.845 124.792 368.979 119.486 371.247 114.923C373.542 110.36 376.796 106.81 381.008 104.272C385.247 101.734 390.282 100.465 396.114 100.465C401.946 100.465 406.968 101.734 411.18 104.272C415.419 106.81 418.673 110.36 420.941 114.923C423.236 119.486 424.383 124.792 424.383 130.84C424.383 136.888 423.236 142.193 420.941 146.756C418.673 151.319 415.419 154.87 411.18 157.408C406.968 159.946 401.946 161.215 396.114 161.215ZM396.114 150.847C399.813 150.901 402.891 150.104 405.348 148.457C407.805 146.81 409.641 144.475 410.856 141.451C412.098 138.427 412.719 134.89 412.719 130.84C412.719 126.79 412.098 123.28 410.856 120.31C409.641 117.34 407.805 115.031 405.348 113.384C402.891 111.737 399.813 110.887 396.114 110.833C392.415 110.779 389.337 111.575 386.88 113.222C384.423 114.869 382.574 117.205 381.332 120.229C380.117 123.253 379.509 126.79 379.509 130.84C379.509 134.89 380.117 138.4 381.332 141.37C382.574 144.34 384.423 146.648 386.88 148.295C389.337 149.942 392.415 150.793 396.114 150.847ZM423.574 160L444.229 130.435L425.113 101.68H438.154L454.678 127.762V101.68H465.694V127.762L482.218 101.68H495.259L476.143 130.435L496.798 160H483.271L465.694 134.242V160H454.678V134.242L437.101 160H423.574ZM503.264 160V101.68H541.334V111.967H514.28V124.441H536.474V134.728H514.28V149.713H541.334V160H503.264ZM551.041 160V101.68H562.057V125.656H588.139V101.68H599.155V160H588.139V135.943H562.057V160H551.041ZM658.234 160H647.056V121.12L621.703 160H610.525V101.68H621.703V140.56L647.056 101.68H658.234V160ZM712.465 160H701.449V140.236H687.841L682.981 139.912C677.797 139.102 673.99 136.969 671.56 133.513C669.13 130.03 667.915 125.845 667.915 120.958C667.915 117.691 668.442 114.734 669.495 112.088C670.575 109.415 672.222 107.201 674.436 105.446C676.65 103.691 679.498 102.544 682.981 102.004C683.764 101.869 684.628 101.788 685.573 101.761C686.518 101.707 687.274 101.68 687.841 101.68H712.465V160ZM679.579 160H667.105L679.741 134.08L691.081 136.267L679.579 160ZM701.449 129.949V111.967H688.327C687.76 111.967 687.139 111.994 686.464 112.048C685.789 112.102 685.168 112.21 684.601 112.372C683.116 112.777 681.969 113.465 681.159 114.438C680.349 115.382 679.782 116.449 679.458 117.637C679.161 118.798 679.012 119.905 679.012 120.958C679.012 122.011 679.161 123.131 679.458 124.319C679.782 125.48 680.349 126.547 681.159 127.519C681.969 128.464 683.116 129.139 684.601 129.544C685.168 129.706 685.789 129.814 686.464 129.868C687.139 129.922 687.76 129.949 688.327 129.949H701.449ZM765.044 161.215C759.212 161.215 754.176 159.946 749.937 157.408C745.725 154.87 742.472 151.319 740.177 146.756C737.909 142.193 736.775 136.888 736.775 130.84C736.775 124.792 737.909 119.486 740.177 114.923C742.472 110.36 745.725 106.81 749.937 104.272C754.176 101.734 759.212 100.465 765.044 100.465C770.876 100.465 775.898 101.734 780.11 104.272C784.349 106.81 787.602 110.36 789.87 114.923C792.165 119.486 793.313 124.792 793.313 130.84C793.313 136.888 792.165 142.193 789.87 146.756C787.602 151.319 784.349 154.87 780.11 157.408C775.898 159.946 770.876 161.215 765.044 161.215ZM765.044 150.847C768.743 150.901 771.821 150.104 774.278 148.457C776.735 146.81 778.571 144.475 779.786 141.451C781.028 138.427 781.649 134.89 781.649 130.84C781.649 126.79 781.028 123.28 779.786 120.31C778.571 117.34 776.735 115.031 774.278 113.384C771.821 111.737 768.743 110.887 765.044 110.833C761.345 110.779 758.267 111.575 755.81 113.222C753.353 114.869 751.503 117.205 750.261 120.229C749.046 123.253 748.439 126.79 748.439 130.84C748.439 134.89 749.046 138.4 750.261 141.37C751.503 144.34 753.353 146.648 755.81 148.295C758.267 149.942 761.345 150.793 765.044 150.847ZM813.343 160V111.967H794.956V101.68H842.746V111.967H824.359V160H813.343ZM90.67 246V187.68H138.784V246H127.768V197.967H101.686V246H90.67ZM150.154 246V187.68H174.778C175.345 187.68 176.101 187.707 177.046 187.761C178.018 187.788 178.882 187.869 179.638 188.004C183.121 188.544 185.97 189.691 188.184 191.446C190.425 193.201 192.072 195.415 193.125 198.088C194.178 200.734 194.704 203.691 194.704 206.958C194.704 210.225 194.164 213.195 193.084 215.868C192.031 218.514 190.384 220.714 188.143 222.469C185.929 224.224 183.094 225.372 179.638 225.912C178.882 226.02 178.018 226.101 177.046 226.155C176.074 226.209 175.318 226.236 174.778 226.236H161.17V246H150.154ZM161.17 215.949H174.292C174.859 215.949 175.48 215.922 176.155 215.868C176.83 215.814 177.451 215.706 178.018 215.544C179.503 215.139 180.651 214.464 181.461 213.519C182.271 212.547 182.824 211.48 183.121 210.319C183.445 209.131 183.607 208.011 183.607 206.958C183.607 205.905 183.445 204.798 183.121 203.637C182.824 202.449 182.271 201.382 181.461 200.438C180.651 199.465 179.503 198.777 178.018 198.372C177.451 198.21 176.83 198.102 176.155 198.048C175.48 197.994 174.859 197.967 174.292 197.967H161.17V215.949ZM193.961 246L211.781 187.68H228.224L246.044 246H234.704L218.828 194.565H220.934L205.301 246H193.961ZM204.653 233.85V223.563H235.433V233.85H204.653ZM262.005 246V197.967H243.618V187.68H291.408V197.967H273.021V246H262.005ZM297.916 246V187.68H308.932V211.656H335.014V187.68H346.03V246H335.014V221.943H308.932V246H297.916ZM357.4 246V187.68H395.47V197.967H368.416V210.441H390.61V220.728H368.416V235.713H395.47V246H357.4ZM405.178 246V187.68H429.802C430.369 187.68 431.125 187.707 432.07 187.761C433.042 187.788 433.906 187.869 434.662 188.004C438.145 188.544 440.993 189.691 443.207 191.446C445.448 193.201 447.095 195.415 448.148 198.088C449.201 200.734 449.728 203.691 449.728 206.958C449.728 210.225 449.188 213.195 448.108 215.868C447.055 218.514 445.408 220.714 443.167 222.469C440.953 224.224 438.118 225.372 434.662 225.912C433.906 226.02 433.042 226.101 432.07 226.155C431.098 226.209 430.342 226.236 429.802 226.236H416.194V246H405.178ZM416.194 215.949H429.316C429.883 215.949 430.504 215.922 431.179 215.868C431.854 215.814 432.475 215.706 433.042 215.544C434.527 215.139 435.674 214.464 436.484 213.519C437.294 212.547 437.848 211.48 438.145 210.319C438.469 209.131 438.631 208.011 438.631 206.958C438.631 205.905 438.469 204.798 438.145 203.637C437.848 202.449 437.294 201.382 436.484 200.438C435.674 199.465 434.527 198.777 433.042 198.372C432.475 198.21 431.854 198.102 431.179 198.048C430.504 197.994 429.883 197.967 429.316 197.967H416.194V215.949ZM482.888 247.215C477.056 247.215 472.021 245.946 467.782 243.408C463.57 240.87 460.316 237.319 458.021 232.756C455.753 228.193 454.619 222.888 454.619 216.84C454.619 210.792 455.753 205.486 458.021 200.923C460.316 196.36 463.57 192.81 467.782 190.272C472.021 187.734 477.056 186.465 482.888 186.465C488.72 186.465 493.742 187.734 497.954 190.272C502.193 192.81 505.447 196.36 507.715 200.923C510.01 205.486 511.157 210.792 511.157 216.84C511.157 222.888 510.01 228.193 507.715 232.756C505.447 237.319 502.193 240.87 497.954 243.408C493.742 245.946 488.72 247.215 482.888 247.215ZM482.888 236.847C486.587 236.901 489.665 236.104 492.122 234.457C494.579 232.81 496.415 230.475 497.63 227.451C498.872 224.427 499.493 220.89 499.493 216.84C499.493 212.79 498.872 209.28 497.63 206.31C496.415 203.34 494.579 201.031 492.122 199.384C489.665 197.737 486.587 196.887 482.888 196.833C479.189 196.779 476.111 197.575 473.654 199.222C471.197 200.869 469.348 203.205 468.106 206.229C466.891 209.253 466.283 212.79 466.283 216.84C466.283 220.89 466.891 224.4 468.106 227.37C469.348 230.34 471.197 232.648 473.654 234.295C476.111 235.942 479.189 236.793 482.888 236.847ZM519.242 246V187.68H542.57C546.728 187.68 550.09 188.517 552.655 190.191C555.22 191.838 557.096 193.917 558.284 196.428C559.472 198.939 560.066 201.477 560.066 204.042C560.066 207.309 559.324 210.022 557.839 212.182C556.381 214.342 554.369 215.787 551.804 216.516V214.491C555.449 215.247 558.176 216.934 559.985 219.553C561.821 222.172 562.739 225.102 562.739 228.342C562.739 231.825 562.091 234.889 560.795 237.535C559.526 240.181 557.582 242.26 554.963 243.772C552.344 245.257 549.05 246 545.081 246H519.242ZM530.42 235.632H543.947C545.432 235.632 546.755 235.321 547.916 234.7C549.077 234.052 549.982 233.161 550.63 232.027C551.305 230.866 551.642 229.503 551.642 227.937C551.642 226.56 551.359 225.331 550.792 224.251C550.225 223.171 549.361 222.321 548.2 221.7C547.066 221.052 545.648 220.728 543.947 220.728H530.42V235.632ZM530.42 210.441H542.408C543.65 210.441 544.757 210.225 545.729 209.793C546.701 209.361 547.471 208.699 548.038 207.808C548.605 206.89 548.888 205.716 548.888 204.285C548.888 202.503 548.335 201.004 547.228 199.789C546.121 198.574 544.514 197.967 542.408 197.967H530.42V210.441Z"/>
</mask>
<path d="M97.636 74L95.8436 73.1127L94.4142 76H97.636V74ZM105.736 57.638L107.528 58.5253L107.959 57.6561L107.543 56.78L105.736 57.638ZM85.81 15.68V13.68H82.6461L84.0034 16.538L85.81 15.68ZM98.284 15.68L100.118 14.8827L99.5954 13.68H98.284V15.68ZM111.487 46.055L109.653 46.8523L111.454 50.9961L113.31 46.8767L111.487 46.055ZM125.176 15.68V13.68H123.884L123.353 14.8583L125.176 15.68ZM136.921 15.68L138.729 16.534L140.077 13.68H136.921V15.68ZM109.381 74V76H110.648L111.189 74.854L109.381 74ZM99.4284 74.8873L107.528 58.5253L103.944 56.7507L95.8436 73.1127L99.4284 74.8873ZM107.543 56.78L87.6166 14.822L84.0034 16.538L103.929 58.496L107.543 56.78ZM85.81 17.68H98.284V13.68H85.81V17.68ZM96.4498 16.4773L109.653 46.8523L113.321 45.2577L100.118 14.8827L96.4498 16.4773ZM113.31 46.8767L126.999 16.5017L123.353 14.8583L109.664 45.2333L113.31 46.8767ZM125.176 17.68H136.921V13.68H125.176V17.68ZM135.113 14.826L107.573 73.146L111.189 74.854L138.729 16.534L135.113 14.826ZM109.381 72H97.636V76H109.381V72ZM142.561 74H140.561V76H142.561V74ZM142.561 15.68V13.68H140.561V15.68H142.561ZM153.577 15.68H155.577V13.68H153.577V15.68ZM153.577 39.656H151.577V41.656H153.577V39.656ZM179.659 39.656V41.656H181.659V39.656H179.659ZM179.659 15.68V13.68H177.659V15.68H179.659ZM190.675 15.68H192.675V13.68H190.675V15.68ZM190.675 74V76H192.675V74H190.675ZM179.659 74H177.659V76H179.659V74ZM179.659 49.943H181.659V47.943H179.659V49.943ZM153.577 49.943V47.943H151.577V49.943H153.577ZM153.577 74V76H155.577V74H153.577ZM144.561 74V15.68H140.561V74H144.561ZM142.561 17.68H153.577V13.68H142.561V17.68ZM151.577 15.68V39.656H155.577V15.68H151.577ZM153.577 41.656H179.659V37.656H153.577V41.656ZM181.659 39.656V15.68H177.659V39.656H181.659ZM179.659 17.68H190.675V13.68H179.659V17.68ZM188.675 15.68V74H192.675V15.68H188.675ZM190.675 72H179.659V76H190.675V72ZM181.659 74V49.943H177.659V74H181.659ZM179.659 47.943H153.577V51.943H179.659V47.943ZM151.577 49.943V74H155.577V49.943H151.577ZM153.577 72H142.561V76H153.577V72ZM249.754 74V76H251.754V74H249.754ZM238.576 74H236.576V76H238.576V74ZM238.576 35.12H240.576V28.3913L236.901 34.0276L238.576 35.12ZM213.223 74V76H214.306L214.898 75.0924L213.223 74ZM202.045 74H200.045V76H202.045V74ZM202.045 15.68V13.68H200.045V15.68H202.045ZM213.223 15.68H215.223V13.68H213.223V15.68ZM213.223 54.56H211.223V61.2887L214.898 55.6524L213.223 54.56ZM238.576 15.68V13.68H237.493L236.901 14.5876L238.576 15.68ZM249.754 15.68H251.754V13.68H249.754V15.68ZM249.754 72H238.576V76H249.754V72ZM240.576 74V35.12H236.576V74H240.576ZM236.901 34.0276L211.548 72.9076L214.898 75.0924L240.251 36.2124L236.901 34.0276ZM213.223 72H202.045V76H213.223V72ZM204.045 74V15.68H200.045V74H204.045ZM202.045 17.68H213.223V13.68H202.045V17.68ZM211.223 15.68V54.56H215.223V15.68H211.223ZM214.898 55.6524L240.251 16.7724L236.901 14.5876L211.548 53.4676L214.898 55.6524ZM238.576 17.68H249.754V13.68H238.576V17.68ZM247.754 15.68V74H251.754V15.68H247.754ZM261.055 74H259.055V76H261.055V74ZM261.055 15.68V13.68H259.055V15.68H261.055ZM272.071 15.68H274.071V13.68H272.071V15.68ZM272.071 42.572H270.071V48.1374L273.613 43.845L272.071 42.572ZM294.265 15.68V13.68H293.322L292.722 14.407L294.265 15.68ZM307.711 15.68L309.236 16.9734L312.029 13.68H307.711V15.68ZM283.33 44.435L281.804 43.1416L280.689 44.4568L281.826 45.7535L283.33 44.435ZM309.25 74V76H313.663L310.754 72.6815L309.25 74ZM295.318 74L293.813 75.317L294.41 76H295.318V74ZM272.071 47.432L273.576 46.115L270.071 42.1091V47.432H272.071ZM272.071 74V76H274.071V74H272.071ZM263.055 74V15.68H259.055V74H263.055ZM261.055 17.68H272.071V13.68H261.055V17.68ZM270.071 15.68V42.572H274.071V15.68H270.071ZM273.613 43.845L295.807 16.953L292.722 14.407L270.528 41.299L273.613 43.845ZM294.265 17.68H307.711V13.68H294.265V17.68ZM306.185 14.3866L281.804 43.1416L284.855 45.7284L309.236 16.9734L306.185 14.3866ZM281.826 45.7535L307.746 75.3185L310.754 72.6815L284.834 43.1165L281.826 45.7535ZM309.25 72H295.318V76H309.25V72ZM296.823 72.683L273.576 46.115L270.566 48.749L293.813 75.317L296.823 72.683ZM270.071 47.432V74H274.071V47.432H270.071ZM272.071 72H261.055V76H272.071V72ZM310.873 74L308.96 73.4156L308.171 76H310.873V74ZM328.693 15.68V13.68H327.213L326.78 15.0956L328.693 15.68ZM345.136 15.68L347.049 15.0956L346.616 13.68H345.136V15.68ZM362.956 74V76H365.658L364.869 73.4156L362.956 74ZM351.616 74L349.705 74.5899L350.14 76H351.616V74ZM335.74 22.565V20.565H333.03L333.829 23.1549L335.74 22.565ZM337.846 22.565L339.759 23.1466L340.544 20.565H337.846V22.565ZM322.213 74V76H323.695L324.126 74.5816L322.213 74ZM321.565 61.85H319.565V63.85H321.565V61.85ZM321.565 51.563V49.563H319.565V51.563H321.565ZM352.345 51.563H354.345V49.563H352.345V51.563ZM352.345 61.85V63.85H354.345V61.85H352.345ZM312.786 74.5844L330.606 16.2644L326.78 15.0956L308.96 73.4156L312.786 74.5844ZM328.693 17.68H345.136V13.68H328.693V17.68ZM343.223 16.2644L361.043 74.5844L364.869 73.4156L347.049 15.0956L343.223 16.2644ZM362.956 72H351.616V76H362.956V72ZM353.527 73.4101L337.651 21.9751L333.829 23.1549L349.705 74.5899L353.527 73.4101ZM335.74 24.565H337.846V20.565H335.74V24.565ZM335.932 21.9834L320.299 73.4184L324.126 74.5816L339.759 23.1466L335.932 21.9834ZM322.213 72H310.873V76H322.213V72ZM323.565 61.85V51.563H319.565V61.85H323.565ZM321.565 53.563H352.345V49.563H321.565V53.563ZM350.345 51.563V61.85H354.345V51.563H350.345ZM352.345 59.85H321.565V63.85H352.345V59.85ZM368.617 74H366.617V75.6478L368.234 75.9631L368.617 74ZM368.617 64.847L368.747 62.8512L366.617 62.7123V64.847H368.617ZM371.776 64.523L371.126 62.6316L371.126 62.6316L371.776 64.523ZM373.963 62.903L372.376 61.6861L372.37 61.6942L373.963 62.903ZM375.583 59.582L377.484 60.2035L377.488 60.1929L375.583 59.582ZM376.879 54.236L374.915 53.8589L374.914 53.8629L376.879 54.236ZM378.499 43.5845L376.514 43.3417L376.512 43.3542L378.499 43.5845ZM379.633 32.5685L377.64 32.4036L377.64 32.4036L379.633 32.5685ZM380.322 22.7675L382.319 22.8774L382.319 22.8764L380.322 22.7675ZM380.686 15.68V13.68H378.776L378.688 15.5878L380.686 15.68ZM420.457 15.68H422.457V13.68H420.457V15.68ZM420.457 74V76H422.457V74H420.457ZM409.441 74H407.441V76H409.441V74ZM409.441 25.967H411.441V23.967H409.441V25.967ZM390.811 25.967V23.967H388.949L388.816 25.8245L390.811 25.967ZM390.366 31.88L388.372 31.7249L388.371 31.7359L388.37 31.747L390.366 31.88ZM389.677 39.9395L387.687 39.7387L387.687 39.7387L389.677 39.9395ZM388.584 49.0925L390.565 49.3635L390.565 49.3635L388.584 49.0925ZM387.004 58.286L385.046 57.8767L385.044 57.8887L385.042 57.9008L387.004 58.286ZM384.939 65.981L386.817 66.6682L386.819 66.6608L384.939 65.981ZM381.699 71.4485L380.244 70.0761L380.243 70.0769L381.699 71.4485ZM376.555 74.243L376.981 76.1971L376.981 76.1971L376.555 74.243ZM370.617 74V64.847H366.617V74H370.617ZM368.487 66.8428C369.903 66.9351 371.239 66.8226 372.426 66.4144L371.126 62.6316C370.586 62.8174 369.815 62.9209 368.747 62.8512L368.487 66.8428ZM372.426 66.4144C373.694 65.9785 374.742 65.1857 375.556 64.1118L372.37 61.6942C371.996 62.1863 371.586 62.4735 371.126 62.6316L372.426 66.4144ZM375.55 64.1199C376.355 63.0697 376.983 61.7347 377.484 60.2035L373.682 58.9605C373.265 60.2373 372.813 61.1163 372.376 61.6861L375.55 64.1199ZM377.488 60.1929C377.98 58.6581 378.43 56.7905 378.844 54.6091L374.914 53.8629C374.518 55.9475 374.104 57.6439 373.679 58.9711L377.488 60.1929ZM378.843 54.6131C379.501 51.1853 380.049 47.5856 380.486 43.8148L376.512 43.3542C376.086 47.0354 375.553 50.5367 374.915 53.8589L378.843 54.6131ZM380.484 43.8273C380.946 40.0496 381.327 36.3516 381.626 32.7334L377.64 32.4036C377.345 35.9674 376.97 39.6134 376.514 43.3417L380.484 43.8273ZM381.626 32.7334C381.924 29.1279 382.155 25.8422 382.319 22.8774L378.325 22.6576C378.164 25.5788 377.936 28.8271 377.64 32.4036L381.626 32.7334ZM382.319 22.8764C382.481 19.9041 382.603 17.5353 382.684 15.7722L378.688 15.5878C378.608 17.3347 378.486 19.6909 378.325 22.6586L382.319 22.8764ZM380.686 17.68H420.457V13.68H380.686V17.68ZM418.457 15.68V74H422.457V15.68H418.457ZM420.457 72H409.441V76H420.457V72ZM411.441 74V25.967H407.441V74H411.441ZM409.441 23.967H390.811V27.967H409.441V23.967ZM388.816 25.8245C388.709 27.3306 388.56 29.2969 388.372 31.7249L392.36 32.0351C392.549 29.6031 392.698 27.6274 392.806 26.1095L388.816 25.8245ZM388.37 31.747C388.21 34.1502 387.982 36.8137 387.687 39.7387L391.667 40.1403C391.966 37.1793 392.197 34.4698 392.361 32.013L388.37 31.747ZM387.687 39.7387C387.393 42.6565 387.031 45.6841 386.602 48.8215L390.565 49.3635C391 46.1829 391.367 43.1085 391.667 40.1403L387.687 39.7387ZM386.602 48.8215C386.176 51.9365 385.657 54.9547 385.046 57.8767L388.962 58.6953C389.593 55.6773 390.127 52.5665 390.565 49.3635L386.602 48.8215ZM385.042 57.9008C384.49 60.712 383.826 63.1754 383.058 65.3012L386.819 66.6608C387.671 64.3046 388.384 61.638 388.967 58.6712L385.042 57.9008ZM383.06 65.2938C382.325 67.3026 381.375 68.8775 380.244 70.0761L383.153 72.8209C384.723 71.1575 385.932 69.0874 386.817 66.6682L383.06 65.2938ZM380.243 70.0769C379.229 71.1535 377.889 71.9053 376.129 72.2889L376.981 76.1971C379.433 75.6627 381.523 74.5515 383.154 72.8201L380.243 70.0769ZM376.129 72.2889C374.389 72.6682 372.041 72.6297 369 72.0369L368.234 75.9631C371.565 76.6123 374.509 76.7358 376.981 76.1971L376.129 72.2889ZM431.754 74H429.754V76H431.754V74ZM431.754 15.68V13.68H429.754V15.68H431.754ZM442.77 15.68H444.77V13.68H442.77V15.68ZM442.77 35.444H440.77V37.444H442.77V35.444ZM458.646 35.525L458.535 37.5219L458.563 37.5235L458.591 37.5242L458.646 35.525ZM461.238 35.768L460.886 37.7369L460.908 37.7407L460.929 37.744L461.238 35.768ZM469.743 39.2105L468.501 40.7778L468.51 40.7851L469.743 39.2105ZM474.684 45.8525L472.823 46.5855L472.828 46.5969L472.832 46.6083L474.684 45.8525ZM474.725 63.632L476.583 64.3715L476.585 64.365L474.725 63.632ZM469.784 70.2335L468.55 68.6589L468.541 68.6662L469.784 70.2335ZM461.238 73.676L461.521 75.6559L461.533 75.6542L461.544 75.6524L461.238 73.676ZM458.646 73.919L458.535 71.9221L458.532 71.9223L458.646 73.919ZM442.77 63.713H440.77V65.713H442.77V63.713ZM457.755 63.632L457.596 61.6384L457.596 61.6384L457.755 63.632ZM459.618 63.308L459.092 61.3785L459.08 61.3816L459.069 61.385L459.618 63.308ZM463.061 61.283L464.579 62.5846L464.588 62.574L464.597 62.5634L463.061 61.283ZM464.721 58.0835L462.792 57.5573L462.787 57.5725L462.783 57.5878L464.721 58.0835ZM464.721 51.401L462.781 51.8861L462.787 51.9124L462.795 51.9386L464.721 51.401ZM463.061 48.2015L461.524 49.4819L461.533 49.4925L461.542 49.5031L463.061 48.2015ZM459.618 46.136L459.069 48.059L459.08 48.0624L459.092 48.0655L459.618 46.136ZM457.755 45.812L457.915 43.8184L457.915 43.8184L457.755 45.812ZM442.77 45.731V43.731H440.77V45.731H442.77ZM433.754 74V15.68H429.754V74H433.754ZM431.754 17.68H442.77V13.68H431.754V17.68ZM440.77 15.68V35.444H444.77V15.68H440.77ZM442.77 37.444H456.378V33.444H442.77V37.444ZM456.378 37.444C456.863 37.444 457.576 37.4686 458.535 37.5219L458.757 33.5281C457.772 33.4734 456.973 33.444 456.378 33.444V37.444ZM458.591 37.5242C459.488 37.5492 460.25 37.6232 460.886 37.7369L461.59 33.7991C460.714 33.6428 459.748 33.5548 458.702 33.5258L458.591 37.5242ZM460.929 37.744C464.124 38.2433 466.615 39.2828 468.501 40.7778L470.985 37.6432C468.443 35.6282 465.264 34.3727 461.547 33.792L460.929 37.744ZM468.51 40.7851C470.468 42.3183 471.9 44.2407 472.823 46.5855L476.545 45.1194C475.363 42.1183 473.5 39.6127 470.976 37.6359L468.51 40.7851ZM472.832 46.6083C473.801 48.9825 474.304 51.6774 474.304 54.722H478.304C478.304 51.2326 477.727 48.0145 476.536 45.0967L472.832 46.6083ZM474.304 54.722C474.304 57.7722 473.813 60.4892 472.864 62.8989L476.585 64.365C477.742 61.4288 478.304 58.2058 478.304 54.722H474.304ZM472.866 62.8925C471.944 65.2099 470.513 67.1222 468.55 68.6589L471.017 71.8081C473.536 69.8348 475.399 67.3461 476.583 64.3715L472.866 62.8925ZM468.541 68.6662C466.658 70.159 464.156 71.1997 460.932 71.6996L461.544 75.6524C465.286 75.0723 468.481 73.818 471.026 71.8008L468.541 68.6662ZM460.955 71.6961C460.269 71.7941 459.464 71.8705 458.535 71.9221L458.757 75.9159C459.772 75.8595 460.695 75.7739 461.521 75.6559L460.955 71.6961ZM458.532 71.9223C457.603 71.9753 456.89 72 456.378 72V76C457 76 457.799 75.9707 458.76 75.9157L458.532 71.9223ZM456.378 72H431.754V76H456.378V72ZM442.77 65.713H455.892V61.713H442.77V65.713ZM455.892 65.713C456.521 65.713 457.196 65.6831 457.915 65.6256L457.596 61.6384C456.964 61.6889 456.397 61.713 455.892 61.713V65.713ZM457.915 65.6256C458.703 65.5626 459.456 65.4343 460.167 65.231L459.069 61.385C458.646 61.5057 458.158 61.5934 457.596 61.6384L457.915 65.6256ZM460.144 65.2375C461.923 64.7523 463.453 63.8986 464.579 62.5846L461.542 59.9814C461.048 60.5574 460.283 61.0537 459.092 61.3785L460.144 65.2375ZM464.597 62.5634C465.587 61.3759 466.284 60.0443 466.659 58.5792L462.783 57.5878C462.564 58.4447 462.155 59.2461 461.524 60.0026L464.597 62.5634ZM466.651 58.6097C467.014 57.2784 467.207 55.9798 467.207 54.722H463.207C463.207 55.5702 463.076 56.5126 462.792 57.5573L466.651 58.6097ZM467.207 54.722C467.207 53.4633 467.013 52.1747 466.647 50.8634L462.795 51.9386C463.077 52.9493 463.207 53.8747 463.207 54.722H467.207ZM466.661 50.9159C466.288 49.4216 465.588 48.0766 464.579 46.8999L461.542 49.5031C462.153 50.2163 462.56 51.0044 462.781 51.8861L466.661 50.9159ZM464.597 46.9211C463.472 45.5716 461.938 44.6956 460.144 44.2065L459.092 48.0655C460.268 48.3864 461.029 48.8874 461.524 49.4819L464.597 46.9211ZM460.167 44.213C459.456 44.0097 458.703 43.8814 457.915 43.8184L457.596 47.8056C458.158 47.8506 458.646 47.9383 459.069 48.059L460.167 44.213ZM457.915 43.8184C457.196 43.7609 456.521 43.731 455.892 43.731V47.731C456.397 47.731 456.964 47.7551 457.596 47.8056L457.915 43.8184ZM455.892 43.731H442.77V47.731H455.892V43.731ZM440.77 45.731V63.713H444.77V45.731H440.77ZM485.229 74H483.229V76H485.229V74ZM485.229 15.68V13.68H483.229V15.68H485.229ZM496.245 15.68H498.245V13.68H496.245V15.68ZM496.245 39.656H494.245V41.656H496.245V39.656ZM522.327 39.656V41.656H524.327V39.656H522.327ZM522.327 15.68V13.68H520.327V15.68H522.327ZM533.343 15.68H535.343V13.68H533.343V15.68ZM533.343 74V76H535.343V74H533.343ZM522.327 74H520.327V76H522.327V74ZM522.327 49.943H524.327V47.943H522.327V49.943ZM496.245 49.943V47.943H494.245V49.943H496.245ZM496.245 74V76H498.245V74H496.245ZM487.229 74V15.68H483.229V74H487.229ZM485.229 17.68H496.245V13.68H485.229V17.68ZM494.245 15.68V39.656H498.245V15.68H494.245ZM496.245 41.656H522.327V37.656H496.245V41.656ZM524.327 39.656V15.68H520.327V39.656H524.327ZM522.327 17.68H533.343V13.68H522.327V17.68ZM531.343 15.68V74H535.343V15.68H531.343ZM533.343 72H522.327V76H533.343V72ZM524.327 74V49.943H520.327V74H524.327ZM522.327 47.943H496.245V51.943H522.327V47.943ZM494.245 49.943V74H498.245V49.943H494.245ZM496.245 72H485.229V76H496.245V72ZM544.632 74H542.632V76H544.632V74ZM544.632 15.68V13.68H542.632V15.68H544.632ZM555.648 15.68H557.648V13.68H555.648V15.68ZM555.648 35.444H553.648V37.444H555.648V35.444ZM571.524 35.525L571.413 37.5219L571.441 37.5235L571.468 37.5242L571.524 35.525ZM574.116 35.768L573.764 37.7369L573.786 37.7407L573.807 37.744L574.116 35.768ZM582.621 39.2105L581.379 40.7778L581.388 40.7851L582.621 39.2105ZM587.562 45.8525L585.701 46.5855L585.706 46.5969L585.71 46.6083L587.562 45.8525ZM587.602 63.632L589.461 64.3715L589.463 64.365L587.602 63.632ZM582.661 70.2335L581.428 68.6589L581.419 68.6662L582.661 70.2335ZM574.116 73.676L574.399 75.6559L574.411 75.6542L574.422 75.6524L574.116 73.676ZM571.524 73.919L571.413 71.9221L571.41 71.9223L571.524 73.919ZM555.648 63.713H553.648V65.713H555.648V63.713ZM570.633 63.632L570.473 61.6384L570.473 61.6384L570.633 63.632ZM572.496 63.308L571.97 61.3785L571.958 61.3816L571.947 61.385L572.496 63.308ZM575.938 61.283L577.457 62.5846L577.466 62.574L577.475 62.5634L575.938 61.283ZM577.599 58.0835L575.669 57.5573L575.665 57.5725L575.661 57.5878L577.599 58.0835ZM577.599 51.401L575.659 51.8861L575.665 51.9124L575.673 51.9386L577.599 51.401ZM575.938 48.2015L574.402 49.4819L574.411 49.4925L574.42 49.5031L575.938 48.2015ZM572.496 46.136L571.947 48.059L571.958 48.0624L571.97 48.0655L572.496 46.136ZM570.633 45.812L570.792 43.8184L570.792 43.8184L570.633 45.812ZM555.648 45.731V43.731H553.648V45.731H555.648ZM595.014 74H593.014V76H595.014V74ZM595.014 15.68V13.68H593.014V15.68H595.014ZM606.03 15.68H608.03V13.68H606.03V15.68ZM606.03 74V76H608.03V74H606.03ZM546.632 74V15.68H542.632V74H546.632ZM544.632 17.68H555.648V13.68H544.632V17.68ZM553.648 15.68V35.444H557.648V15.68H553.648ZM555.648 37.444H569.256V33.444H555.648V37.444ZM569.256 37.444C569.741 37.444 570.454 37.4686 571.413 37.5219L571.635 33.5281C570.65 33.4734 569.851 33.444 569.256 33.444V37.444ZM571.468 37.5242C572.366 37.5492 573.128 37.6232 573.764 37.7369L574.468 33.7991C573.592 33.6428 572.626 33.5548 571.58 33.5258L571.468 37.5242ZM573.807 37.744C577.002 38.2433 579.493 39.2828 581.379 40.7778L583.863 37.6432C581.321 35.6282 578.142 34.3727 574.425 33.792L573.807 37.744ZM581.388 40.7851C583.346 42.3183 584.777 44.2407 585.701 46.5855L589.423 45.1194C588.241 42.1183 586.378 39.6127 583.854 37.6359L581.388 40.7851ZM585.71 46.6083C586.679 48.9825 587.182 51.6774 587.182 54.722H591.182C591.182 51.2326 590.605 48.0145 589.414 45.0967L585.71 46.6083ZM587.182 54.722C587.182 57.7722 586.691 60.4892 585.742 62.8989L589.463 64.365C590.62 61.4288 591.182 58.2058 591.182 54.722H587.182ZM585.744 62.8925C584.822 65.2099 583.391 67.1222 581.428 68.6589L583.895 71.8081C586.414 69.8348 588.277 67.3461 589.461 64.3715L585.744 62.8925ZM581.419 68.6662C579.536 70.159 577.034 71.1997 573.81 71.6996L574.422 75.6524C578.164 75.0723 581.359 73.818 583.904 71.8008L581.419 68.6662ZM573.833 71.6961C573.147 71.7941 572.342 71.8705 571.413 71.9221L571.635 75.9159C572.65 75.8595 573.573 75.7739 574.399 75.6559L573.833 71.6961ZM571.41 71.9223C570.481 71.9753 569.768 72 569.256 72V76C569.878 76 570.677 75.9707 571.638 75.9157L571.41 71.9223ZM569.256 72H544.632V76H569.256V72ZM555.648 65.713H568.77V61.713H555.648V65.713ZM568.77 65.713C569.399 65.713 570.074 65.6831 570.792 65.6256L570.473 61.6384C569.842 61.6889 569.275 61.713 568.77 61.713V65.713ZM570.792 65.6256C571.58 65.5626 572.334 65.4343 573.045 65.231L571.947 61.385C571.524 61.5057 571.035 61.5934 570.473 61.6384L570.792 65.6256ZM573.022 65.2375C574.801 64.7523 576.331 63.8986 577.457 62.5846L574.42 59.9814C573.926 60.5574 573.161 61.0537 571.97 61.3785L573.022 65.2375ZM577.475 62.5634C578.464 61.3759 579.162 60.0443 579.537 58.5792L575.661 57.5878C575.442 58.4447 575.032 59.2461 574.402 60.0026L577.475 62.5634ZM579.528 58.6097C579.892 57.2784 580.085 55.9798 580.085 54.722H576.085C576.085 55.5702 575.954 56.5126 575.669 57.5573L579.528 58.6097ZM580.085 54.722C580.085 53.4633 579.891 52.1747 579.525 50.8634L575.673 51.9386C575.955 52.9493 576.085 53.8747 576.085 54.722H580.085ZM579.539 50.9159C579.166 49.4216 578.466 48.0766 577.457 46.8999L574.42 49.5031C575.031 50.2163 575.438 51.0044 575.659 51.8861L579.539 50.9159ZM577.475 46.9211C576.35 45.5716 574.816 44.6956 573.022 44.2065L571.97 48.0655C573.146 48.3864 573.907 48.8874 574.402 49.4819L577.475 46.9211ZM573.045 44.213C572.334 44.0097 571.58 43.8814 570.792 43.8184L570.473 47.8056C571.035 47.8506 571.524 47.9383 571.947 48.059L573.045 44.213ZM570.792 43.8184C570.074 43.7609 569.399 43.731 568.77 43.731V47.731C569.275 47.731 569.842 47.7551 570.473 47.8056L570.792 43.8184ZM568.77 43.731H555.648V47.731H568.77V43.731ZM553.648 45.731V63.713H557.648V45.731H553.648ZM597.014 74V15.68H593.014V74H597.014ZM595.014 17.68H606.03V13.68H595.014V17.68ZM604.03 15.68V74H608.03V15.68H604.03ZM606.03 72H595.014V76H606.03V72ZM617.407 74H615.407V76H617.407V74ZM617.407 15.68V13.68H615.407V15.68H617.407ZM655.477 15.68H657.477V13.68H655.477V15.68ZM655.477 25.967V27.967H657.477V25.967H655.477ZM628.423 25.967V23.967H626.423V25.967H628.423ZM628.423 38.441H626.423V40.441H628.423V38.441ZM650.617 38.441H652.617V36.441H650.617V38.441ZM650.617 48.728V50.728H652.617V48.728H650.617ZM628.423 48.728V46.728H626.423V48.728H628.423ZM628.423 63.713H626.423V65.713H628.423V63.713ZM655.477 63.713H657.477V61.713H655.477V63.713ZM655.477 74V76H657.477V74H655.477ZM619.407 74V15.68H615.407V74H619.407ZM617.407 17.68H655.477V13.68H617.407V17.68ZM653.477 15.68V25.967H657.477V15.68H653.477ZM655.477 23.967H628.423V27.967H655.477V23.967ZM626.423 25.967V38.441H630.423V25.967H626.423ZM628.423 40.441H650.617V36.441H628.423V40.441ZM648.617 38.441V48.728H652.617V38.441H648.617ZM650.617 46.728H628.423V50.728H650.617V46.728ZM626.423 48.728V63.713H630.423V48.728H626.423ZM628.423 65.713H655.477V61.713H628.423V65.713ZM653.477 63.713V74H657.477V63.713H653.477ZM655.477 72H617.407V76H655.477V72ZM90.67 160H88.67V162H90.67V160ZM90.67 101.68V99.68H88.67V101.68H90.67ZM138.784 101.68H140.784V99.68H138.784V101.68ZM138.784 160V162H140.784V160H138.784ZM127.768 160H125.768V162H127.768V160ZM127.768 111.967H129.768V109.967H127.768V111.967ZM101.686 111.967V109.967H99.686V111.967H101.686ZM101.686 160V162H103.686V160H101.686ZM92.67 160V101.68H88.67V160H92.67ZM90.67 103.68H138.784V99.68H90.67V103.68ZM136.784 101.68V160H140.784V101.68H136.784ZM138.784 158H127.768V162H138.784V158ZM129.768 160V111.967H125.768V160H129.768ZM127.768 109.967H101.686V113.967H127.768V109.967ZM99.686 111.967V160H103.686V111.967H99.686ZM101.686 158H90.67V162H101.686V158ZM150.154 160H148.154V162H150.154V160ZM150.154 101.68V99.68H148.154V101.68H150.154ZM177.046 101.761L176.932 103.758L176.962 103.759L176.991 103.76L177.046 101.761ZM179.638 102.004L179.287 103.973L179.309 103.977L179.332 103.98L179.638 102.004ZM188.184 105.446L186.941 107.014L186.951 107.021L188.184 105.446ZM193.125 112.088L191.264 112.822L191.267 112.828L193.125 112.088ZM193.084 129.868L191.23 129.119L191.226 129.128L193.084 129.868ZM188.143 136.469L186.91 134.895L186.901 134.902L188.143 136.469ZM179.638 139.912L179.921 141.892L179.934 141.89L179.947 141.888L179.638 139.912ZM177.046 140.155L177.157 142.152L177.157 142.152L177.046 140.155ZM161.17 140.236V138.236H159.17V140.236H161.17ZM161.17 160V162H163.17V160H161.17ZM161.17 129.949H159.17V131.949H161.17V129.949ZM176.155 129.868L176.315 131.862L176.315 131.862L176.155 129.868ZM178.018 129.544L177.492 127.614L177.481 127.618L177.469 127.621L178.018 129.544ZM181.461 127.519L182.979 128.821L182.988 128.81L182.997 128.799L181.461 127.519ZM183.121 124.319L181.192 123.793L181.188 123.809L181.184 123.824L183.121 124.319ZM183.121 117.637L181.181 118.122L181.188 118.148L181.195 118.175L183.121 117.637ZM181.461 114.438L179.924 115.718L179.933 115.729L179.942 115.739L181.461 114.438ZM178.018 112.372L177.469 114.295L177.481 114.298L177.492 114.302L178.018 112.372ZM176.155 112.048L175.996 114.042L175.996 114.042L176.155 112.048ZM161.17 111.967V109.967H159.17V111.967H161.17ZM152.154 160V101.68H148.154V160H152.154ZM150.154 103.68H174.778V99.68H150.154V103.68ZM174.778 103.68C175.291 103.68 176.004 103.705 176.932 103.758L177.16 99.7643C176.199 99.7093 175.4 99.68 174.778 99.68V103.68ZM176.991 103.76C177.888 103.785 178.65 103.859 179.287 103.973L179.99 100.035C179.114 99.8788 178.148 99.7908 177.102 99.7618L176.991 103.76ZM179.332 103.98C182.556 104.48 185.058 105.521 186.941 107.014L189.426 103.879C186.882 101.862 183.686 100.608 179.945 100.028L179.332 103.98ZM186.951 107.021C188.909 108.554 190.34 110.477 191.264 112.822L194.986 111.355C193.803 108.354 191.941 105.849 189.417 103.872L186.951 107.021ZM191.267 112.828C192.213 115.207 192.704 117.907 192.704 120.958H196.704C196.704 117.475 196.143 114.262 194.983 111.349L191.267 112.828ZM192.704 120.958C192.704 124.002 192.202 126.713 191.23 129.119L194.939 130.617C196.127 127.677 196.704 124.448 196.704 120.958H192.704ZM191.226 129.128C190.304 131.446 188.873 133.358 186.91 134.895L189.377 138.044C191.896 136.071 193.759 133.582 194.943 130.608L191.226 129.128ZM186.901 134.902C185.015 136.397 182.525 137.437 179.33 137.936L179.947 141.888C183.664 141.307 186.844 140.052 189.386 138.037L186.901 134.902ZM179.356 137.932C178.67 138.03 177.865 138.106 176.935 138.158L177.157 142.152C178.172 142.096 179.095 142.01 179.921 141.892L179.356 137.932ZM176.935 138.158C175.976 138.211 175.263 138.236 174.778 138.236V142.236C175.374 142.236 176.173 142.207 177.157 142.152L176.935 138.158ZM174.778 138.236H161.17V142.236H174.778V138.236ZM159.17 140.236V160H163.17V140.236H159.17ZM161.17 158H150.154V162H161.17V158ZM161.17 131.949H174.292V127.949H161.17V131.949ZM174.292 131.949C174.922 131.949 175.597 131.919 176.315 131.862L175.996 127.874C175.364 127.925 174.797 127.949 174.292 127.949V131.949ZM176.315 131.862C177.103 131.799 177.856 131.67 178.568 131.467L177.469 127.621C177.046 127.742 176.558 127.829 175.996 127.874L176.315 131.862ZM178.545 131.474C180.324 130.988 181.853 130.135 182.979 128.821L179.942 126.217C179.449 126.793 178.683 127.29 177.492 127.614L178.545 131.474ZM182.997 128.799C183.987 127.612 184.684 126.28 185.059 124.815L181.184 123.824C180.965 124.681 180.555 125.482 179.924 126.239L182.997 128.799ZM185.051 124.846C185.414 123.514 185.607 122.216 185.607 120.958H181.607C181.607 121.806 181.477 122.749 181.192 123.793L185.051 124.846ZM185.607 120.958C185.607 119.699 185.414 118.411 185.048 117.099L181.195 118.175C181.477 119.185 181.607 120.111 181.607 120.958H185.607ZM185.062 117.152C184.688 115.658 183.988 114.313 182.979 113.136L179.942 115.739C180.554 116.452 180.961 117.24 181.181 118.122L185.062 117.152ZM182.997 113.157C181.873 111.808 180.338 110.932 178.545 110.442L177.492 114.302C178.669 114.622 179.429 115.123 179.924 115.718L182.997 113.157ZM178.568 110.449C177.856 110.246 177.103 110.117 176.315 110.054L175.996 114.042C176.558 114.087 177.046 114.174 177.469 114.295L178.568 110.449ZM176.315 110.054C175.597 109.997 174.922 109.967 174.292 109.967V113.967C174.797 113.967 175.364 113.991 175.996 114.042L176.315 110.054ZM174.292 109.967H161.17V113.967H174.292V109.967ZM159.17 111.967V129.949H163.17V111.967H159.17ZM202.836 160H200.836V162H202.836V160ZM202.836 101.68V99.68H200.836V101.68H202.836ZM240.906 101.68H242.906V99.68H240.906V101.68ZM240.906 111.967V113.967H242.906V111.967H240.906ZM213.852 111.967V109.967H211.852V111.967H213.852ZM213.852 124.441H211.852V126.441H213.852V124.441ZM236.046 124.441H238.046V122.441H236.046V124.441ZM236.046 134.728V136.728H238.046V134.728H236.046ZM213.852 134.728V132.728H211.852V134.728H213.852ZM213.852 149.713H211.852V151.713H213.852V149.713ZM240.906 149.713H242.906V147.713H240.906V149.713ZM240.906 160V162H242.906V160H240.906ZM204.836 160V101.68H200.836V160H204.836ZM202.836 103.68H240.906V99.68H202.836V103.68ZM238.906 101.68V111.967H242.906V101.68H238.906ZM240.906 109.967H213.852V113.967H240.906V109.967ZM211.852 111.967V124.441H215.852V111.967H211.852ZM213.852 126.441H236.046V122.441H213.852V126.441ZM234.046 124.441V134.728H238.046V124.441H234.046ZM236.046 132.728H213.852V136.728H236.046V132.728ZM211.852 134.728V149.713H215.852V134.728H211.852ZM213.852 151.713H240.906V147.713H213.852V151.713ZM238.906 149.713V160H242.906V149.713H238.906ZM240.906 158H202.836V162H240.906V158ZM247.373 169.72H245.373V171.72H247.373V169.72ZM247.373 149.713V147.713H245.373V149.713H247.373ZM251.828 148.417L252.987 150.047L252.994 150.042L251.828 148.417ZM254.866 144.691L256.661 145.573L256.667 145.561L254.866 144.691ZM256.729 139.021L254.773 138.605L254.773 138.605L256.729 139.021ZM257.741 131.974L259.734 132.144L259.734 132.14L257.741 131.974ZM258.47 122.416L260.466 122.554L260.466 122.552L258.47 122.416ZM259.118 112.615L261.114 112.743L261.114 112.742L259.118 112.615ZM259.847 101.599L259.852 99.599L257.98 99.5951L257.852 101.462L259.847 101.599ZM298.565 101.68H300.565V99.6842L298.57 99.68L298.565 101.68ZM298.565 149.713H296.565V151.713H298.565V149.713ZM303.02 149.713H305.02V147.713H303.02V149.713ZM303.02 169.72V171.72H305.02V169.72H303.02ZM292.004 169.72H290.004V171.72H292.004V169.72ZM292.004 160H294.004V158H292.004V160ZM258.389 160V158H256.389V160H258.389ZM258.389 169.72V171.72H260.389V169.72H258.389ZM263.816 149.713L262.223 148.504L259.787 151.713H263.816V149.713ZM287.549 149.713V151.713H289.549V149.713H287.549ZM287.549 111.967H289.549V109.976L287.559 109.967L287.549 111.967ZM269.891 111.886L269.901 109.886L268.028 109.877L267.896 111.745L269.891 111.886ZM269.405 119.257L267.409 119.137L267.408 119.149L267.408 119.161L269.405 119.257ZM269 126.061L270.995 126.202L270.995 126.202L269 126.061ZM268.352 133.756L270.343 133.946L270.343 133.946L268.352 133.756ZM267.542 140.762L269.52 141.058L269.521 141.053L267.542 140.762ZM266.287 145.501L264.443 144.727L264.436 144.742L264.43 144.758L266.287 145.501ZM249.373 169.72V149.713H245.373V169.72H249.373ZM247.373 151.713C249.468 151.713 251.377 151.192 252.987 150.047L250.669 146.787C249.85 147.37 248.789 147.713 247.373 147.713V151.713ZM252.994 150.042C254.544 148.93 255.756 147.414 256.661 145.573L253.071 143.809C252.41 145.154 251.597 146.122 250.663 146.792L252.994 150.042ZM256.667 145.561C257.533 143.768 258.2 141.72 258.685 139.437L254.773 138.605C254.34 140.642 253.765 142.374 253.065 143.821L256.667 145.561ZM258.685 139.437C259.164 137.184 259.512 134.752 259.734 132.144L255.749 131.804C255.539 134.272 255.212 136.538 254.773 138.605L258.685 139.437ZM259.734 132.14C260.005 128.891 260.249 125.695 260.466 122.554L256.475 122.278C256.26 125.401 256.018 128.577 255.748 131.808L259.734 132.14ZM260.466 122.552C260.682 119.39 260.898 116.12 261.114 112.743L257.122 112.487C256.907 115.86 256.691 119.124 256.475 122.28L260.466 122.552ZM261.114 112.742C261.33 109.344 261.573 105.675 261.843 101.736L257.852 101.462C257.582 105.407 257.339 109.082 257.122 112.488L261.114 112.742ZM259.843 103.599L298.561 103.68L298.57 99.68L259.852 99.599L259.843 103.599ZM296.565 101.68V149.713H300.565V101.68H296.565ZM298.565 151.713H303.02V147.713H298.565V151.713ZM301.02 149.713V169.72H305.02V149.713H301.02ZM303.02 167.72H292.004V171.72H303.02V167.72ZM294.004 169.72V160H290.004V169.72H294.004ZM292.004 158H258.389V162H292.004V158ZM256.389 160V169.72H260.389V160H256.389ZM258.389 167.72H247.373V171.72H258.389V167.72ZM263.816 151.713H287.549V147.713H263.816V151.713ZM289.549 149.713V111.967H285.549V149.713H289.549ZM287.559 109.967L269.901 109.886L269.882 113.886L287.54 113.967L287.559 109.967ZM267.896 111.745C267.707 114.424 267.544 116.888 267.409 119.137L271.402 119.377C271.536 117.144 271.698 114.694 271.886 112.027L267.896 111.745ZM267.408 119.161C267.3 121.386 267.166 123.64 267.005 125.92L270.995 126.202C271.158 123.892 271.294 121.61 271.403 119.353L267.408 119.161ZM267.005 125.92C266.845 128.196 266.63 130.744 266.361 133.566L270.343 133.946C270.615 131.098 270.832 128.516 270.995 126.202L267.005 125.92ZM266.361 133.566C266.093 136.383 265.827 138.682 265.564 140.472L269.521 141.053C269.798 139.171 270.072 136.799 270.343 133.946L266.361 133.566ZM265.564 140.467C265.313 142.151 264.932 143.563 264.443 144.727L268.131 146.275C268.776 144.739 269.232 142.992 269.52 141.058L265.564 140.467ZM264.43 144.758C263.971 145.905 263.249 147.153 262.223 148.504L265.409 150.922C266.598 149.357 267.523 147.797 268.144 146.244L264.43 144.758ZM307.867 160H305.867V161.648L307.484 161.963L307.867 160ZM307.867 150.847L307.997 148.851L305.867 148.712V150.847H307.867ZM311.026 150.523L310.376 148.632L310.376 148.632L311.026 150.523ZM313.213 148.903L311.626 147.686L311.62 147.694L313.213 148.903ZM314.833 145.582L316.734 146.203L316.738 146.193L314.833 145.582ZM316.129 140.236L314.165 139.859L314.164 139.863L316.129 140.236ZM317.749 129.584L315.764 129.342L315.762 129.354L317.749 129.584ZM318.883 118.568L316.89 118.404L316.89 118.404L318.883 118.568ZM319.572 108.767L321.569 108.877L321.569 108.876L319.572 108.767ZM319.936 101.68V99.68H318.026L317.938 101.588L319.936 101.68ZM359.707 101.68H361.707V99.68H359.707V101.68ZM359.707 160V162H361.707V160H359.707ZM348.691 160H346.691V162H348.691V160ZM348.691 111.967H350.691V109.967H348.691V111.967ZM330.061 111.967V109.967H328.199L328.066 111.825L330.061 111.967ZM329.616 117.88L327.622 117.725L327.621 117.736L327.62 117.747L329.616 117.88ZM328.927 125.939L326.937 125.739L326.937 125.739L328.927 125.939ZM327.834 135.092L329.815 135.363L329.815 135.363L327.834 135.092ZM326.254 144.286L324.296 143.877L324.294 143.889L324.292 143.901L326.254 144.286ZM324.189 151.981L326.067 152.668L326.069 152.661L324.189 151.981ZM320.949 157.448L319.494 156.076L319.493 156.077L320.949 157.448ZM315.805 160.243L316.231 162.197L316.231 162.197L315.805 160.243ZM309.867 160V150.847H305.867V160H309.867ZM307.737 152.843C309.153 152.935 310.489 152.823 311.676 152.414L310.376 148.632C309.836 148.817 309.065 148.921 307.997 148.851L307.737 152.843ZM311.676 152.414C312.944 151.979 313.992 151.186 314.806 150.112L311.62 147.694C311.246 148.186 310.836 148.473 310.376 148.632L311.676 152.414ZM314.8 150.12C315.605 149.07 316.233 147.735 316.734 146.203L312.932 144.961C312.515 146.237 312.063 147.116 311.626 147.686L314.8 150.12ZM316.738 146.193C317.23 144.658 317.68 142.79 318.094 140.609L314.164 139.863C313.768 141.948 313.354 143.644 312.929 144.971L316.738 146.193ZM318.093 140.613C318.751 137.185 319.299 133.586 319.736 129.815L315.762 129.354C315.336 133.035 314.803 136.537 314.165 139.859L318.093 140.613ZM319.734 129.827C320.196 126.05 320.577 122.352 320.876 118.733L316.89 118.404C316.595 121.967 316.22 125.613 315.764 129.342L319.734 129.827ZM320.876 118.733C321.174 115.128 321.405 111.842 321.569 108.877L317.575 108.658C317.414 111.579 317.186 114.827 316.89 118.404L320.876 118.733ZM321.569 108.876C321.731 105.904 321.853 103.535 321.934 101.772L317.938 101.588C317.858 103.335 317.736 105.691 317.575 108.659L321.569 108.876ZM319.936 103.68H359.707V99.68H319.936V103.68ZM357.707 101.68V160H361.707V101.68H357.707ZM359.707 158H348.691V162H359.707V158ZM350.691 160V111.967H346.691V160H350.691ZM348.691 109.967H330.061V113.967H348.691V109.967ZM328.066 111.825C327.959 113.331 327.81 115.297 327.622 117.725L331.61 118.035C331.799 115.603 331.948 113.627 332.056 112.109L328.066 111.825ZM327.62 117.747C327.46 120.15 327.232 122.814 326.937 125.739L330.917 126.14C331.216 123.179 331.447 120.47 331.611 118.013L327.62 117.747ZM326.937 125.739C326.643 128.657 326.281 131.684 325.852 134.822L329.815 135.363C330.25 132.183 330.617 129.108 330.917 126.14L326.937 125.739ZM325.852 134.822C325.426 137.936 324.907 140.955 324.296 143.877L328.212 144.695C328.843 141.677 329.377 138.567 329.815 135.363L325.852 134.822ZM324.292 143.901C323.74 146.712 323.076 149.175 322.308 151.301L326.069 152.661C326.921 150.305 327.634 147.638 328.217 144.671L324.292 143.901ZM322.31 151.294C321.575 153.303 320.625 154.877 319.494 156.076L322.403 158.821C323.973 157.158 325.182 155.087 326.067 152.668L322.31 151.294ZM319.493 156.077C318.479 157.153 317.139 157.905 315.379 158.289L316.231 162.197C318.683 161.663 320.773 160.552 322.404 158.82L319.493 156.077ZM315.379 158.289C313.639 158.668 311.291 158.63 308.25 158.037L307.484 161.963C310.815 162.612 313.759 162.736 316.231 162.197L315.379 158.289ZM381.008 157.408L379.975 159.121L379.98 159.124L381.008 157.408ZM371.247 146.756L369.456 147.647L369.46 147.655L371.247 146.756ZM371.247 114.923L369.46 114.025L369.456 114.033L371.247 114.923ZM381.008 104.272L379.98 102.556L379.975 102.559L381.008 104.272ZM411.18 104.272L410.148 105.985L410.153 105.988L411.18 104.272ZM420.941 114.923L419.15 115.814L419.154 115.822L420.941 114.923ZM420.941 146.756L419.154 145.858L419.15 145.866L420.941 146.756ZM411.18 157.408L410.153 155.692L410.148 155.695L411.18 157.408ZM396.114 150.847L396.085 152.847L396.114 150.847ZM405.348 148.457L406.462 150.119L406.462 150.119L405.348 148.457ZM410.856 141.451L409.006 140.691L409.003 140.698L409 140.705L410.856 141.451ZM410.856 120.31L409.005 121.067L409.008 121.074L409.011 121.082L410.856 120.31ZM405.348 113.384L406.462 111.723L406.462 111.723L405.348 113.384ZM396.114 110.833L396.143 108.833L396.143 108.833L396.114 110.833ZM381.332 120.229L379.481 119.469L379.479 119.476L379.476 119.483L381.332 120.229ZM381.332 141.37L379.48 142.127L379.483 142.134L379.486 142.142L381.332 141.37ZM386.88 148.295L385.766 149.957L385.766 149.957L386.88 148.295ZM396.114 159.215C390.578 159.215 385.911 158.013 382.035 155.692L379.98 159.124C384.582 161.879 389.986 163.215 396.114 163.215V159.215ZM382.04 155.695C378.164 153.36 375.166 150.097 373.034 145.858L369.46 147.655C371.918 152.542 375.427 156.38 379.975 159.121L382.04 155.695ZM373.038 145.866C370.931 141.627 369.845 136.636 369.845 130.84H365.845C365.845 137.14 367.027 142.76 369.456 147.647L373.038 145.866ZM369.845 130.84C369.845 125.044 370.931 120.053 373.038 115.814L369.456 114.033C367.027 118.92 365.845 124.54 365.845 130.84H369.845ZM373.034 115.822C375.166 111.583 378.164 108.32 382.04 105.985L379.975 102.559C375.427 105.3 371.918 109.138 369.46 114.025L373.034 115.822ZM382.035 105.988C385.911 103.667 390.578 102.465 396.114 102.465V98.465C389.986 98.465 384.582 99.801 379.98 102.556L382.035 105.988ZM396.114 102.465C401.65 102.465 406.301 103.667 410.148 105.985L412.212 102.559C407.635 99.8009 402.242 98.465 396.114 98.465V102.465ZM410.153 105.988C414.053 108.323 417.046 111.582 419.15 115.814L422.732 114.033C420.299 109.139 416.785 105.297 412.207 102.556L410.153 105.988ZM419.154 115.822C421.285 120.059 422.383 125.047 422.383 130.84H426.383C426.383 124.537 425.186 118.914 422.727 114.025L419.154 115.822ZM422.383 130.84C422.383 136.633 421.285 141.621 419.154 145.858L422.727 147.655C425.186 142.766 426.383 137.143 426.383 130.84H422.383ZM419.15 145.866C417.046 150.098 414.053 153.357 410.153 155.692L412.207 159.124C416.785 156.383 420.299 152.541 422.732 147.647L419.15 145.866ZM410.148 155.695C406.301 158.013 401.65 159.215 396.114 159.215V163.215C402.242 163.215 407.635 161.879 412.212 159.121L410.148 155.695ZM396.085 152.847C400.088 152.905 403.591 152.043 406.462 150.119L404.234 146.796C402.191 148.166 399.538 148.897 396.143 148.847L396.085 152.847ZM406.462 150.119C409.286 148.225 411.363 145.554 412.712 142.197L409 140.705C407.919 143.396 406.324 145.396 404.234 146.796L406.462 150.119ZM412.706 142.211C414.068 138.896 414.719 135.09 414.719 130.84H410.719C410.719 134.69 410.128 137.958 409.006 140.691L412.706 142.211ZM414.719 130.84C414.719 126.591 414.068 122.807 412.701 119.538L409.011 121.082C410.128 123.753 410.719 126.989 410.719 130.84H414.719ZM412.707 119.553C411.355 116.247 409.277 113.61 406.462 111.723L404.234 115.046C406.333 116.453 407.927 118.433 409.005 121.067L412.707 119.553ZM406.462 111.723C403.612 109.813 400.132 108.891 396.143 108.833L396.085 112.833C399.494 112.883 402.171 113.662 404.234 115.046L406.462 111.723ZM396.143 108.833C392.14 108.775 388.637 109.637 385.766 111.561L387.994 114.884C390.037 113.514 392.69 112.783 396.085 112.833L396.143 108.833ZM385.766 111.561C382.946 113.452 380.858 116.118 379.481 119.469L383.182 120.989C384.289 118.292 385.9 116.287 387.994 114.884L385.766 111.561ZM379.476 119.483C378.145 122.794 377.509 126.594 377.509 130.84H381.509C381.509 126.986 382.088 123.712 383.187 120.975L379.476 119.483ZM377.509 130.84C377.509 135.084 378.145 138.863 379.48 142.127L383.183 140.613C382.088 137.937 381.509 134.696 381.509 130.84H377.509ZM379.486 142.142C380.866 145.44 382.955 148.072 385.766 149.957L387.994 146.634C385.891 145.225 384.281 143.24 383.177 140.598L379.486 142.142ZM385.766 149.957C388.617 151.867 392.096 152.789 396.085 152.847L396.143 148.847C392.734 148.797 390.058 148.018 387.994 146.634L385.766 149.957ZM423.574 160L421.934 158.855L419.737 162H423.574V160ZM444.229 130.435L445.868 131.58L446.649 130.463L445.894 129.328L444.229 130.435ZM425.113 101.68V99.68H421.381L423.447 102.787L425.113 101.68ZM438.154 101.68L439.843 100.61L439.254 99.68H438.154V101.68ZM454.678 127.762L452.988 128.832L456.678 134.656V127.762H454.678ZM454.678 101.68V99.68H452.678V101.68H454.678ZM465.694 101.68H467.694V99.68H465.694V101.68ZM465.694 127.762H463.694V134.656L467.383 128.832L465.694 127.762ZM482.218 101.68V99.68H481.117L480.528 100.61L482.218 101.68ZM495.259 101.68L496.924 102.787L498.99 99.68H495.259V101.68ZM476.143 130.435L474.477 129.328L473.722 130.463L474.503 131.58L476.143 130.435ZM496.798 160V162H500.635L498.437 158.855L496.798 160ZM483.271 160L481.619 161.127L482.214 162H483.271V160ZM465.694 134.242L467.346 133.115L463.694 127.763V134.242H465.694ZM465.694 160V162H467.694V160H465.694ZM454.678 160H452.678V162H454.678V160ZM454.678 134.242H456.678V127.763L453.026 133.115L454.678 134.242ZM437.101 160V162H438.157L438.753 161.127L437.101 160ZM425.213 161.145L445.868 131.58L442.589 129.29L421.934 158.855L425.213 161.145ZM445.894 129.328L426.778 100.573L423.447 102.787L442.563 131.542L445.894 129.328ZM425.113 103.68H438.154V99.68H425.113V103.68ZM436.464 102.75L452.988 128.832L456.367 126.692L439.843 100.61L436.464 102.75ZM456.678 127.762V101.68H452.678V127.762H456.678ZM454.678 103.68H465.694V99.68H454.678V103.68ZM463.694 101.68V127.762H467.694V101.68H463.694ZM467.383 128.832L483.907 102.75L480.528 100.61L464.004 126.692L467.383 128.832ZM482.218 103.68H495.259V99.68H482.218V103.68ZM493.593 100.573L474.477 129.328L477.808 131.542L496.924 102.787L493.593 100.573ZM474.503 131.58L495.158 161.145L498.437 158.855L477.782 129.29L474.503 131.58ZM496.798 158H483.271V162H496.798V158ZM484.923 158.873L467.346 133.115L464.042 135.369L481.619 161.127L484.923 158.873ZM463.694 134.242V160H467.694V134.242H463.694ZM465.694 158H454.678V162H465.694V158ZM456.678 160V134.242H452.678V160H456.678ZM453.026 133.115L435.449 158.873L438.753 161.127L456.33 135.369L453.026 133.115ZM437.101 158H423.574V162H437.101V158ZM503.264 160H501.264V162H503.264V160ZM503.264 101.68V99.68H501.264V101.68H503.264ZM541.334 101.68H543.334V99.68H541.334V101.68ZM541.334 111.967V113.967H543.334V111.967H541.334ZM514.28 111.967V109.967H512.28V111.967H514.28ZM514.28 124.441H512.28V126.441H514.28V124.441ZM536.474 124.441H538.474V122.441H536.474V124.441ZM536.474 134.728V136.728H538.474V134.728H536.474ZM514.28 134.728V132.728H512.28V134.728H514.28ZM514.28 149.713H512.28V151.713H514.28V149.713ZM541.334 149.713H543.334V147.713H541.334V149.713ZM541.334 160V162H543.334V160H541.334ZM505.264 160V101.68H501.264V160H505.264ZM503.264 103.68H541.334V99.68H503.264V103.68ZM539.334 101.68V111.967H543.334V101.68H539.334ZM541.334 109.967H514.28V113.967H541.334V109.967ZM512.28 111.967V124.441H516.28V111.967H512.28ZM514.28 126.441H536.474V122.441H514.28V126.441ZM534.474 124.441V134.728H538.474V124.441H534.474ZM536.474 132.728H514.28V136.728H536.474V132.728ZM512.28 134.728V149.713H516.28V134.728H512.28ZM514.28 151.713H541.334V147.713H514.28V151.713ZM539.334 149.713V160H543.334V149.713H539.334ZM541.334 158H503.264V162H541.334V158ZM551.041 160H549.041V162H551.041V160ZM551.041 101.68V99.68H549.041V101.68H551.041ZM562.057 101.68H564.057V99.68H562.057V101.68ZM562.057 125.656H560.057V127.656H562.057V125.656ZM588.139 125.656V127.656H590.139V125.656H588.139ZM588.139 101.68V99.68H586.139V101.68H588.139ZM599.155 101.68H601.155V99.68H599.155V101.68ZM599.155 160V162H601.155V160H599.155ZM588.139 160H586.139V162H588.139V160ZM588.139 135.943H590.139V133.943H588.139V135.943ZM562.057 135.943V133.943H560.057V135.943H562.057ZM562.057 160V162H564.057V160H562.057ZM553.041 160V101.68H549.041V160H553.041ZM551.041 103.68H562.057V99.68H551.041V103.68ZM560.057 101.68V125.656H564.057V101.68H560.057ZM562.057 127.656H588.139V123.656H562.057V127.656ZM590.139 125.656V101.68H586.139V125.656H590.139ZM588.139 103.68H599.155V99.68H588.139V103.68ZM597.155 101.68V160H601.155V101.68H597.155ZM599.155 158H588.139V162H599.155V158ZM590.139 160V135.943H586.139V160H590.139ZM588.139 133.943H562.057V137.943H588.139V133.943ZM560.057 135.943V160H564.057V135.943H560.057ZM562.057 158H551.041V162H562.057V158ZM658.234 160V162H660.234V160H658.234ZM647.056 160H645.056V162H647.056V160ZM647.056 121.12H649.056V114.391L645.381 120.028L647.056 121.12ZM621.703 160V162H622.787L623.379 161.092L621.703 160ZM610.525 160H608.525V162H610.525V160ZM610.525 101.68V99.68H608.525V101.68H610.525ZM621.703 101.68H623.703V99.68H621.703V101.68ZM621.703 140.56H619.703V147.289L623.379 141.652L621.703 140.56ZM647.056 101.68V99.68H645.973L645.381 100.588L647.056 101.68ZM658.234 101.68H660.234V99.68H658.234V101.68ZM658.234 158H647.056V162H658.234V158ZM649.056 160V121.12H645.056V160H649.056ZM645.381 120.028L620.028 158.908L623.379 161.092L648.732 122.212L645.381 120.028ZM621.703 158H610.525V162H621.703V158ZM612.525 160V101.68H608.525V160H612.525ZM610.525 103.68H621.703V99.68H610.525V103.68ZM619.703 101.68V140.56H623.703V101.68H619.703ZM623.379 141.652L648.732 102.772L645.381 100.588L620.028 139.468L623.379 141.652ZM647.056 103.68H658.234V99.68H647.056V103.68ZM656.234 101.68V160H660.234V101.68H656.234ZM712.465 160V162H714.465V160H712.465ZM701.449 160H699.449V162H701.449V160ZM701.449 140.236H703.449V138.236H701.449V140.236ZM687.841 140.236L687.708 142.232L687.775 142.236H687.841V140.236ZM682.981 139.912L682.672 141.888L682.76 141.902L682.848 141.908L682.981 139.912ZM671.56 133.513L669.92 134.657L669.924 134.663L671.56 133.513ZM669.495 112.088L667.64 111.339L667.636 111.349L669.495 112.088ZM674.436 105.446L673.193 103.879L673.193 103.879L674.436 105.446ZM682.981 102.004L683.288 103.98L683.304 103.978L683.321 103.975L682.981 102.004ZM685.573 101.761L685.63 103.76L685.659 103.759L685.687 103.758L685.573 101.761ZM712.465 101.68H714.465V99.68H712.465V101.68ZM679.579 160V162H680.832L681.379 160.872L679.579 160ZM667.105 160L665.307 159.124L663.905 162H667.105V160ZM679.741 134.08L680.12 132.116L678.615 131.826L677.943 133.204L679.741 134.08ZM691.081 136.267L692.881 137.139L694.017 134.796L691.46 134.303L691.081 136.267ZM701.449 129.949V131.949H703.449V129.949H701.449ZM701.449 111.967H703.449V109.967H701.449V111.967ZM686.464 112.048L686.624 114.042L686.624 114.042L686.464 112.048ZM684.601 112.372L685.127 114.302L685.139 114.298L685.151 114.295L684.601 112.372ZM681.159 114.438L682.677 115.739L682.686 115.729L682.695 115.718L681.159 114.438ZM679.458 117.637L677.528 117.111L677.524 117.126L677.52 117.141L679.458 117.637ZM679.458 124.319L677.517 124.805L677.524 124.831L677.531 124.857L679.458 124.319ZM681.159 127.519L679.622 128.799L679.631 128.81L679.64 128.821L681.159 127.519ZM684.601 129.544L685.151 127.621L685.139 127.618L685.127 127.614L684.601 129.544ZM686.464 129.868L686.305 131.862L686.305 131.862L686.464 129.868ZM712.465 158H701.449V162H712.465V158ZM703.449 160V140.236H699.449V160H703.449ZM701.449 138.236H687.841V142.236H701.449V138.236ZM687.974 138.24L683.114 137.916L682.848 141.908L687.708 142.232L687.974 138.24ZM683.29 137.936C678.504 137.188 675.242 135.272 673.196 132.363L669.924 134.663C672.738 138.666 677.09 141.016 682.672 141.888L683.29 137.936ZM673.2 132.369C671.039 129.27 669.915 125.499 669.915 120.958H665.915C665.915 126.191 667.222 130.79 669.92 134.657L673.2 132.369ZM669.915 120.958C669.915 117.907 670.406 115.207 671.353 112.828L667.636 111.349C666.477 114.262 665.915 117.475 665.915 120.958H669.915ZM671.349 112.838C672.302 110.479 673.741 108.549 675.678 107.014L673.193 103.879C670.702 105.854 668.847 108.352 667.64 111.339L671.349 112.838ZM675.678 107.014C677.561 105.521 680.063 104.48 683.288 103.98L682.675 100.028C678.933 100.608 675.738 101.862 673.193 103.879L675.678 107.014ZM683.321 103.975C683.995 103.859 684.763 103.785 685.63 103.76L685.516 99.7618C684.494 99.791 683.533 99.8793 682.641 100.033L683.321 103.975ZM685.687 103.758C686.616 103.705 687.329 103.68 687.841 103.68V99.68C687.219 99.68 686.421 99.7093 685.459 99.7643L685.687 103.758ZM687.841 103.68H712.465V99.68H687.841V103.68ZM710.465 101.68V160H714.465V101.68H710.465ZM679.579 158H667.105V162H679.579V158ZM668.903 160.876L681.539 134.956L677.943 133.204L665.307 159.124L668.903 160.876ZM679.362 136.044L690.703 138.231L691.46 134.303L680.12 132.116L679.362 136.044ZM689.281 135.395L677.779 159.128L681.379 160.872L692.881 137.139L689.281 135.395ZM703.449 129.949V111.967H699.449V129.949H703.449ZM701.449 109.967H688.327V113.967H701.449V109.967ZM688.327 109.967C687.698 109.967 687.023 109.997 686.305 110.054L686.624 114.042C687.255 113.991 687.822 113.967 688.327 113.967V109.967ZM686.305 110.054C685.517 110.117 684.763 110.246 684.052 110.449L685.151 114.295C685.573 114.174 686.062 114.087 686.624 114.042L686.305 110.054ZM684.075 110.442C682.282 110.932 680.747 111.808 679.622 113.157L682.695 115.718C683.191 115.123 683.951 114.622 685.127 114.302L684.075 110.442ZM679.64 113.136C678.64 114.303 677.931 115.634 677.528 117.111L681.387 118.163C681.632 117.264 682.058 116.462 682.677 115.739L679.64 113.136ZM677.52 117.141C677.187 118.442 677.012 119.717 677.012 120.958H681.012C681.012 120.093 681.134 119.154 681.395 118.133L677.52 117.141ZM677.012 120.958C677.012 122.198 677.187 123.483 677.517 124.805L681.398 123.834C681.134 122.78 681.012 121.823 681.012 120.958H677.012ZM677.531 124.857C677.935 126.304 678.64 127.621 679.622 128.799L682.695 126.239C682.057 125.473 681.628 124.657 681.384 123.782L677.531 124.857ZM679.64 128.821C680.767 130.135 682.296 130.988 684.075 131.474L685.127 127.614C683.937 127.29 683.171 126.793 682.677 126.217L679.64 128.821ZM684.052 131.467C684.763 131.67 685.517 131.799 686.305 131.862L686.624 127.874C686.062 127.829 685.573 127.742 685.151 127.621L684.052 131.467ZM686.305 131.862C687.023 131.919 687.698 131.949 688.327 131.949V127.949C687.822 127.949 687.255 127.925 686.624 127.874L686.305 131.862ZM688.327 131.949H701.449V127.949H688.327V131.949ZM749.937 157.408L748.905 159.121L748.91 159.124L749.937 157.408ZM740.177 146.756L738.386 147.647L738.39 147.655L740.177 146.756ZM740.177 114.923L738.39 114.025L738.386 114.033L740.177 114.923ZM749.937 104.272L748.91 102.556L748.905 102.559L749.937 104.272ZM780.11 104.272L779.078 105.985L779.082 105.988L780.11 104.272ZM789.87 114.923L788.079 115.814L788.083 115.822L789.87 114.923ZM789.87 146.756L788.083 145.858L788.079 145.866L789.87 146.756ZM780.11 157.408L779.082 155.692L779.078 155.695L780.11 157.408ZM765.044 150.847L765.015 152.847L765.044 150.847ZM774.278 148.457L775.391 150.119L775.391 150.119L774.278 148.457ZM779.786 141.451L777.936 140.691L777.933 140.698L777.93 140.705L779.786 141.451ZM779.786 120.31L777.935 121.067L777.938 121.074L777.941 121.082L779.786 120.31ZM774.278 113.384L775.391 111.723L775.391 111.723L774.278 113.384ZM765.044 110.833L765.073 108.833L765.073 108.833L765.044 110.833ZM750.261 120.229L748.411 119.469L748.408 119.476L748.405 119.483L750.261 120.229ZM750.261 141.37L748.41 142.127L748.413 142.134L748.416 142.142L750.261 141.37ZM755.81 148.295L754.696 149.957L754.696 149.957L755.81 148.295ZM765.044 159.215C759.508 159.215 754.841 158.013 750.965 155.692L748.91 159.124C753.511 161.879 758.916 163.215 765.044 163.215V159.215ZM750.969 155.695C747.094 153.36 744.096 150.097 741.963 145.858L738.39 147.655C740.848 152.542 744.357 156.38 748.905 159.121L750.969 155.695ZM741.968 145.866C739.861 141.627 738.775 136.636 738.775 130.84H734.775C734.775 137.14 735.957 142.76 738.386 147.647L741.968 145.866ZM738.775 130.84C738.775 125.044 739.861 120.053 741.968 115.814L738.386 114.033C735.957 118.92 734.775 124.54 734.775 130.84H738.775ZM741.963 115.822C744.096 111.583 747.094 108.32 750.969 105.985L748.905 102.559C744.357 105.3 740.848 109.138 738.39 114.025L741.963 115.822ZM750.965 105.988C754.841 103.667 759.508 102.465 765.044 102.465V98.465C758.916 98.465 753.511 99.801 748.91 102.556L750.965 105.988ZM765.044 102.465C770.58 102.465 775.231 103.667 779.078 105.985L781.142 102.559C776.565 99.8009 771.171 98.465 765.044 98.465V102.465ZM779.082 105.988C782.982 108.323 785.976 111.582 788.079 115.814L791.661 114.033C789.229 109.139 785.715 105.297 781.137 102.556L779.082 105.988ZM788.083 115.822C790.215 120.059 791.313 125.047 791.313 130.84H795.313C795.313 124.537 794.116 118.914 791.657 114.025L788.083 115.822ZM791.313 130.84C791.313 136.633 790.215 141.621 788.083 145.858L791.657 147.655C794.116 142.766 795.313 137.143 795.313 130.84H791.313ZM788.079 145.866C785.976 150.098 782.982 153.357 779.082 155.692L781.137 159.124C785.715 156.383 789.229 152.541 791.661 147.647L788.079 145.866ZM779.078 155.695C775.231 158.013 770.58 159.215 765.044 159.215V163.215C771.171 163.215 776.565 161.879 781.142 159.121L779.078 155.695ZM765.015 152.847C769.018 152.905 772.521 152.043 775.391 150.119L773.164 146.796C771.121 148.166 768.468 148.897 765.073 148.847L765.015 152.847ZM775.391 150.119C778.216 148.225 780.293 145.554 781.642 142.197L777.93 140.705C776.849 143.396 775.254 145.396 773.164 146.796L775.391 150.119ZM781.636 142.211C782.997 138.896 783.649 135.09 783.649 130.84H779.649C779.649 134.69 779.058 137.958 777.936 140.691L781.636 142.211ZM783.649 130.84C783.649 126.591 782.998 122.807 781.631 119.538L777.941 121.082C779.058 123.753 779.649 126.989 779.649 130.84H783.649ZM781.637 119.553C780.285 116.247 778.207 113.61 775.391 111.723L773.164 115.046C775.263 116.453 776.857 118.433 777.935 121.067L781.637 119.553ZM775.391 111.723C772.541 109.813 769.062 108.891 765.073 108.833L765.015 112.833C768.424 112.883 771.1 113.662 773.164 115.046L775.391 111.723ZM765.073 108.833C761.07 108.775 757.567 109.637 754.696 111.561L756.923 114.884C758.967 113.514 761.62 112.783 765.015 112.833L765.073 108.833ZM754.696 111.561C751.875 113.452 749.787 116.118 748.411 119.469L752.111 120.989C753.219 118.292 754.83 116.287 756.923 114.884L754.696 111.561ZM748.405 119.483C747.075 122.794 746.439 126.594 746.439 130.84H750.439C750.439 126.986 751.017 123.712 752.117 120.975L748.405 119.483ZM746.439 130.84C746.439 135.084 747.075 138.863 748.41 142.127L752.112 140.613C751.018 137.937 750.439 134.696 750.439 130.84H746.439ZM748.416 142.142C749.795 145.44 751.885 148.072 754.696 149.957L756.923 146.634C754.821 145.225 753.211 143.24 752.106 140.598L748.416 142.142ZM754.696 149.957C757.546 151.867 761.026 152.789 765.015 152.847L765.073 148.847C761.664 148.797 758.987 148.018 756.923 146.634L754.696 149.957ZM813.343 160H811.343V162H813.343V160ZM813.343 111.967H815.343V109.967H813.343V111.967ZM794.956 111.967H792.956V113.967H794.956V111.967ZM794.956 101.68V99.68H792.956V101.68H794.956ZM842.746 101.68H844.746V99.68H842.746V101.68ZM842.746 111.967V113.967H844.746V111.967H842.746ZM824.359 111.967V109.967H822.359V111.967H824.359ZM824.359 160V162H826.359V160H824.359ZM815.343 160V111.967H811.343V160H815.343ZM813.343 109.967H794.956V113.967H813.343V109.967ZM796.956 111.967V101.68H792.956V111.967H796.956ZM794.956 103.68H842.746V99.68H794.956V103.68ZM840.746 101.68V111.967H844.746V101.68H840.746ZM842.746 109.967H824.359V113.967H842.746V109.967ZM822.359 111.967V160H826.359V111.967H822.359ZM824.359 158H813.343V162H824.359V158ZM90.67 246H88.67V248H90.67V246ZM90.67 187.68V185.68H88.67V187.68H90.67ZM138.784 187.68H140.784V185.68H138.784V187.68ZM138.784 246V248H140.784V246H138.784ZM127.768 246H125.768V248H127.768V246ZM127.768 197.967H129.768V195.967H127.768V197.967ZM101.686 197.967V195.967H99.686V197.967H101.686ZM101.686 246V248H103.686V246H101.686ZM92.67 246V187.68H88.67V246H92.67ZM90.67 189.68H138.784V185.68H90.67V189.68ZM136.784 187.68V246H140.784V187.68H136.784ZM138.784 244H127.768V248H138.784V244ZM129.768 246V197.967H125.768V246H129.768ZM127.768 195.967H101.686V199.967H127.768V195.967ZM99.686 197.967V246H103.686V197.967H99.686ZM101.686 244H90.67V248H101.686V244ZM150.154 246H148.154V248H150.154V246ZM150.154 187.68V185.68H148.154V187.68H150.154ZM177.046 187.761L176.932 189.758L176.962 189.759L176.991 189.76L177.046 187.761ZM179.638 188.004L179.287 189.973L179.309 189.977L179.332 189.98L179.638 188.004ZM188.184 191.446L186.941 193.014L186.951 193.021L188.184 191.446ZM193.125 198.088L191.264 198.822L191.267 198.828L193.125 198.088ZM193.084 215.868L191.23 215.119L191.226 215.128L193.084 215.868ZM188.143 222.469L186.91 220.895L186.901 220.902L188.143 222.469ZM179.638 225.912L179.921 227.892L179.934 227.89L179.947 227.888L179.638 225.912ZM177.046 226.155L177.157 228.152L177.157 228.152L177.046 226.155ZM161.17 226.236V224.236H159.17V226.236H161.17ZM161.17 246V248H163.17V246H161.17ZM161.17 215.949H159.17V217.949H161.17V215.949ZM176.155 215.868L176.315 217.862L176.315 217.862L176.155 215.868ZM178.018 215.544L177.492 213.614L177.481 213.618L177.469 213.621L178.018 215.544ZM181.461 213.519L182.979 214.821L182.988 214.81L182.997 214.799L181.461 213.519ZM183.121 210.319L181.192 209.793L181.188 209.809L181.184 209.824L183.121 210.319ZM183.121 203.637L181.181 204.122L181.188 204.148L181.195 204.175L183.121 203.637ZM181.461 200.438L179.924 201.718L179.933 201.729L179.942 201.739L181.461 200.438ZM178.018 198.372L177.469 200.295L177.481 200.298L177.492 200.302L178.018 198.372ZM176.155 198.048L175.996 200.042L175.996 200.042L176.155 198.048ZM161.17 197.967V195.967H159.17V197.967H161.17ZM152.154 246V187.68H148.154V246H152.154ZM150.154 189.68H174.778V185.68H150.154V189.68ZM174.778 189.68C175.291 189.68 176.004 189.705 176.932 189.758L177.16 185.764C176.199 185.709 175.4 185.68 174.778 185.68V189.68ZM176.991 189.76C177.888 189.785 178.65 189.859 179.287 189.973L179.99 186.035C179.114 185.879 178.148 185.791 177.102 185.762L176.991 189.76ZM179.332 189.98C182.556 190.48 185.058 191.521 186.941 193.014L189.426 189.879C186.882 187.862 183.686 186.608 179.945 186.028L179.332 189.98ZM186.951 193.021C188.909 194.554 190.34 196.477 191.264 198.822L194.986 197.355C193.803 194.354 191.941 191.849 189.417 189.872L186.951 193.021ZM191.267 198.828C192.213 201.207 192.704 203.907 192.704 206.958H196.704C196.704 203.475 196.143 200.262 194.983 197.349L191.267 198.828ZM192.704 206.958C192.704 210.002 192.202 212.713 191.23 215.119L194.939 216.617C196.127 213.677 196.704 210.448 196.704 206.958H192.704ZM191.226 215.128C190.304 217.446 188.873 219.358 186.91 220.895L189.377 224.044C191.896 222.071 193.759 219.582 194.943 216.608L191.226 215.128ZM186.901 220.902C185.015 222.397 182.525 223.437 179.33 223.936L179.947 227.888C183.664 227.307 186.844 226.052 189.386 224.037L186.901 220.902ZM179.356 223.932C178.67 224.03 177.865 224.106 176.935 224.158L177.157 228.152C178.172 228.096 179.095 228.01 179.921 227.892L179.356 223.932ZM176.935 224.158C175.976 224.211 175.263 224.236 174.778 224.236V228.236C175.374 228.236 176.173 228.207 177.157 228.152L176.935 224.158ZM174.778 224.236H161.17V228.236H174.778V224.236ZM159.17 226.236V246H163.17V226.236H159.17ZM161.17 244H150.154V248H161.17V244ZM161.17 217.949H174.292V213.949H161.17V217.949ZM174.292 217.949C174.922 217.949 175.597 217.919 176.315 217.862L175.996 213.874C175.364 213.925 174.797 213.949 174.292 213.949V217.949ZM176.315 217.862C177.103 217.799 177.856 217.67 178.568 217.467L177.469 213.621C177.046 213.742 176.558 213.829 175.996 213.874L176.315 217.862ZM178.545 217.474C180.324 216.988 181.853 216.135 182.979 214.821L179.942 212.217C179.449 212.793 178.683 213.29 177.492 213.614L178.545 217.474ZM182.997 214.799C183.987 213.612 184.684 212.28 185.059 210.815L181.184 209.824C180.965 210.681 180.555 211.482 179.924 212.239L182.997 214.799ZM185.051 210.846C185.414 209.514 185.607 208.216 185.607 206.958H181.607C181.607 207.806 181.477 208.749 181.192 209.793L185.051 210.846ZM185.607 206.958C185.607 205.699 185.414 204.411 185.048 203.099L181.195 204.175C181.477 205.185 181.607 206.111 181.607 206.958H185.607ZM185.062 203.152C184.688 201.658 183.988 200.313 182.979 199.136L179.942 201.739C180.554 202.452 180.961 203.24 181.181 204.122L185.062 203.152ZM182.997 199.157C181.873 197.808 180.338 196.932 178.545 196.442L177.492 200.302C178.669 200.622 179.429 201.123 179.924 201.718L182.997 199.157ZM178.568 196.449C177.856 196.246 177.103 196.117 176.315 196.054L175.996 200.042C176.558 200.087 177.046 200.174 177.469 200.295L178.568 196.449ZM176.315 196.054C175.597 195.997 174.922 195.967 174.292 195.967V199.967C174.797 199.967 175.364 199.991 175.996 200.042L176.315 196.054ZM174.292 195.967H161.17V199.967H174.292V195.967ZM159.17 197.967V215.949H163.17V197.967H159.17ZM193.961 246L192.048 245.416L191.258 248H193.961V246ZM211.781 187.68V185.68H210.301L209.868 187.096L211.781 187.68ZM228.224 187.68L230.137 187.096L229.704 185.68H228.224V187.68ZM246.044 246V248H248.746L247.957 245.416L246.044 246ZM234.704 246L232.793 246.59L233.228 248H234.704V246ZM218.828 194.565V192.565H216.117L216.917 195.155L218.828 194.565ZM220.934 194.565L222.847 195.147L223.632 192.565H220.934V194.565ZM205.301 246V248H206.783L207.214 246.582L205.301 246ZM204.653 233.85H202.653V235.85H204.653V233.85ZM204.653 223.563V221.563H202.653V223.563H204.653ZM235.433 223.563H237.433V221.563H235.433V223.563ZM235.433 233.85V235.85H237.433V233.85H235.433ZM195.874 246.584L213.694 188.264L209.868 187.096L192.048 245.416L195.874 246.584ZM211.781 189.68H228.224V185.68H211.781V189.68ZM226.311 188.264L244.131 246.584L247.957 245.416L230.137 187.096L226.311 188.264ZM246.044 244H234.704V248H246.044V244ZM236.615 245.41L220.739 193.975L216.917 195.155L232.793 246.59L236.615 245.41ZM218.828 196.565H220.934V192.565H218.828V196.565ZM219.02 193.983L203.387 245.418L207.214 246.582L222.847 195.147L219.02 193.983ZM205.301 244H193.961V248H205.301V244ZM206.653 233.85V223.563H202.653V233.85H206.653ZM204.653 225.563H235.433V221.563H204.653V225.563ZM233.433 223.563V233.85H237.433V223.563H233.433ZM235.433 231.85H204.653V235.85H235.433V231.85ZM262.005 246H260.005V248H262.005V246ZM262.005 197.967H264.005V195.967H262.005V197.967ZM243.618 197.967H241.618V199.967H243.618V197.967ZM243.618 187.68V185.68H241.618V187.68H243.618ZM291.408 187.68H293.408V185.68H291.408V187.68ZM291.408 197.967V199.967H293.408V197.967H291.408ZM273.021 197.967V195.967H271.021V197.967H273.021ZM273.021 246V248H275.021V246H273.021ZM264.005 246V197.967H260.005V246H264.005ZM262.005 195.967H243.618V199.967H262.005V195.967ZM245.618 197.967V187.68H241.618V197.967H245.618ZM243.618 189.68H291.408V185.68H243.618V189.68ZM289.408 187.68V197.967H293.408V187.68H289.408ZM291.408 195.967H273.021V199.967H291.408V195.967ZM271.021 197.967V246H275.021V197.967H271.021ZM273.021 244H262.005V248H273.021V244ZM297.916 246H295.916V248H297.916V246ZM297.916 187.68V185.68H295.916V187.68H297.916ZM308.932 187.68H310.932V185.68H308.932V187.68ZM308.932 211.656H306.932V213.656H308.932V211.656ZM335.014 211.656V213.656H337.014V211.656H335.014ZM335.014 187.68V185.68H333.014V187.68H335.014ZM346.03 187.68H348.03V185.68H346.03V187.68ZM346.03 246V248H348.03V246H346.03ZM335.014 246H333.014V248H335.014V246ZM335.014 221.943H337.014V219.943H335.014V221.943ZM308.932 221.943V219.943H306.932V221.943H308.932ZM308.932 246V248H310.932V246H308.932ZM299.916 246V187.68H295.916V246H299.916ZM297.916 189.68H308.932V185.68H297.916V189.68ZM306.932 187.68V211.656H310.932V187.68H306.932ZM308.932 213.656H335.014V209.656H308.932V213.656ZM337.014 211.656V187.68H333.014V211.656H337.014ZM335.014 189.68H346.03V185.68H335.014V189.68ZM344.03 187.68V246H348.03V187.68H344.03ZM346.03 244H335.014V248H346.03V244ZM337.014 246V221.943H333.014V246H337.014ZM335.014 219.943H308.932V223.943H335.014V219.943ZM306.932 221.943V246H310.932V221.943H306.932ZM308.932 244H297.916V248H308.932V244ZM357.4 246H355.4V248H357.4V246ZM357.4 187.68V185.68H355.4V187.68H357.4ZM395.47 187.68H397.47V185.68H395.47V187.68ZM395.47 197.967V199.967H397.47V197.967H395.47ZM368.416 197.967V195.967H366.416V197.967H368.416ZM368.416 210.441H366.416V212.441H368.416V210.441ZM390.61 210.441H392.61V208.441H390.61V210.441ZM390.61 220.728V222.728H392.61V220.728H390.61ZM368.416 220.728V218.728H366.416V220.728H368.416ZM368.416 235.713H366.416V237.713H368.416V235.713ZM395.47 235.713H397.47V233.713H395.47V235.713ZM395.47 246V248H397.47V246H395.47ZM359.4 246V187.68H355.4V246H359.4ZM357.4 189.68H395.47V185.68H357.4V189.68ZM393.47 187.68V197.967H397.47V187.68H393.47ZM395.47 195.967H368.416V199.967H395.47V195.967ZM366.416 197.967V210.441H370.416V197.967H366.416ZM368.416 212.441H390.61V208.441H368.416V212.441ZM388.61 210.441V220.728H392.61V210.441H388.61ZM390.61 218.728H368.416V222.728H390.61V218.728ZM366.416 220.728V235.713H370.416V220.728H366.416ZM368.416 237.713H395.47V233.713H368.416V237.713ZM393.47 235.713V246H397.47V235.713H393.47ZM395.47 244H357.4V248H395.47V244ZM405.178 246H403.178V248H405.178V246ZM405.178 187.68V185.68H403.178V187.68H405.178ZM432.07 187.761L431.956 189.758L431.985 189.759L432.014 189.76L432.07 187.761ZM434.662 188.004L434.31 189.973L434.333 189.977L434.355 189.98L434.662 188.004ZM443.207 191.446L441.965 193.014L441.974 193.021L443.207 191.446ZM448.148 198.088L446.287 198.822L446.29 198.828L448.148 198.088ZM448.108 215.868L446.253 215.119L446.25 215.128L448.108 215.868ZM443.167 222.469L441.934 220.895L441.924 220.902L443.167 222.469ZM434.662 225.912L434.945 227.892L434.958 227.89L434.971 227.888L434.662 225.912ZM432.07 226.155L432.181 228.152L432.181 228.152L432.07 226.155ZM416.194 226.236V224.236H414.194V226.236H416.194ZM416.194 246V248H418.194V246H416.194ZM416.194 215.949H414.194V217.949H416.194V215.949ZM431.179 215.868L431.338 217.862L431.338 217.862L431.179 215.868ZM433.042 215.544L432.516 213.614L432.504 213.618L432.492 213.621L433.042 215.544ZM436.484 213.519L438.003 214.821L438.012 214.81L438.021 214.799L436.484 213.519ZM438.145 210.319L436.215 209.793L436.211 209.809L436.207 209.824L438.145 210.319ZM438.145 203.637L436.205 204.122L436.211 204.148L436.218 204.175L438.145 203.637ZM436.484 200.438L434.948 201.718L434.957 201.729L434.966 201.739L436.484 200.438ZM433.042 198.372L432.492 200.295L432.504 200.298L432.516 200.302L433.042 198.372ZM431.179 198.048L431.019 200.042L431.019 200.042L431.179 198.048ZM416.194 197.967V195.967H414.194V197.967H416.194ZM407.178 246V187.68H403.178V246H407.178ZM405.178 189.68H429.802V185.68H405.178V189.68ZM429.802 189.68C430.314 189.68 431.027 189.705 431.956 189.758L432.184 185.764C431.222 185.709 430.424 185.68 429.802 185.68V189.68ZM432.014 189.76C432.912 189.785 433.674 189.859 434.31 189.973L435.013 186.035C434.138 185.879 433.172 185.791 432.125 185.762L432.014 189.76ZM434.355 189.98C437.58 190.48 440.082 191.521 441.965 193.014L444.45 189.879C441.905 187.862 438.71 186.608 434.968 186.028L434.355 189.98ZM441.974 193.021C443.932 194.554 445.364 196.477 446.287 198.822L450.009 197.355C448.827 194.354 446.965 191.849 444.44 189.872L441.974 193.021ZM446.29 198.828C447.237 201.207 447.728 203.907 447.728 206.958H451.728C451.728 203.475 451.166 200.262 450.007 197.349L446.29 198.828ZM447.728 206.958C447.728 210.002 447.225 212.713 446.253 215.119L449.962 216.617C451.15 213.677 451.728 210.448 451.728 206.958H447.728ZM446.25 215.128C445.327 217.446 443.896 219.358 441.934 220.895L444.4 224.044C446.92 222.071 448.782 219.582 449.966 216.608L446.25 215.128ZM441.924 220.902C440.038 222.397 437.548 223.437 434.353 223.936L434.971 227.888C438.687 227.307 441.867 226.052 444.409 224.037L441.924 220.902ZM434.379 223.932C433.693 224.03 432.888 224.106 431.959 224.158L432.181 228.152C433.196 228.096 434.119 228.01 434.945 227.892L434.379 223.932ZM431.959 224.158C431 224.211 430.287 224.236 429.802 224.236V228.236C430.397 228.236 431.196 228.207 432.181 228.152L431.959 224.158ZM429.802 224.236H416.194V228.236H429.802V224.236ZM414.194 226.236V246H418.194V226.236H414.194ZM416.194 244H405.178V248H416.194V244ZM416.194 217.949H429.316V213.949H416.194V217.949ZM429.316 217.949C429.945 217.949 430.62 217.919 431.338 217.862L431.019 213.874C430.388 213.925 429.821 213.949 429.316 213.949V217.949ZM431.338 217.862C432.126 217.799 432.88 217.67 433.591 217.467L432.492 213.621C432.07 213.742 431.581 213.829 431.019 213.874L431.338 217.862ZM433.568 217.474C435.347 216.988 436.877 216.135 438.003 214.821L434.966 212.217C434.472 212.793 433.706 213.29 432.516 213.614L433.568 217.474ZM438.021 214.799C439.01 213.612 439.708 212.28 440.082 210.815L436.207 209.824C435.988 210.681 435.578 211.482 434.948 212.239L438.021 214.799ZM440.074 210.846C440.437 209.514 440.631 208.216 440.631 206.958H436.631C436.631 207.806 436.5 208.749 436.215 209.793L440.074 210.846ZM440.631 206.958C440.631 205.699 440.437 204.411 440.071 203.099L436.218 204.175C436.5 205.185 436.631 206.111 436.631 206.958H440.631ZM440.085 203.152C439.712 201.658 439.011 200.313 438.003 199.136L434.966 201.739C435.577 202.452 435.984 203.24 436.205 204.122L440.085 203.152ZM438.021 199.157C436.896 197.808 435.361 196.932 433.568 196.442L432.516 200.302C433.692 200.622 434.452 201.123 434.948 201.718L438.021 199.157ZM433.591 196.449C432.88 196.246 432.126 196.117 431.338 196.054L431.019 200.042C431.581 200.087 432.07 200.174 432.492 200.295L433.591 196.449ZM431.338 196.054C430.62 195.997 429.945 195.967 429.316 195.967V199.967C429.821 199.967 430.388 199.991 431.019 200.042L431.338 196.054ZM429.316 195.967H416.194V199.967H429.316V195.967ZM414.194 197.967V215.949H418.194V197.967H414.194ZM467.782 243.408L466.75 245.121L466.755 245.124L467.782 243.408ZM458.021 232.756L456.23 233.647L456.235 233.655L458.021 232.756ZM458.021 200.923L456.235 200.025L456.23 200.033L458.021 200.923ZM467.782 190.272L466.755 188.556L466.75 188.559L467.782 190.272ZM497.954 190.272L496.922 191.985L496.927 191.988L497.954 190.272ZM507.715 200.923L505.924 201.814L505.928 201.822L507.715 200.923ZM507.715 232.756L505.928 231.858L505.924 231.866L507.715 232.756ZM497.954 243.408L496.927 241.692L496.922 241.695L497.954 243.408ZM482.888 236.847L482.859 238.847L482.888 236.847ZM492.122 234.457L493.236 236.119L493.236 236.119L492.122 234.457ZM497.63 227.451L495.78 226.691L495.778 226.698L495.775 226.705L497.63 227.451ZM497.63 206.31L495.779 207.067L495.782 207.074L495.785 207.082L497.63 206.31ZM492.122 199.384L493.236 197.723L493.236 197.723L492.122 199.384ZM482.888 196.833L482.918 194.833L482.918 194.833L482.888 196.833ZM468.106 206.229L466.256 205.469L466.253 205.476L466.25 205.483L468.106 206.229ZM468.106 227.37L466.255 228.127L466.258 228.134L466.261 228.142L468.106 227.37ZM473.654 234.295L472.541 235.957L472.541 235.957L473.654 234.295ZM482.888 245.215C477.352 245.215 472.686 244.013 468.809 241.692L466.755 245.124C471.356 247.879 476.76 249.215 482.888 249.215V245.215ZM468.814 241.695C464.938 239.36 461.94 236.097 459.808 231.858L456.235 233.655C458.692 238.542 462.202 242.38 466.75 245.121L468.814 241.695ZM459.812 231.866C457.705 227.627 456.619 222.636 456.619 216.84H452.619C452.619 223.14 453.802 228.76 456.23 233.647L459.812 231.866ZM456.619 216.84C456.619 211.044 457.705 206.053 459.812 201.814L456.23 200.033C453.802 204.92 452.619 210.54 452.619 216.84H456.619ZM459.808 201.822C461.94 197.583 464.938 194.32 468.814 191.985L466.75 188.559C462.202 191.3 458.692 195.138 456.235 200.025L459.808 201.822ZM468.809 191.988C472.686 189.667 477.352 188.465 482.888 188.465V184.465C476.76 184.465 471.356 185.801 466.755 188.556L468.809 191.988ZM482.888 188.465C488.425 188.465 493.075 189.667 496.922 191.985L498.987 188.559C494.409 185.801 489.016 184.465 482.888 184.465V188.465ZM496.927 191.988C500.827 194.323 503.821 197.582 505.924 201.814L509.506 200.033C507.073 195.139 503.56 191.297 498.982 188.556L496.927 191.988ZM505.928 201.822C508.059 206.059 509.157 211.047 509.157 216.84H513.157C513.157 210.537 511.961 204.914 509.502 200.025L505.928 201.822ZM509.157 216.84C509.157 222.633 508.059 227.621 505.928 231.858L509.502 233.655C511.961 228.766 513.157 223.143 513.157 216.84H509.157ZM505.924 231.866C503.821 236.098 500.827 239.357 496.927 241.692L498.982 245.124C503.56 242.383 507.073 238.541 509.506 233.647L505.924 231.866ZM496.922 241.695C493.075 244.013 488.425 245.215 482.888 245.215V249.215C489.016 249.215 494.409 247.879 498.987 245.121L496.922 241.695ZM482.859 238.847C486.862 238.905 490.365 238.043 493.236 236.119L491.009 232.796C488.966 234.166 486.313 234.897 482.918 234.847L482.859 238.847ZM493.236 236.119C496.061 234.225 498.137 231.554 499.486 228.197L495.775 226.705C494.694 229.396 493.098 231.396 491.009 232.796L493.236 236.119ZM499.48 228.211C500.842 224.896 501.493 221.09 501.493 216.84H497.493C497.493 220.69 496.903 223.958 495.78 226.691L499.48 228.211ZM501.493 216.84C501.493 212.591 500.843 208.807 499.476 205.538L495.785 207.082C496.902 209.753 497.493 212.989 497.493 216.84H501.493ZM499.482 205.553C498.129 202.247 496.051 199.61 493.236 197.723L491.009 201.046C493.107 202.453 494.702 204.433 495.779 207.067L499.482 205.553ZM493.236 197.723C490.386 195.813 486.906 194.891 482.918 194.833L482.859 198.833C486.268 198.883 488.945 199.662 491.009 201.046L493.236 197.723ZM482.918 194.833C478.915 194.775 475.412 195.637 472.541 197.561L474.768 200.884C476.811 199.514 479.464 198.783 482.859 198.833L482.918 194.833ZM472.541 197.561C469.72 199.452 467.632 202.118 466.256 205.469L469.956 206.989C471.064 204.292 472.675 202.287 474.768 200.884L472.541 197.561ZM466.25 205.483C464.92 208.794 464.283 212.594 464.283 216.84H468.283C468.283 212.986 468.862 209.712 469.962 206.975L466.25 205.483ZM464.283 216.84C464.283 221.084 464.919 224.863 466.255 228.127L469.957 226.613C468.862 223.937 468.283 220.696 468.283 216.84H464.283ZM466.261 228.142C467.64 231.44 469.729 234.072 472.541 235.957L474.768 232.634C472.666 231.225 471.056 229.24 469.951 226.598L466.261 228.142ZM472.541 235.957C475.391 237.867 478.87 238.789 482.859 238.847L482.918 234.847C479.508 234.797 476.832 234.018 474.768 232.634L472.541 235.957ZM519.242 246H517.242V248H519.242V246ZM519.242 187.68V185.68H517.242V187.68H519.242ZM552.655 190.191L551.562 191.866L551.568 191.87L551.574 191.874L552.655 190.191ZM558.284 196.428L560.092 195.573L560.092 195.573L558.284 196.428ZM557.839 212.182L556.191 211.049L556.186 211.056L556.181 211.064L557.839 212.182ZM551.804 216.516H549.804V219.164L552.351 218.44L551.804 216.516ZM551.804 214.491L552.21 212.533L549.804 212.034V214.491H551.804ZM559.985 219.553L558.34 220.69L558.348 220.702L559.985 219.553ZM560.795 237.535L558.999 236.656L558.996 236.663L558.992 236.671L560.795 237.535ZM554.963 243.772L555.95 245.512L555.957 245.508L555.963 245.505L554.963 243.772ZM530.42 235.632H528.42V237.632H530.42V235.632ZM547.916 234.7L548.86 236.464L548.875 236.456L548.891 236.447L547.916 234.7ZM550.63 232.027L548.901 231.022L548.897 231.029L548.893 231.035L550.63 232.027ZM550.792 224.251L549.021 225.181L549.021 225.181L550.792 224.251ZM548.2 221.7L547.207 223.436L547.232 223.45L547.256 223.464L548.2 221.7ZM530.42 220.728V218.728H528.42V220.728H530.42ZM530.42 210.441H528.42V212.441H530.42V210.441ZM545.729 209.793L544.917 207.965L544.917 207.965L545.729 209.793ZM548.038 207.808L549.725 208.882L549.732 208.871L549.739 208.859L548.038 207.808ZM547.228 199.789L545.749 201.136L545.749 201.136L547.228 199.789ZM530.42 197.967V195.967H528.42V197.967H530.42ZM521.242 246V187.68H517.242V246H521.242ZM519.242 189.68H542.57V185.68H519.242V189.68ZM542.57 189.68C546.475 189.68 549.419 190.467 551.562 191.866L553.748 188.516C550.761 186.567 546.982 185.68 542.57 185.68V189.68ZM551.574 191.874C553.856 193.339 555.464 195.143 556.476 197.283L560.092 195.573C558.729 192.691 556.584 190.337 553.735 188.508L551.574 191.874ZM556.476 197.283C557.549 199.549 558.066 201.797 558.066 204.042H562.066C562.066 201.157 561.396 198.329 560.092 195.573L556.476 197.283ZM558.066 204.042C558.066 207.005 557.396 209.297 556.191 211.049L559.487 213.316C561.252 210.748 562.066 207.613 562.066 204.042H558.066ZM556.181 211.064C554.994 212.823 553.38 213.989 551.258 214.592L552.351 218.44C555.358 217.585 557.768 215.862 559.496 213.301L556.181 211.064ZM553.804 216.516V214.491H549.804V216.516H553.804ZM551.398 216.449C554.631 217.12 556.872 218.565 558.34 220.69L561.631 218.417C559.481 215.304 556.267 213.374 552.21 212.533L551.398 216.449ZM558.348 220.702C559.945 222.98 560.739 225.507 560.739 228.342H564.739C564.739 224.697 563.698 221.365 561.623 218.405L558.348 220.702ZM560.739 228.342C560.739 231.575 560.139 234.329 558.999 236.656L562.591 238.415C564.044 235.45 564.739 232.075 564.739 228.342H560.739ZM558.992 236.671C557.903 238.942 556.245 240.723 553.963 242.04L555.963 245.505C558.92 243.798 561.15 241.421 562.599 238.4L558.992 236.671ZM553.977 242.033C551.739 243.301 548.811 244 545.081 244V248C549.289 248 552.949 247.214 555.95 245.512L553.977 242.033ZM545.081 244H519.242V248H545.081V244ZM530.42 237.632H543.947V233.632H530.42V237.632ZM543.947 237.632C545.719 237.632 547.373 237.259 548.86 236.464L546.973 232.937C546.138 233.384 545.146 233.632 543.947 233.632V237.632ZM548.891 236.447C550.364 235.625 551.534 234.476 552.366 233.02L548.893 231.035C548.429 231.847 547.791 232.48 546.942 232.954L548.891 236.447ZM552.359 233.033C553.239 231.519 553.642 229.797 553.642 227.937H549.642C549.642 229.209 549.371 230.214 548.901 231.022L552.359 233.033ZM553.642 227.937C553.642 226.278 553.299 224.724 552.563 223.322L549.021 225.181C549.419 225.939 549.642 226.842 549.642 227.937H553.642ZM552.563 223.322C551.795 221.859 550.628 220.731 549.143 219.936L547.256 223.464C548.094 223.911 548.655 224.484 549.021 225.181L552.563 223.322ZM549.192 219.964C547.678 219.098 545.894 218.728 543.947 218.728V222.728C545.403 222.728 546.454 223.006 547.207 223.436L549.192 219.964ZM543.947 218.728H530.42V222.728H543.947V218.728ZM528.42 220.728V235.632H532.42V220.728H528.42ZM530.42 212.441H542.408V208.441H530.42V212.441ZM542.408 212.441C543.884 212.441 545.275 212.184 546.542 211.621L544.917 207.965C544.24 208.266 543.417 208.441 542.408 208.441V212.441ZM546.542 211.621C547.87 211.03 548.945 210.108 549.725 208.882L546.35 206.735C545.996 207.291 545.532 207.692 544.917 207.965L546.542 211.621ZM549.739 208.859C550.555 207.538 550.888 205.969 550.888 204.285H546.888C546.888 205.463 546.654 206.243 546.336 206.758L549.739 208.859ZM550.888 204.285C550.888 202.05 550.178 200.058 548.706 198.443L545.749 201.136C546.491 201.951 546.888 202.956 546.888 204.285H550.888ZM548.706 198.443C547.12 196.702 544.909 195.967 542.408 195.967V199.967C544.12 199.967 545.122 200.447 545.749 201.136L548.706 198.443ZM542.408 195.967H530.42V199.967H542.408V195.967ZM528.42 197.967V210.441H532.42V197.967H528.42Z" fill="#1B1B1B" mask="url(#path-1-outside-1_2089_5548)"/>
<path d="M933 172V110" stroke="#1B1B1B" stroke-width="2" stroke-dasharray="13 13"/>
<path d="M49 153.5C40 155.167 21.5 162 11.5 174.5M49 129.5H0M49 104C40 102.333 21.5 95.5 11.5 83" stroke="black" stroke-width="2" stroke-dasharray="13 13"/>
</svg>
